  0
SECTION
  2
HEADER
  9
$ACADVER
  1
AC1021
  9
$ACADMAINTVER
 70
    25
  9
$DWGCODEPAGE
  3
ANSI_1252
  9
$INSBASE
 10
0.0
 20
0.0
 30
0.0
  9
$EXTMIN
 10
-3.72646
 20
-2.22646
 30
0.0
  9
$EXTMAX
 10
3.72646
 20
2.22646
 30
0.0
  9
$LIMMIN
 10
0.0
 20
0.0
  9
$LIMMAX
 10
12.0
 20
9.0
  9
$ORTHOMODE
 70
     0
  9
$REGENMODE
 70
     1
  9
$FILLMODE
 70
     1
  9
$QTEXTMODE
 70
     0
  9
$MIRRTEXT
 70
     1
  9
$LTSCALE
 40
1.0
  9
$ATTMODE
 70
     1
  9
$TEXTSIZE
 40
0.2
  9
$TRACEWID
 40
0.05
  9
$TEXTSTYLE
  7
Standard
  9
$CLAYER
  8
0
  9
$CELTYPE
  6
ByLayer
  9
$CECOLOR
 62
   256
  9
$CELTSCALE
 40
1.0
  9
$DISPSILH
 70
     0
  9
$DIMSCALE
 40
1.0
  9
$DIMASZ
 40
0.18
  9
$DIMEXO
 40
0.0625
  9
$DIMDLI
 40
0.38
  9
$DIMRND
 40
0.0
  9
$DIMDLE
 40
0.0
  9
$DIMEXE
 40
0.18
  9
$DIMTP
 40
0.0
  9
$DIMTM
 40
0.0
  9
$DIMTXT
 40
0.18
  9
$DIMCEN
 40
0.09
  9
$DIMTSZ
 40
0.0
  9
$DIMTOL
 70
     0
  9
$DIMLIM
 70
     0
  9
$DIMTIH
 70
     1
  9
$DIMTOH
 70
     1
  9
$DIMSE1
 70
     0
  9
$DIMSE2
 70
     0
  9
$DIMTAD
 70
     0
  9
$DIMZIN
 70
     0
  9
$DIMBLK
  1

  9
$DIMASO
 70
     1
  9
$DIMSHO
 70
     1
  9
$DIMPOST
  1

  9
$DIMAPOST
  1

  9
$DIMALT
 70
     0
  9
$DIMALTD
 70
     2
  9
$DIMALTF
 40
25.4
  9
$DIMLFAC
 40
1.0
  9
$DIMTOFL
 70
     0
  9
$DIMTVP
 40
0.0
  9
$DIMTIX
 70
     0
  9
$DIMSOXD
 70
     0
  9
$DIMSAH
 70
     0
  9
$DIMBLK1
  1

  9
$DIMBLK2
  1

  9
$DIMSTYLE
  2
Standard
  9
$DIMCLRD
 70
     0
  9
$DIMCLRE
 70
     0
  9
$DIMCLRT
 70
     0
  9
$DIMTFAC
 40
1.0
  9
$DIMGAP
 40
0.09
  9
$DIMJUST
 70
     0
  9
$DIMSD1
 70
     0
  9
$DIMSD2
 70
     0
  9
$DIMTOLJ
 70
     1
  9
$DIMTZIN
 70
     0
  9
$DIMALTZ
 70
     0
  9
$DIMALTTZ
 70
     0
  9
$DIMUPT
 70
     0
  9
$DIMDEC
 70
     4
  9
$DIMTDEC
 70
     4
  9
$DIMALTU
 70
     2
  9
$DIMALTTD
 70
     2
  9
$DIMTXSTY
  7
Standard
  9
$DIMAUNIT
 70
     0
  9
$DIMADEC
 70
     0
  9
$DIMALTRND
 40
0.0
  9
$DIMAZIN
 70
     0
  9
$DIMDSEP
 70
    46
  9
$DIMATFIT
 70
     3
  9
$DIMFRAC
 70
     0
  9
$DIMLDRBLK
  1

  9
$DIMLUNIT
 70
     2
  9
$DIMLWD
 70
    -2
  9
$DIMLWE
 70
    -2
  9
$DIMTMOVE
 70
     0
  9
$DIMFXL
 40
1.0
  9
$DIMFXLON
 70
     0
  9
$DIMJOGANG
 40
0.7853981633974483
  9
$DIMTFILL
 70
     0
  9
$DIMTFILLCLR
 70
     0
  9
$DIMARCSYM
 70
     0
  9
$DIMLTYPE
  6

  9
$DIMLTEX1
  6

  9
$DIMLTEX2
  6

  9
$LUNITS
 70
     2
  9
$LUPREC
 70
     4
  9
$SKETCHINC
 40
0.1
  9
$FILLETRAD
 40
0.5
  9
$AUNITS
 70
     0
  9
$AUPREC
 70
     0
  9
$MENU
  1
.
  9
$ELEVATION
 40
0.0
  9
$PELEVATION
 40
0.0
  9
$THICKNESS
 40
0.0
  9
$LIMCHECK
 70
     0
  9
$CHAMFERA
 40
0.5
  9
$CHAMFERB
 40
0.5
  9
$CHAMFERC
 40
1.0
  9
$CHAMFERD
 40
0.0
  9
$SKPOLY
 70
     0
  9
$TDCREATE
 40
2460255.705500197
  9
$TDUCREATE
 40
2460255.705500197
  9
$TDUPDATE
 40
2460255.705500416
  9
$TDUUPDATE
 40
2460255.705500416
  9
$TDINDWG
 40
0.0000000116
  9
$TDUSRTIMER
 40
0.0000000116
  9
$USRTIMER
 70
     1
  9
$ANGBASE
 50
0.0
  9
$ANGDIR
 70
     0
  9
$PDMODE
 70
     0
  9
$PDSIZE
 40
0.0
  9
$PLINEWID
 40
0.0
  9
$SPLFRAME
 70
     0
  9
$SPLINETYPE
 70
     6
  9
$SPLINESEGS
 70
     8
  9
$HANDSEED
  5
C8
  9
$SURFTAB1
 70
     6
  9
$SURFTAB2
 70
     6
  9
$SURFTYPE
 70
     6
  9
$SURFU
 70
     6
  9
$SURFV
 70
     6
  9
$UCSBASE
  2

  9
$UCSNAME
  2

  9
$UCSORG
 10
0.0
 20
0.0
 30
0.0
  9
$UCSXDIR
 10
1.0
 20
0.0
 30
0.0
  9
$UCSYDIR
 10
0.0
 20
1.0
 30
0.0
  9
$UCSORTHOREF
  2

  9
$UCSORTHOVIEW
 70
     0
  9
$UCSORGTOP
 10
0.0
 20
0.0
 30
0.0
  9
$UCSORGBOTTOM
 10
0.0
 20
0.0
 30
0.0
  9
$UCSORGLEFT
 10
0.0
 20
0.0
 30
0.0
  9
$UCSORGRIGHT
 10
0.0
 20
0.0
 30
0.0
  9
$UCSORGFRONT
 10
0.0
 20
0.0
 30
0.0
  9
$UCSORGBACK
 10
0.0
 20
0.0
 30
0.0
  9
$PUCSBASE
  2

  9
$PUCSNAME
  2

  9
$PUCSORG
 10
0.0
 20
0.0
 30
0.0
  9
$PUCSXDIR
 10
1.0
 20
0.0
 30
0.0
  9
$PUCSYDIR
 10
0.0
 20
1.0
 30
0.0
  9
$PUCSORTHOREF
  2

  9
$PUCSORTHOVIEW
 70
     0
  9
$PUCSORGTOP
 10
0.0
 20
0.0
 30
0.0
  9
$PUCSORGBOTTOM
 10
0.0
 20
0.0
 30
0.0
  9
$PUCSORGLEFT
 10
0.0
 20
0.0
 30
0.0
  9
$PUCSORGRIGHT
 10
0.0
 20
0.0
 30
0.0
  9
$PUCSORGFRONT
 10
0.0
 20
0.0
 30
0.0
  9
$PUCSORGBACK
 10
0.0
 20
0.0
 30
0.0
  9
$USERI1
 70
     0
  9
$USERI2
 70
     0
  9
$USERI3
 70
     0
  9
$USERI4
 70
     0
  9
$USERI5
 70
     0
  9
$USERR1
 40
0.0
  9
$USERR2
 40
0.0
  9
$USERR3
 40
0.0
  9
$USERR4
 40
0.0
  9
$USERR5
 40
0.0
  9
$WORLDVIEW
 70
     1
  9
$SHADEDGE
 70
     3
  9
$SHADEDIF
 70
    70
  9
$TILEMODE
 70
     1
  9
$MAXACTVP
 70
    64
  9
$PINSBASE
 10
0.0
 20
0.0
 30
0.0
  9
$PLIMCHECK
 70
     0
  9
$PEXTMIN
 10
1.000000000000000E+20
 20
1.000000000000000E+20
 30
1.000000000000000E+20
  9
$PEXTMAX
 10
-1.000000000000000E+20
 20
-1.000000000000000E+20
 30
-1.000000000000000E+20
  9
$PLIMMIN
 10
0.0
 20
0.0
  9
$PLIMMAX
 10
12.0
 20
9.0
  9
$UNITMODE
 70
     0
  9
$VISRETAIN
 70
     1
  9
$PLINEGEN
 70
     0
  9
$PSLTSCALE
 70
     1
  9
$TREEDEPTH
 70
  3020
  9
$CMLSTYLE
  2
Standard
  9
$CMLJUST
 70
     0
  9
$CMLSCALE
 40
1.0
  9
$PROXYGRAPHICS
 70
     1
  9
$MEASUREMENT
 70
     0
  9
$CELWEIGHT
370
    -1
  9
$ENDCAPS
280
     0
  9
$JOINSTYLE
280
     0
  9
$LWDISPLAY
290
     0
  9
$INSUNITS
 70
     5
  9
$HYPERLINKBASE
  1

  9
$STYLESHEET
  1

  9
$XEDIT
290
     1
  9
$CEPSNTYPE
380
     0
  9
$PSTYLEMODE
290
     1
  9
$FINGERPRINTGUID
  2
{2CBD4459-B42A-43CC-AF88-9BD9374AD41A}
  9
$VERSIONGUID
  2
{FAEB1C32-E019-11D5-929B-00C0DF256EC4}
  9
$EXTNAMES
290
     1
  9
$PSVPSCALE
 40
0.0
  9
$OLESTARTUP
290
     0
  9
$SORTENTS
280
   127
  9
$INDEXCTL
280
     0
  9
$HIDETEXT
280
     1
  9
$XCLIPFRAME
290
     0
  9
$HALOGAP
280
     0
  9
$OBSCOLOR
 70
   257
  9
$OBSLTYPE
280
     0
  9
$INTERSECTIONDISPLAY
280
     0
  9
$INTERSECTIONCOLOR
 70
   257
  9
$DIMASSOC
280
     2
  9
$PROJECTNAME
  1

  9
$CAMERADISPLAY
290
     0
  9
$LENSLENGTH
 40
50.0
  9
$CAMERAHEIGHT
 40
0.0
  9
$STEPSPERSEC
 40
2.0
  9
$STEPSIZE
 40
6.0
  9
$3DDWFPREC
 40
2.0
  9
$PSOLWIDTH
 40
0.25
  9
$PSOLHEIGHT
 40
4.0
  9
$LOFTANG1
 40
1.570796326794897
  9
$LOFTANG2
 40
1.570796326794897
  9
$LOFTMAG1
 40
0.0
  9
$LOFTMAG2
 40
0.0
  9
$LOFTPARAM
 70
     7
  9
$LOFTNORMALS
280
     1
  9
$LATITUDE
 40
37.795
  9
$LONGITUDE
 40
-122.394
  9
$NORTHDIRECTION
 40
0.0
  9
$TIMEZONE
 70
 -8000
  9
$LIGHTGLYPHDISPLAY
280
     1
  9
$TILEMODELIGHTSYNCH
280
     1
  9
$SOLIDHIST
280
     1
  9
$SHOWHIST
280
     1
  9
$DWFFRAME
280
     2
  9
$DGNFRAME
280
     2
  9
$REALWORLDSCALE
290
     1
  9
$INTERFERECOLOR
 62
   256
  9
$CSHADOW
280
     0
  9
$SHADOWPLANELOCATION
 40
0.0
  0
ENDSEC
  0
SECTION
  2
CLASSES
  0
CLASS
  1
ACDBDICTIONARYWDFLT
  2
AcDbDictionaryWithDefault
  3
ObjectDBX Classes
 90
        0
 91
        4
280
     0
281
     0
  0
CLASS
  1
VISUALSTYLE
  2
AcDbVisualStyle
  3
ObjectDBX Classes
 90
     4095
 91
        4
280
     0
281
     0
  0
CLASS
  1
MATERIAL
  2
AcDbMaterial
  3
ObjectDBX Classes
 90
     1153
 91
        4
280
     0
281
     0
  0
ENDSEC
  0
SECTION
  2
TABLES
  0
TABLE
  2
VPORT
  5
8
330
0
100
AcDbSymbolTable
 70
     1
  0
VPORT
  5
29
330
8
100
AcDbSymbolTableRecord
100
AcDbViewportTableRecord
  2
*Active
 70
     0
 10
0.0
 20
0.0
 11
1.0
 21
1.0
 12
10.42990654205607
 22
4.5
 13
0.0
 23
0.0
 14
0.5
 24
0.5
 15
0.5
 25
0.5
 16
0.0
 26
0.0
 36
1.0
 17
0.0
 27
0.0
 37
0.0
 40
9.0
 41
1.972972972850329
 42
50.0
 43
0.0
 44
0.0
 50
0.0
 51
0.0
 71
     0
 72
   100
 73
     1
 74
     3
 75
     0
 76
     0
 77
     0
 78
     0
281
     0
 65
     1
110
0.0
120
0.0
130
0.0
111
1.0
121
0.0
131
0.0
112
0.0
122
1.0
132
0.0
 79
     0
146
0.0
 60
     3
 61
     5
292
     1
282
     1
141
0.0
142
0.0
 63
   250
  0
ENDTAB
  0
TABLE
  2
LTYPE
  5
5
330
0
100
AcDbSymbolTable
 70
     1
  0
LTYPE
  5
14
330
5
100
AcDbSymbolTableRecord
100
AcDbLinetypeTableRecord
  2
ByBlock
 70
     0
  3

 72
    65
 73
     0
 40
0.0
  0
LTYPE
  5
15
330
5
100
AcDbSymbolTableRecord
100
AcDbLinetypeTableRecord
  2
ByLayer
 70
     0
  3

 72
    65
 73
     0
 40
0.0
  0
LTYPE
  5
16
330
5
100
AcDbSymbolTableRecord
100
AcDbLinetypeTableRecord
  2
Continuous
 70
     0
  3
Solid line
 72
    65
 73
     0
 40
0.0
  0
ENDTAB
  0
TABLE
  2
LAYER
  5
2
330
0
100
AcDbSymbolTable
 70
     2
  0
LAYER
  5
10
330
2
100
AcDbSymbolTableRecord
100
AcDbLayerTableRecord
  2
0
 70
     0
 62
     7
  6
Continuous
370
    -3
390
F
347
3E
  0
LAYER
  5
40
330
2
100
AcDbSymbolTableRecord
100
AcDbLayerTableRecord
  2
Layer 1
 70
     0
 62
     7
  6
Continuous
370
    -3
390
F
347
3E
  0
ENDTAB
  0
TABLE
  2
STYLE
  5
3
330
0
100
AcDbSymbolTable
 70
     1
  0
STYLE
  5
11
330
3
100
AcDbSymbolTableRecord
100
AcDbTextStyleTableRecord
  2
Standard
 70
     0
 40
0.0
 41
1.0
 50
0.0
 71
     0
 42
0.2
  3
txt
  4

  0
ENDTAB
  0
TABLE
  2
VIEW
  5
6
330
0
100
AcDbSymbolTable
 70
     0
  0
ENDTAB
  0
TABLE
  2
UCS
  5
7
330
0
100
AcDbSymbolTable
 70
     0
  0
ENDTAB
  0
TABLE
  2
APPID
  5
9
330
0
100
AcDbSymbolTable
 70
     2
  0
APPID
  5
12
330
9
100
AcDbSymbolTableRecord
100
AcDbRegAppTableRecord
  2
ACAD
 70
     0
  0
APPID
  5
3F
330
9
100
AcDbSymbolTableRecord
100
AcDbRegAppTableRecord
  2
ODA
 70
     0
  0
ENDTAB
  0
TABLE
  2
DIMSTYLE
  5
A
330
0
100
AcDbSymbolTable
 70
     1
100
AcDbDimStyleTable
  0
DIMSTYLE
105
27
330
A
100
AcDbSymbolTableRecord
100
AcDbDimStyleTableRecord
  2
Standard
 70
     0
178
     0
340
11
  0
ENDTAB
  0
TABLE
  2
BLOCK_RECORD
  5
1
330
0
100
AcDbSymbolTable
 70
     1
  0
BLOCK_RECORD
  5
1F
330
1
100
AcDbSymbolTableRecord
100
AcDbBlockTableRecord
  2
*Model_Space
340
22
 70
     0
280
     1
281
     0
  0
BLOCK_RECORD
  5
1B
330
1
100
AcDbSymbolTableRecord
100
AcDbBlockTableRecord
  2
*Paper_Space
340
1E
 70
     0
280
     1
281
     0
  0
BLOCK_RECORD
  5
23
330
1
100
AcDbSymbolTableRecord
100
AcDbBlockTableRecord
  2
*Paper_Space0
340
26
 70
     0
280
     1
281
     0
  0
ENDTAB
  0
ENDSEC
  0
SECTION
  2
BLOCKS
  0
BLOCK
  5
20
330
1F
100
AcDbEntity
  8
0
100
AcDbBlockBegin
  2
*Model_Space
 70
     0
 10
0.0
 20
0.0
 30
0.0
  3
*Model_Space
  1

  0
ENDBLK
  5
21
330
1F
100
AcDbEntity
  8
0
100
AcDbBlockEnd
  0
BLOCK
  5
1C
330
1B
100
AcDbEntity
 67
     1
  8
0
100
AcDbBlockBegin
  2
*Paper_Space
 70
     0
 10
0.0
 20
0.0
 30
0.0
  3
*Paper_Space
  1

  0
ENDBLK
  5
1D
330
1B
100
AcDbEntity
 67
     1
  8
0
100
AcDbBlockEnd
  0
BLOCK
  5
24
330
23
100
AcDbEntity
  8
0
100
AcDbBlockBegin
  2
*Paper_Space0
 70
     0
 10
0.0
 20
0.0
 30
0.0
  3
*Paper_Space0
  1

  0
ENDBLK
  5
25
330
23
100
AcDbEntity
  8
0
100
AcDbBlockEnd
  0
ENDSEC
  0
SECTION
  2
ENTITIES
  0
SPLINE
  5
41
330
1F
100
AcDbEntity
  8
Layer 1
370
    53
100
AcDbSpline
210
0.0
220
0.0
230
1.0
 70
    11
 71
     3
 72
    36
 73
    32
 74
     0
 42
0.0000000001
 43
0.0000000001
 12
1.0
 22
0.0
 32
0.0
 13
1.0
 23
0.0
 33
0.0
 40
0.0
 40
0.0
 40
0.0
 40
0.0
 40
0.1111111111111111
 40
0.1111111111111111
 40
0.1111111111111111
 40
0.1111111111111111
 40
0.2222222222222222
 40
0.2222222222222222
 40
0.2222222222222222
 40
0.2222222222222222
 40
0.3333333333333333
 40
0.3333333333333333
 40
0.3333333333333333
 40
0.3333333333333333
 40
0.4444444444444444
 40
0.4444444444444444
 40
0.4444444444444444
 40
0.4444444444444444
 40
0.5555555555555556
 40
0.5555555555555556
 40
0.5555555555555556
 40
0.5555555555555556
 40
0.6666666666666666
 40
0.6666666666666666
 40
0.6666666666666666
 40
0.6666666666666666
 40
0.7777777777777778
 40
0.7777777777777778
 40
0.7777777777777778
 40
0.7777777777777778
 40
1.0
 40
1.0
 40
1.0
 40
1.0
 10
-3.7
 20
-1.7
 30
0.0
 10
-3.7
 20
-1.7
 30
0.0
 10
-3.7
 20
1.7
 30
0.0
 10
-3.7
 20
1.7
 30
0.0
 10
-3.7
 20
1.7
 30
0.0
 10
-3.7
 20
1.97614
 30
0.0
 10
-3.47614
 20
2.2
 30
0.0
 10
-3.2
 20
2.2
 30
0.0
 10
-3.2
 20
2.2
 30
0.0
 10
-3.2
 20
2.2
 30
0.0
 10
3.2
 20
2.2
 30
0.0
 10
3.2
 20
2.2
 30
0.0
 10
3.2
 20
2.2
 30
0.0
 10
3.47614
 20
2.2
 30
0.0
 10
3.7
 20
1.97614
 30
0.0
 10
3.7
 20
1.7
 30
0.0
 10
3.7
 20
1.7
 30
0.0
 10
3.7
 20
1.7
 30
0.0
 10
3.7
 20
-1.7
 30
0.0
 10
3.7
 20
-1.7
 30
0.0
 10
3.7
 20
-1.7
 30
0.0
 10
3.7
 20
-1.97614
 30
0.0
 10
3.47614
 20
-2.2
 30
0.0
 10
3.2
 20
-2.2
 30
0.0
 10
3.2
 20
-2.2
 30
0.0
 10
3.2
 20
-2.2
 30
0.0
 10
-3.2
 20
-2.2
 30
0.0
 10
-3.2
 20
-2.2
 30
0.0
 10
-3.2
 20
-2.2
 30
0.0
 10
-3.47614
 20
-2.2
 30
0.0
 10
-3.7
 20
-1.97614
 30
0.0
 10
-3.7
 20
-1.7
 30
0.0
  0
ELLIPSE
  5
42
330
1F
100
AcDbEntity
  8
Layer 1
370
    53
100
AcDbEllipse
 10
-2.99999
 20
-0.00001
 30
0.0
 11
0.0
 21
0.30001
 31
0.0
210
0.0
220
0.0
230
1.0
 40
1.0
 41
0.0
 42
6.283185307179586
  0
ELLIPSE
  5
43
330
1F
100
AcDbEntity
  8
Layer 1
370
    53
100
AcDbEllipse
 10
-2.99999
 20
1.49999
 30
0.0
 11
0.0
 21
0.30001
 31
0.0
210
0.0
220
0.0
230
1.0
 40
1.0
 41
0.0
 42
6.283185307179586
  0
ELLIPSE
  5
44
330
1F
100
AcDbEntity
  8
Layer 1
370
    53
100
AcDbEllipse
 10
-3.0
 20
-0.75
 30
0.0
 11
0.0
 21
0.15
 31
0.0
210
0.0
220
0.0
230
1.0
 40
1.0
 41
0.0
 42
6.283185307179586
  0
ELLIPSE
  5
45
330
1F
100
AcDbEntity
  8
Layer 1
370
    53
100
AcDbEllipse
 10
-3.0
 20
0.75
 30
0.0
 11
0.0
 21
0.15
 31
0.0
210
0.0
220
0.0
230
1.0
 40
1.0
 41
0.0
 42
6.283185307179586
  0
LWPOLYLINE
  5
46
330
1F
100
AcDbEntity
  8
Layer 1
370
    53
100
AcDbPolyline
 90
        5
 70
     1
 43
0.0
 10
-1.5375
 20
0.3375
 10
-1.4625
 20
0.3375
 10
-1.4625
 20
0.4125
 10
-1.5375
 20
0.4125
 10
-1.5375
 20
0.3375
  0
LWPOLYLINE
  5
47
330
1F
100
AcDbEntity
  8
Layer 1
370
    53
100
AcDbPolyline
 90
        5
 70
     1
 43
0.0
 10
-1.7915
 20
0.3375
 10
-1.7165
 20
0.3375
 10
-1.7165
 20
0.4125
 10
-1.7915
 20
0.4125
 10
-1.7915
 20
0.3375
  0
LWPOLYLINE
  5
48
330
1F
100
AcDbEntity
  8
Layer 1
 62
     5
370
    53
100
AcDbPolyline
 90
        5
 70
     1
 43
0.0
 10
-2.0455
 20
0.3375
 10
-1.9705
 20
0.3375
 10
-1.9705
 20
0.4125
 10
-2.0455
 20
0.4125
 10
-2.0455
 20
0.3375
  0
SPLINE
  5
49
330
1F
100
AcDbEntity
  8
Layer 1
 62
     5
370
    53
100
AcDbSpline
210
0.0
220
0.0
230
1.0
 70
    11
 71
     3
 72
    20
 73
    16
 74
     0
 42
0.0000000001
 43
0.0000000001
 12
1.0
 22
0.0
 32
0.0
 13
1.0
 23
0.0
 33
0.0
 40
0.0
 40
0.0
 40
0.0
 40
0.0
 40
0.2
 40
0.2
 40
0.2
 40
0.2
 40
0.4
 40
0.4
 40
0.4
 40
0.4
 40
0.6
 40
0.6
 40
0.6
 40
0.6
 40
1.0
 40
1.0
 40
1.0
 40
1.0
 10
-2.135
 20
0.502
 30
0.0
 10
-2.135
 20
0.502
 30
0.0
 10
-1.119
 20
0.502
 30
0.0
 10
-1.119
 20
0.502
 30
0.0
 10
-1.119
 20
0.502
 30
0.0
 10
-1.119
 20
0.502
 30
0.0
 10
-1.119
 20
0.248
 30
0.0
 10
-1.119
 20
0.248
 30
0.0
 10
-1.119
 20
0.248
 30
0.0
 10
-1.119
 20
0.248
 30
0.0
 10
-2.135
 20
0.248
 30
0.0
 10
-2.135
 20
0.248
 30
0.0
 10
-2.135
 20
0.248
 30
0.0
 10
-2.135
 20
0.248
 30
0.0
 10
-2.135
 20
0.502
 30
0.0
 10
-2.135
 20
0.502
 30
0.0
  0
LWPOLYLINE
  5
4A
330
1F
100
AcDbEntity
  8
Layer 1
 62
     5
370
    53
100
AcDbPolyline
 90
        5
 70
     1
 43
0.0
 10
-1.2835
 20
0.3375
 10
-1.2085
 20
0.3375
 10
-1.2085
 20
0.4125
 10
-1.2835
 20
0.4125
 10
-1.2835
 20
0.3375
  0
LWPOLYLINE
  5
4B
330
1F
100
AcDbEntity
  8
Layer 1
370
    53
100
AcDbPolyline
 90
        5
 70
     1
 43
0.0
 10
-1.5375
 20
1.8375
 10
-1.4625
 20
1.8375
 10
-1.4625
 20
1.9125
 10
-1.5375
 20
1.9125
 10
-1.5375
 20
1.8375
  0
LWPOLYLINE
  5
4C
330
1F
100
AcDbEntity
  8
Layer 1
370
    53
100
AcDbPolyline
 90
        5
 70
     1
 43
0.0
 10
-1.7915
 20
1.8375
 10
-1.7165
 20
1.8375
 10
-1.7165
 20
1.9125
 10
-1.7915
 20
1.9125
 10
-1.7915
 20
1.8375
  0
LWPOLYLINE
  5
4D
330
1F
100
AcDbEntity
  8
Layer 1
370
    53
100
AcDbPolyline
 90
        5
 70
     1
 43
0.0
 10
-2.0455
 20
1.8375
 10
-1.9705
 20
1.8375
 10
-1.9705
 20
1.9125
 10
-2.0455
 20
1.9125
 10
-2.0455
 20
1.8375
  0
LWPOLYLINE
  5
4E
330
1F
100
AcDbEntity
  8
Layer 1
 62
     5
370
    53
100
AcDbPolyline
 90
        5
 70
     1
 43
0.0
 10
-2.389
 20
1.748
 10
-0.865
 20
1.748
 10
-0.865
 20
2.002
 10
-2.389
 20
2.002
 10
-2.389
 20
1.748
  0
LWPOLYLINE
  5
4F
330
1F
100
AcDbEntity
  8
Layer 1
 62
     5
370
    53
100
AcDbPolyline
 90
        5
 70
     1
 43
0.0
 10
-1.2835
 20
1.8375
 10
-1.2085
 20
1.8375
 10
-1.2085
 20
1.9125
 10
-1.2835
 20
1.9125
 10
-1.2835
 20
1.8375
  0
LWPOLYLINE
  5
50
330
1F
100
AcDbEntity
  8
Layer 1
 62
     5
370
    53
100
AcDbPolyline
 90
        5
 70
     1
 43
0.0
 10
-1.0295
 20
1.8375
 10
-0.9545
 20
1.8375
 10
-0.9545
 20
1.9125
 10
-1.0295
 20
1.9125
 10
-1.0295
 20
1.8375
  0
LWPOLYLINE
  5
51
330
1F
100
AcDbEntity
  8
Layer 1
 62
     5
370
    53
100
AcDbPolyline
 90
        5
 70
     1
 43
0.0
 10
-2.2995
 20
1.8375
 10
-2.2245
 20
1.8375
 10
-2.2245
 20
1.9125
 10
-2.2995
 20
1.9125
 10
-2.2995
 20
1.8375
  0
SPLINE
  5
52
330
1F
100
AcDbEntity
  8
Layer 1
 62
     5
370
     9
100
AcDbSpline
210
0.0
220
0.0
230
1.0
 70
    11
 71
     3
 72
    48
 73
    44
 74
     0
 42
0.0000000001
 43
0.0000000001
 12
1.0
 22
0.0
 32
0.0
 13
1.0
 23
0.0
 33
0.0
 40
0.0
 40
0.0
 40
0.0
 40
0.0
 40
0.0833333333333333
 40
0.0833333333333333
 40
0.0833333333333333
 40
0.0833333333333333
 40
0.1666666666666667
 40
0.1666666666666667
 40
0.1666666666666667
 40
0.1666666666666667
 40
0.25
 40
0.25
 40
0.25
 40
0.25
 40
0.3333333333333333
 40
0.3333333333333333
 40
0.3333333333333333
 40
0.3333333333333333
 40
0.4166666666666667
 40
0.4166666666666667
 40
0.4166666666666667
 40
0.4166666666666667
 40
0.5
 40
0.5
 40
0.5
 40
0.5
 40
0.5833333333333334
 40
0.5833333333333334
 40
0.5833333333333334
 40
0.5833333333333334
 40
0.6666666666666666
 40
0.6666666666666666
 40
0.6666666666666666
 40
0.6666666666666666
 40
0.75
 40
0.75
 40
0.75
 40
0.75
 40
0.8333333333333334
 40
0.8333333333333334
 40
0.8333333333333334
 40
0.8333333333333334
 40
1.0
 40
1.0
 40
1.0
 40
1.0
 10
-2.25066
 20
0.98738
 30
0.0
 10
-2.25066
 20
0.98738
 30
0.0
 10
-2.25066
 20
1.48078
 30
0.0
 10
-2.25066
 20
1.48078
 30
0.0
 10
-2.25066
 20
1.48078
 30
0.0
 10
-2.25066
 20
1.48078
 30
0.0
 10
-2.1897
 20
1.48078
 30
0.0
 10
-2.1897
 20
1.48078
 30
0.0
 10
-2.1897
 20
1.48078
 30
0.0
 10
-2.1897
 20
1.48078
 30
0.0
 10
-2.1897
 20
1.26413
 30
0.0
 10
-2.1897
 20
1.26413
 30
0.0
 10
-2.1897
 20
1.26413
 30
0.0
 10
-2.16472
 20
1.31123
 30
0.0
 10
-2.12715
 20
1.33473
 30
0.0
 10
-2.07709
 20
1.33473
 30
0.0
 10
-2.07709
 20
1.33473
 30
0.0
 10
-2.03656
 20
1.33473
 30
0.0
 10
-2.0047
 20
1.32001
 30
0.0
 10
-1.98142
 20
1.29049
 30
0.0
 10
-1.98142
 20
1.29049
 30
0.0
 10
-1.95814
 20
1.26096
 30
0.0
 10
-1.94649
 20
1.22064
 30
0.0
 10
-1.94649
 20
1.16952
 30
0.0
 10
-1.94649
 20
1.16952
 30
0.0
 10
-1.94649
 20
1.11385
 30
0.0
 10
-1.95972
 20
1.06887
 30
0.0
 10
-1.98608
 20
1.03479
 30
0.0
 10
-1.98608
 20
1.03479
 30
0.0
 10
-2.01243
 20
1.00061
 30
0.0
 10
-2.04714
 20
0.98357
 30
0.0
 10
-2.09011
 20
0.98357
 30
0.0
 10
-2.09011
 20
0.98357
 30
0.0
 10
-2.13001
 20
0.98357
 30
0.0
 10
-2.16324
 20
0.99881
 30
0.0
 10
-2.1897
 20
1.0294
 30
0.0
 10
-2.1897
 20
1.0294
 30
0.0
 10
-2.1897
 20
1.0294
 30
0.0
 10
-2.19711
 20
0.98738
 30
0.0
 10
-2.19711
 20
0.98738
 30
0.0
 10
-2.19711
 20
0.98738
 30
0.0
 10
-2.19711
 20
0.98738
 30
0.0
 10
-2.25066
 20
0.98738
 30
0.0
 10
-2.25066
 20
0.98738
 30
0.0
  0
SPLINE
  5
53
330
1F
100
AcDbEntity
  8
Layer 1
 62
     5
370
     9
100
AcDbSpline
210
0.0
220
0.0
230
1.0
 70
    11
 71
     3
 72
    28
 73
    24
 74
     0
 42
0.0000000001
 43
0.0000000001
 12
1.0
 22
0.0
 32
0.0
 13
1.0
 23
0.0
 33
0.0
 40
0.0
 40
0.0
 40
0.0
 40
0.0
 40
0.1428571428571428
 40
0.1428571428571428
 40
0.1428571428571428
 40
0.1428571428571428
 40
0.2857142857142857
 40
0.2857142857142857
 40
0.2857142857142857
 40
0.2857142857142857
 40
0.4285714285714285
 40
0.4285714285714285
 40
0.4285714285714285
 40
0.4285714285714285
 40
0.5714285714285714
 40
0.5714285714285714
 40
0.5714285714285714
 40
0.5714285714285714
 40
0.7142857142857143
 40
0.7142857142857143
 40
0.7142857142857143
 40
0.7142857142857143
 40
1.0
 40
1.0
 40
1.0
 40
1.0
 10
-2.1897
 20
1.07141
 30
0.0
 10
-2.15827
 20
1.04337
 30
0.0
 10
-2.12832
 20
1.02929
 30
0.0
 10
-2.09985
 20
1.02929
 30
0.0
 10
-2.09985
 20
1.02929
 30
0.0
 10
-2.0718
 20
1.02929
 30
0.0
 10
-2.05011
 20
1.04104
 30
0.0
 10
-2.03487
 20
1.06443
 30
0.0
 10
-2.03487
 20
1.06443
 30
0.0
 10
-2.01952
 20
1.08782
 30
0.0
 10
-2.0119
 20
1.12073
 30
0.0
 10
-2.0119
 20
1.16328
 30
0.0
 10
-2.0119
 20
1.16328
 30
0.0
 10
-2.0119
 20
1.24202
 30
0.0
 10
-2.03793
 20
1.28139
 30
0.0
 10
-2.09
 20
1.28139
 30
0.0
 10
-2.09
 20
1.28139
 30
0.0
 10
-2.12408
 20
1.28139
 30
0.0
 10
-2.15731
 20
1.26297
 30
0.0
 10
-2.1897
 20
1.22603
 30
0.0
 10
-2.1897
 20
1.22603
 30
0.0
 10
-2.1897
 20
1.22603
 30
0.0
 10
-2.1897
 20
1.07141
 30
0.0
 10
-2.1897
 20
1.07141
 30
0.0
  0
SPLINE
  5
54
330
1F
100
AcDbEntity
  8
Layer 1
 62
     5
370
     9
100
AcDbSpline
210
0.0
220
0.0
230
1.0
 70
    11
 71
     3
 72
    80
 73
    76
 74
     0
 42
0.0000000001
 43
0.0000000001
 12
1.0
 22
0.0
 32
0.0
 13
1.0
 23
0.0
 33
0.0
 40
0.0
 40
0.0
 40
0.0
 40
0.0
 40
0.05
 40
0.05
 40
0.05
 40
0.05
 40
0.1
 40
0.1
 40
0.1
 40
0.1
 40
0.15
 40
0.15
 40
0.15
 40
0.15
 40
0.2
 40
0.2
 40
0.2
 40
0.2
 40
0.25
 40
0.25
 40
0.25
 40
0.25
 40
0.3
 40
0.3
 40
0.3
 40
0.3
 40
0.35
 40
0.35
 40
0.35
 40
0.35
 40
0.4
 40
0.4
 40
0.4
 40
0.4
 40
0.45
 40
0.45
 40
0.45
 40
0.45
 40
0.5
 40
0.5
 40
0.5
 40
0.5
 40
0.55
 40
0.55
 40
0.55
 40
0.55
 40
0.6
 40
0.6
 40
0.6
 40
0.6
 40
0.65
 40
0.65
 40
0.65
 40
0.65
 40
0.7
 40
0.7
 40
0.7
 40
0.7
 40
0.75
 40
0.75
 40
0.75
 40
0.75
 40
0.8
 40
0.8
 40
0.8
 40
0.8
 40
0.85
 40
0.85
 40
0.85
 40
0.85
 40
0.9
 40
0.9
 40
0.9
 40
0.9
 40
1.0
 40
1.0
 40
1.0
 40
1.0
 10
-1.67757
 20
1.03405
 30
0.0
 10
-1.71419
 20
1.0004
 30
0.0
 10
-1.74943
 20
0.98357
 30
0.0
 10
-1.7833
 20
0.98357
 30
0.0
 10
-1.7833
 20
0.98357
 30
0.0
 10
-1.81113
 20
0.98357
 30
0.0
 10
-1.83431
 20
0.99225
 30
0.0
 10
-1.85262
 20
1.00971
 30
0.0
 10
-1.85262
 20
1.00971
 30
0.0
 10
-1.87103
 20
1.02717
 30
0.0
 10
-1.88024
 20
1.04919
 30
0.0
 10
-1.88024
 20
1.07575
 30
0.0
 10
-1.88024
 20
1.07575
 30
0.0
 10
-1.88024
 20
1.11248
 30
0.0
 10
-1.86479
 20
1.14073
 30
0.0
 10
-1.83388
 20
1.16042
 30
0.0
 10
-1.83388
 20
1.16042
 30
0.0
 10
-1.80298
 20
1.1801
 30
0.0
 10
-1.75864
 20
1.18995
 30
0.0
 10
-1.70085
 20
1.18995
 30
0.0
 10
-1.70085
 20
1.18995
 30
0.0
 10
-1.70085
 20
1.18995
 30
0.0
 10
-1.68656
 20
1.18995
 30
0.0
 10
-1.68656
 20
1.18995
 30
0.0
 10
-1.68656
 20
1.18995
 30
0.0
 10
-1.68656
 20
1.18995
 30
0.0
 10
-1.68656
 20
1.23048
 30
0.0
 10
-1.68656
 20
1.23048
 30
0.0
 10
-1.68656
 20
1.23048
 30
0.0
 10
-1.68656
 20
1.26953
 30
0.0
 10
-1.70688
 20
1.28901
 30
0.0
 10
-1.74763
 20
1.28901
 30
0.0
 10
-1.74763
 20
1.28901
 30
0.0
 10
-1.77917
 20
1.28901
 30
0.0
 10
-1.81367
 20
1.27906
 30
0.0
 10
-1.85103
 20
1.25916
 30
0.0
 10
-1.85103
 20
1.25916
 30
0.0
 10
-1.85103
 20
1.25916
 30
0.0
 10
-1.85103
 20
1.30933
 30
0.0
 10
-1.85103
 20
1.30933
 30
0.0
 10
-1.85103
 20
1.30933
 30
0.0
 10
-1.80997
 20
1.32626
 30
0.0
 10
-1.77123
 20
1.33473
 30
0.0
 10
-1.73493
 20
1.33473
 30
0.0
 10
-1.73493
 20
1.33473
 30
0.0
 10
-1.69757
 20
1.33473
 30
0.0
 10
-1.66995
 20
1.32626
 30
0.0
 10
-1.65227
 20
1.30922
 30
0.0
 10
-1.65227
 20
1.30922
 30
0.0
 10
-1.63449
 20
1.29218
 30
0.0
 10
-1.6256
 20
1.26593
 30
0.0
 10
-1.6256
 20
1.23048
 30
0.0
 10
-1.6256
 20
1.23048
 30
0.0
 10
-1.6256
 20
1.23048
 30
0.0
 10
-1.6256
 20
1.0784
 30
0.0
 10
-1.6256
 20
1.0784
 30
0.0
 10
-1.6256
 20
1.0784
 30
0.0
 10
-1.6256
 20
1.04358
 30
0.0
 10
-1.61492
 20
1.02612
 30
0.0
 10
-1.59343
 20
1.02612
 30
0.0
 10
-1.59343
 20
1.02612
 30
0.0
 10
-1.59079
 20
1.02612
 30
0.0
 10
-1.58687
 20
1.02654
 30
0.0
 10
-1.58168
 20
1.02739
 30
0.0
 10
-1.58168
 20
1.02739
 30
0.0
 10
-1.58168
 20
1.02739
 30
0.0
 10
-1.57734
 20
0.99352
 30
0.0
 10
-1.57734
 20
0.99352
 30
0.0
 10
-1.57734
 20
0.99352
 30
0.0
 10
-1.59121
 20
0.98685
 30
0.0
 10
-1.60645
 20
0.98357
 30
0.0
 10
-1.62317
 20
0.98357
 30
0.0
 10
-1.62317
 20
0.98357
 30
0.0
 10
-1.65164
 20
0.98357
 30
0.0
 10
-1.66974
 20
1.0004
 30
0.0
 10
-1.67757
 20
1.03405
 30
0.0
  0
SPLINE
  5
55
330
1F
100
AcDbEntity
  8
Layer 1
 62
     5
370
     9
100
AcDbSpline
210
0.0
220
0.0
230
1.0
 70
    11
 71
     3
 72
    32
 73
    28
 74
     0
 42
0.0000000001
 43
0.0000000001
 12
1.0
 22
0.0
 32
0.0
 13
1.0
 23
0.0
 33
0.0
 40
0.0
 40
0.0
 40
0.0
 40
0.0
 40
0.125
 40
0.125
 40
0.125
 40
0.125
 40
0.25
 40
0.25
 40
0.25
 40
0.25
 40
0.375
 40
0.375
 40
0.375
 40
0.375
 40
0.5
 40
0.5
 40
0.5
 40
0.5
 40
0.625
 40
0.625
 40
0.625
 40
0.625
 40
0.75
 40
0.75
 40
0.75
 40
0.75
 40
1.0
 40
1.0
 40
1.0
 40
1.0
 10
-1.68656
 20
1.06728
 30
0.0
 10
-1.68656
 20
1.06728
 30
0.0
 10
-1.68656
 20
1.15375
 30
0.0
 10
-1.68656
 20
1.15375
 30
0.0
 10
-1.68656
 20
1.15375
 30
0.0
 10
-1.68656
 20
1.15375
 30
0.0
 10
-1.70614
 20
1.15439
 30
0.0
 10
-1.70614
 20
1.15439
 30
0.0
 10
-1.70614
 20
1.15439
 30
0.0
 10
-1.74001
 20
1.15439
 30
0.0
 10
-1.76732
 20
1.14814
 30
0.0
 10
-1.78816
 20
1.13565
 30
0.0
 10
-1.78816
 20
1.13565
 30
0.0
 10
-1.80891
 20
1.12306
 30
0.0
 10
-1.81928
 20
1.10644
 30
0.0
 10
-1.81928
 20
1.0857
 30
0.0
 10
-1.81928
 20
1.0857
 30
0.0
 10
-1.81928
 20
1.0712
 30
0.0
 10
-1.81409
 20
1.05892
 30
0.0
 10
-1.80383
 20
1.04887
 30
0.0
 10
-1.80383
 20
1.04887
 30
0.0
 10
-1.79346
 20
1.03882
 30
0.0
 10
-1.78086
 20
1.03374
 30
0.0
 10
-1.76594
 20
1.03374
 30
0.0
 10
-1.76594
 20
1.03374
 30
0.0
 10
-1.74054
 20
1.03374
 30
0.0
 10
-1.71408
 20
1.04495
 30
0.0
 10
-1.68656
 20
1.06728
 30
0.0
  0
SPLINE
  5
56
330
1F
100
AcDbEntity
  8
Layer 1
 62
     5
370
     9
100
AcDbSpline
210
0.0
220
0.0
230
1.0
 70
    11
 71
     3
 72
    92
 73
    88
 74
     0
 42
0.0000000001
 43
0.0000000001
 12
1.0
 22
0.0
 32
0.0
 13
1.0
 23
0.0
 33
0.0
 40
0.0
 40
0.0
 40
0.0
 40
0.0
 40
0.0434782608695652
 40
0.0434782608695652
 40
0.0434782608695652
 40
0.0434782608695652
 40
0.0869565217391304
 40
0.0869565217391304
 40
0.0869565217391304
 40
0.0869565217391304
 40
0.1304347826086956
 40
0.1304347826086956
 40
0.1304347826086956
 40
0.1304347826086956
 40
0.1739130434782609
 40
0.1739130434782609
 40
0.1739130434782609
 40
0.1739130434782609
 40
0.2173913043478261
 40
0.2173913043478261
 40
0.2173913043478261
 40
0.2173913043478261
 40
0.2608695652173913
 40
0.2608695652173913
 40
0.2608695652173913
 40
0.2608695652173913
 40
0.3043478260869565
 40
0.3043478260869565
 40
0.3043478260869565
 40
0.3043478260869565
 40
0.3478260869565217
 40
0.3478260869565217
 40
0.3478260869565217
 40
0.3478260869565217
 40
0.391304347826087
 40
0.391304347826087
 40
0.391304347826087
 40
0.391304347826087
 40
0.4347826086956522
 40
0.4347826086956522
 40
0.4347826086956522
 40
0.4347826086956522
 40
0.4782608695652174
 40
0.4782608695652174
 40
0.4782608695652174
 40
0.4782608695652174
 40
0.5217391304347826
 40
0.5217391304347826
 40
0.5217391304347826
 40
0.5217391304347826
 40
0.5652173913043478
 40
0.5652173913043478
 40
0.5652173913043478
 40
0.5652173913043478
 40
0.6086956521739131
 40
0.6086956521739131
 40
0.6086956521739131
 40
0.6086956521739131
 40
0.6521739130434783
 40
0.6521739130434783
 40
0.6521739130434783
 40
0.6521739130434783
 40
0.6956521739130435
 40
0.6956521739130435
 40
0.6956521739130435
 40
0.6956521739130435
 40
0.7391304347826086
 40
0.7391304347826086
 40
0.7391304347826086
 40
0.7391304347826086
 40
0.782608695652174
 40
0.782608695652174
 40
0.782608695652174
 40
0.782608695652174
 40
0.8260869565217391
 40
0.8260869565217391
 40
0.8260869565217391
 40
0.8260869565217391
 40
0.8695652173913043
 40
0.8695652173913043
 40
0.8695652173913043
 40
0.8695652173913043
 40
0.9130434782608695
 40
0.9130434782608695
 40
0.9130434782608695
 40
0.9130434782608695
 40
1.0
 40
1.0
 40
1.0
 40
1.0
 10
-1.51246
 20
1.00326
 30
0.0
 10
-1.51246
 20
1.00326
 30
0.0
 10
-1.51246
 20
1.05914
 30
0.0
 10
-1.51246
 20
1.05914
 30
0.0
 10
-1.51246
 20
1.05914
 30
0.0
 10
-1.47257
 20
1.03924
 30
0.0
 10
-1.43796
 20
1.02929
 30
0.0
 10
-1.40843
 20
1.02929
 30
0.0
 10
-1.40843
 20
1.02929
 30
0.0
 10
-1.39086
 20
1.02929
 30
0.0
 10
-1.37626
 20
1.03405
 30
0.0
 10
-1.36472
 20
1.04358
 30
0.0
 10
-1.36472
 20
1.04358
 30
0.0
 10
-1.35319
 20
1.053
 30
0.0
 10
-1.34736
 20
1.06485
 30
0.0
 10
-1.34736
 20
1.07914
 30
0.0
 10
-1.34736
 20
1.07914
 30
0.0
 10
-1.34736
 20
1.09999
 30
0.0
 10
-1.36356
 20
1.11724
 30
0.0
 10
-1.39594
 20
1.13089
 30
0.0
 10
-1.39594
 20
1.13089
 30
0.0
 10
-1.39594
 20
1.13089
 30
0.0
 10
-1.43161
 20
1.14602
 30
0.0
 10
-1.43161
 20
1.14602
 30
0.0
 10
-1.43161
 20
1.14602
 30
0.0
 10
-1.48421
 20
1.16783
 30
0.0
 10
-1.51056
 20
1.19936
 30
0.0
 10
-1.51056
 20
1.24032
 30
0.0
 10
-1.51056
 20
1.24032
 30
0.0
 10
-1.51056
 20
1.26964
 30
0.0
 10
-1.50019
 20
1.29271
 30
0.0
 10
-1.47944
 20
1.30954
 30
0.0
 10
-1.47944
 20
1.30954
 30
0.0
 10
-1.4587
 20
1.32636
 30
0.0
 10
-1.43023
 20
1.33473
 30
0.0
 10
-1.39414
 20
1.33473
 30
0.0
 10
-1.39414
 20
1.33473
 30
0.0
 10
-1.37541
 20
1.33473
 30
0.0
 10
-1.35213
 20
1.33219
 30
0.0
 10
-1.3245
 20
1.327
 30
0.0
 10
-1.3245
 20
1.327
 30
0.0
 10
-1.3245
 20
1.327
 30
0.0
 10
-1.3118
 20
1.32457
 30
0.0
 10
-1.3118
 20
1.32457
 30
0.0
 10
-1.3118
 20
1.32457
 30
0.0
 10
-1.3118
 20
1.32457
 30
0.0
 10
-1.3118
 20
1.27377
 30
0.0
 10
-1.3118
 20
1.27377
 30
0.0
 10
-1.3118
 20
1.27377
 30
0.0
 10
-1.34578
 20
1.28393
 30
0.0
 10
-1.37287
 20
1.28901
 30
0.0
 10
-1.39308
 20
1.28901
 30
0.0
 10
-1.39308
 20
1.28901
 30
0.0
 10
-1.41086
 20
1.28901
 30
0.0
 10
-1.42494
 20
1.28509
 30
0.0
 10
-1.43563
 20
1.27736
 30
0.0
 10
-1.43563
 20
1.27736
 30
0.0
 10
-1.44621
 20
1.26964
 30
0.0
 10
-1.4515
 20
1.25927
 30
0.0
 10
-1.4515
 20
1.24625
 30
0.0
 10
-1.4515
 20
1.24625
 30
0.0
 10
-1.4515
 20
1.22794
 30
0.0
 10
-1.43669
 20
1.21238
 30
0.0
 10
-1.40695
 20
1.19979
 30
0.0
 10
-1.40695
 20
1.19979
 30
0.0
 10
-1.40695
 20
1.19979
 30
0.0
 10
-1.37763
 20
1.18741
 30
0.0
 10
-1.37763
 20
1.18741
 30
0.0
 10
-1.37763
 20
1.18741
 30
0.0
 10
-1.3444
 20
1.17344
 30
0.0
 10
-1.32091
 20
1.15862
 30
0.0
 10
-1.30715
 20
1.14306
 30
0.0
 10
-1.30715
 20
1.14306
 30
0.0
 10
-1.29328
 20
1.1275
 30
0.0
 10
-1.2864
 20
1.10803
 30
0.0
 10
-1.2864
 20
1.08475
 30
0.0
 10
-1.2864
 20
1.08475
 30
0.0
 10
-1.2864
 20
1.05522
 30
0.0
 10
-1.29805
 20
1.03098
 30
0.0
 10
-1.32144
 20
1.01204
 30
0.0
 10
-1.32144
 20
1.01204
 30
0.0
 10
-1.34472
 20
0.9931
 30
0.0
 10
-1.37456
 20
0.98357
 30
0.0
 10
-1.41086
 20
0.98357
 30
0.0
 10
-1.41086
 20
0.98357
 30
0.0
 10
-1.4388
 20
0.98357
 30
0.0
 10
-1.47257
 20
0.99013
 30
0.0
 10
-1.51246
 20
1.00326
 30
0.0
  0
SPLINE
  5
57
330
1F
100
AcDbEntity
  8
Layer 1
 62
     5
370
     9
100
AcDbSpline
210
0.0
220
0.0
230
1.0
 70
    11
 71
     3
 72
    20
 73
    16
 74
     0
 42
0.0000000001
 43
0.0000000001
 12
1.0
 22
0.0
 32
0.0
 13
1.0
 23
0.0
 33
0.0
 40
0.0
 40
0.0
 40
0.0
 40
0.0
 40
0.2
 40
0.2
 40
0.2
 40
0.2
 40
0.4
 40
0.4
 40
0.4
 40
0.4
 40
0.6
 40
0.6
 40
0.6
 40
0.6
 40
1.0
 40
1.0
 40
1.0
 40
1.0
 10
-1.17666
 20
0.99119
 30
0.0
 10
-1.17666
 20
0.99119
 30
0.0
 10
-1.17666
 20
1.32774
 30
0.0
 10
-1.17666
 20
1.32774
 30
0.0
 10
-1.17666
 20
1.32774
 30
0.0
 10
-1.17666
 20
1.32774
 30
0.0
 10
-1.1157
 20
1.32774
 30
0.0
 10
-1.1157
 20
1.32774
 30
0.0
 10
-1.1157
 20
1.32774
 30
0.0
 10
-1.1157
 20
1.32774
 30
0.0
 10
-1.1157
 20
0.99119
 30
0.0
 10
-1.1157
 20
0.99119
 30
0.0
 10
-1.1157
 20
0.99119
 30
0.0
 10
-1.1157
 20
0.99119
 30
0.0
 10
-1.17666
 20
0.99119
 30
0.0
 10
-1.17666
 20
0.99119
 30
0.0
  0
SPLINE
  5
58
330
1F
100
AcDbEntity
  8
Layer 1
 62
     5
370
     9
100
AcDbSpline
210
0.0
220
0.0
230
1.0
 70
    11
 71
     3
 72
    20
 73
    16
 74
     0
 42
0.0000000001
 43
0.0000000001
 12
1.0
 22
0.0
 32
0.0
 13
1.0
 23
0.0
 33
0.0
 40
0.0
 40
0.0
 40
0.0
 40
0.0
 40
0.2
 40
0.2
 40
0.2
 40
0.2
 40
0.4
 40
0.4
 40
0.4
 40
0.4
 40
0.6
 40
0.6
 40
0.6
 40
0.6
 40
1.0
 40
1.0
 40
1.0
 40
1.0
 10
-1.17666
 20
1.38934
 30
0.0
 10
-1.17666
 20
1.38934
 30
0.0
 10
-1.17666
 20
1.4503
 30
0.0
 10
-1.17666
 20
1.4503
 30
0.0
 10
-1.17666
 20
1.4503
 30
0.0
 10
-1.17666
 20
1.4503
 30
0.0
 10
-1.1157
 20
1.4503
 30
0.0
 10
-1.1157
 20
1.4503
 30
0.0
 10
-1.1157
 20
1.4503
 30
0.0
 10
-1.1157
 20
1.4503
 30
0.0
 10
-1.1157
 20
1.38934
 30
0.0
 10
-1.1157
 20
1.38934
 30
0.0
 10
-1.1157
 20
1.38934
 30
0.0
 10
-1.1157
 20
1.38934
 30
0.0
 10
-1.17666
 20
1.38934
 30
0.0
 10
-1.17666
 20
1.38934
 30
0.0
  0
SPLINE
  5
59
330
1F
100
AcDbEntity
  8
Layer 1
 62
     5
370
     9
100
AcDbSpline
210
0.0
220
0.0
230
1.0
 70
    11
 71
     3
 72
    60
 73
    56
 74
     0
 42
0.0000000001
 43
0.0000000001
 12
1.0
 22
0.0
 32
0.0
 13
1.0
 23
0.0
 33
0.0
 40
0.0
 40
0.0
 40
0.0
 40
0.0
 40
0.0666666666666667
 40
0.0666666666666667
 40
0.0666666666666667
 40
0.0666666666666667
 40
0.1333333333333333
 40
0.1333333333333333
 40
0.1333333333333333
 40
0.1333333333333333
 40
0.2
 40
0.2
 40
0.2
 40
0.2
 40
0.2666666666666667
 40
0.2666666666666667
 40
0.2666666666666667
 40
0.2666666666666667
 40
0.3333333333333333
 40
0.3333333333333333
 40
0.3333333333333333
 40
0.3333333333333333
 40
0.4
 40
0.4
 40
0.4
 40
0.4
 40
0.4666666666666667
 40
0.4666666666666667
 40
0.4666666666666667
 40
0.4666666666666667
 40
0.5333333333333333
 40
0.5333333333333333
 40
0.5333333333333333
 40
0.5333333333333333
 40
0.6
 40
0.6
 40
0.6
 40
0.6
 40
0.6666666666666666
 40
0.6666666666666666
 40
0.6666666666666666
 40
0.6666666666666666
 40
0.7333333333333333
 40
0.7333333333333333
 40
0.7333333333333333
 40
0.7333333333333333
 40
0.8
 40
0.8
 40
0.8
 40
0.8
 40
0.8666666666666667
 40
0.8666666666666667
 40
0.8666666666666667
 40
0.8666666666666667
 40
1.0
 40
1.0
 40
1.0
 40
1.0
 10
-0.75946
 20
1.00135
 30
0.0
 10
-0.79894
 20
0.9895
 30
0.0
 10
-0.83301
 20
0.98357
 30
0.0
 10
-0.86169
 20
0.98357
 30
0.0
 10
-0.86169
 20
0.98357
 30
0.0
 10
-0.9072
 20
0.98357
 30
0.0
 10
-0.94488
 20
1.0004
 30
0.0
 10
-0.97483
 20
1.03395
 30
0.0
 10
-0.97483
 20
1.03395
 30
0.0
 10
-1.00478
 20
1.0676
 30
0.0
 10
-1.01981
 20
1.11004
 30
0.0
 10
-1.01981
 20
1.16116
 30
0.0
 10
-1.01981
 20
1.16116
 30
0.0
 10
-1.01981
 20
1.21577
 30
0.0
 10
-1.00499
 20
1.25842
 30
0.0
 10
-0.97536
 20
1.2889
 30
0.0
 10
-0.97536
 20
1.2889
 30
0.0
 10
-0.94573
 20
1.31949
 30
0.0
 10
-0.90435
 20
1.33473
 30
0.0
 10
-0.85122
 20
1.33473
 30
0.0
 10
-0.85122
 20
1.33473
 30
0.0
 10
-0.82508
 20
1.33473
 30
0.0
 10
-0.79565
 20
1.33113
 30
0.0
 10
-0.76327
 20
1.32393
 30
0.0
 10
-0.76327
 20
1.32393
 30
0.0
 10
-0.76327
 20
1.32393
 30
0.0
 10
-0.76327
 20
1.2725
 30
0.0
 10
-0.76327
 20
1.2725
 30
0.0
 10
-0.76327
 20
1.2725
 30
0.0
 10
-0.79767
 20
1.28266
 30
0.0
 10
-0.82571
 20
1.28774
 30
0.0
 10
-0.8473
 20
1.28774
 30
0.0
 10
-0.8473
 20
1.28774
 30
0.0
 10
-0.87863
 20
1.28774
 30
0.0
 10
-0.90371
 20
1.27599
 30
0.0
 10
-0.92244
 20
1.2526
 30
0.0
 10
-0.92244
 20
1.2526
 30
0.0
 10
-0.94118
 20
1.22921
 30
0.0
 10
-0.95059
 20
1.19799
 30
0.0
 10
-0.95059
 20
1.15904
 30
0.0
 10
-0.95059
 20
1.15904
 30
0.0
 10
-0.95059
 20
1.12126
 30
0.0
 10
-0.94086
 20
1.09078
 30
0.0
 10
-0.92149
 20
1.06739
 30
0.0
 10
-0.92149
 20
1.06739
 30
0.0
 10
-0.90212
 20
1.04411
 30
0.0
 10
-0.87683
 20
1.03247
 30
0.0
 10
-0.8454
 20
1.03247
 30
0.0
 10
-0.8454
 20
1.03247
 30
0.0
 10
-0.81756
 20
1.03247
 30
0.0
 10
-0.78899
 20
1.03966
 30
0.0
 10
-0.75946
 20
1.05406
 30
0.0
 10
-0.75946
 20
1.05406
 30
0.0
 10
-0.75946
 20
1.05406
 30
0.0
 10
-0.75946
 20
1.00135
 30
0.0
 10
-0.75946
 20
1.00135
 30
0.0
  0
LWPOLYLINE
  5
5A
330
1F
100
AcDbEntity
  8
Layer 1
370
    53
100
AcDbPolyline
 90
        5
 70
     1
 43
0.0
 10
-1.5375
 20
-1.1625
 10
-1.4625
 20
-1.1625
 10
-1.4625
 20
-1.0875
 10
-1.5375
 20
-1.0875
 10
-1.5375
 20
-1.1625
  0
LWPOLYLINE
  5
5B
330
1F
100
AcDbEntity
  8
Layer 1
370
    53
100
AcDbPolyline
 90
        5
 70
     1
 43
0.0
 10
-1.7915
 20
-1.1625
 10
-1.7165
 20
-1.1625
 10
-1.7165
 20
-1.0875
 10
-1.7915
 20
-1.0875
 10
-1.7915
 20
-1.1625
  0
LWPOLYLINE
  5
5C
330
1F
100
AcDbEntity
  8
Layer 1
 62
     5
370
    53
100
AcDbPolyline
 90
        5
 70
     1
 43
0.0
 10
-2.0455
 20
-1.1625
 10
-1.9705
 20
-1.1625
 10
-1.9705
 20
-1.0875
 10
-2.0455
 20
-1.0875
 10
-2.0455
 20
-1.1625
  0
SPLINE
  5
5D
330
1F
100
AcDbEntity
  8
Layer 1
 62
     5
370
    53
100
AcDbSpline
210
0.0
220
0.0
230
1.0
 70
    11
 71
     3
 72
    20
 73
    16
 74
     0
 42
0.0000000001
 43
0.0000000001
 12
1.0
 22
0.0
 32
0.0
 13
1.0
 23
0.0
 33
0.0
 40
0.0
 40
0.0
 40
0.0
 40
0.0
 40
0.2
 40
0.2
 40
0.2
 40
0.2
 40
0.4
 40
0.4
 40
0.4
 40
0.4
 40
0.6
 40
0.6
 40
0.6
 40
0.6
 40
1.0
 40
1.0
 40
1.0
 40
1.0
 10
-2.389
 20
-0.998
 30
0.0
 10
-2.389
 20
-0.998
 30
0.0
 10
-1.119
 20
-0.998
 30
0.0
 10
-1.119
 20
-0.998
 30
0.0
 10
-1.119
 20
-0.998
 30
0.0
 10
-1.119
 20
-0.998
 30
0.0
 10
-1.119
 20
-1.252
 30
0.0
 10
-1.119
 20
-1.252
 30
0.0
 10
-1.119
 20
-1.252
 30
0.0
 10
-1.119
 20
-1.252
 30
0.0
 10
-2.389
 20
-1.252
 30
0.0
 10
-2.389
 20
-1.252
 30
0.0
 10
-2.389
 20
-1.252
 30
0.0
 10
-2.389
 20
-1.252
 30
0.0
 10
-2.389
 20
-0.998
 30
0.0
 10
-2.389
 20
-0.998
 30
0.0
  0
LWPOLYLINE
  5
5E
330
1F
100
AcDbEntity
  8
Layer 1
 62
     5
370
    53
100
AcDbPolyline
 90
        5
 70
     1
 43
0.0
 10
-1.2835
 20
-1.1625
 10
-1.2085
 20
-1.1625
 10
-1.2085
 20
-1.0875
 10
-1.2835
 20
-1.0875
 10
-1.2835
 20
-1.1625
  0
LWPOLYLINE
  5
5F
330
1F
100
AcDbEntity
  8
Layer 1
 62
     5
370
    53
100
AcDbPolyline
 90
        5
 70
     1
 43
0.0
 10
-2.2995
 20
-1.1625
 10
-2.2245
 20
-1.1625
 10
-2.2245
 20
-1.0875
 10
-2.2995
 20
-1.0875
 10
-2.2995
 20
-1.1625
  0
ELLIPSE
  5
60
330
1F
100
AcDbEntity
  8
Layer 1
370
    53
100
AcDbEllipse
 10
3.00001
 20
-0.00001
 30
0.0
 11
0.0
 21
0.30001
 31
0.0
210
0.0
220
0.0
230
1.0
 40
1.0
 41
0.0
 42
6.283185307179586
  0
ELLIPSE
  5
61
330
1F
100
AcDbEntity
  8
Layer 1
370
    53
100
AcDbEllipse
 10
3.00001
 20
1.49999
 30
0.0
 11
0.0
 21
0.30001
 31
0.0
210
0.0
220
0.0
230
1.0
 40
1.0
 41
0.0
 42
6.283185307179586
  0
ELLIPSE
  5
62
330
1F
100
AcDbEntity
  8
Layer 1
370
    53
100
AcDbEllipse
 10
3.0
 20
-0.75
 30
0.0
 11
0.0
 21
0.15
 31
0.0
210
0.0
220
0.0
230
1.0
 40
1.0
 41
0.0
 42
6.283185307179586
  0
ELLIPSE
  5
63
330
1F
100
AcDbEntity
  8
Layer 1
370
    53
100
AcDbEllipse
 10
3.0
 20
0.75
 30
0.0
 11
0.0
 21
0.15
 31
0.0
210
0.0
220
0.0
230
1.0
 40
1.0
 41
0.0
 42
6.283185307179586
  0
SPLINE
  5
64
330
1F
100
AcDbEntity
  8
Layer 1
 62
     5
370
     9
100
AcDbSpline
210
0.0
220
0.0
230
1.0
 70
    11
 71
     3
 72
    84
 73
    80
 74
     0
 42
0.0000000001
 43
0.0000000001
 12
1.0
 22
0.0
 32
0.0
 13
1.0
 23
0.0
 33
0.0
 40
0.0
 40
0.0
 40
0.0
 40
0.0
 40
0.0476190476190476
 40
0.0476190476190476
 40
0.0476190476190476
 40
0.0476190476190476
 40
0.0952380952380952
 40
0.0952380952380952
 40
0.0952380952380952
 40
0.0952380952380952
 40
0.1428571428571428
 40
0.1428571428571428
 40
0.1428571428571428
 40
0.1428571428571428
 40
0.1904761904761905
 40
0.1904761904761905
 40
0.1904761904761905
 40
0.1904761904761905
 40
0.2380952380952381
 40
0.2380952380952381
 40
0.2380952380952381
 40
0.2380952380952381
 40
0.2857142857142857
 40
0.2857142857142857
 40
0.2857142857142857
 40
0.2857142857142857
 40
0.3333333333333333
 40
0.3333333333333333
 40
0.3333333333333333
 40
0.3333333333333333
 40
0.3809523809523809
 40
0.3809523809523809
 40
0.3809523809523809
 40
0.3809523809523809
 40
0.4285714285714285
 40
0.4285714285714285
 40
0.4285714285714285
 40
0.4285714285714285
 40
0.4761904761904762
 40
0.4761904761904762
 40
0.4761904761904762
 40
0.4761904761904762
 40
0.5238095238095238
 40
0.5238095238095238
 40
0.5238095238095238
 40
0.5238095238095238
 40
0.5714285714285714
 40
0.5714285714285714
 40
0.5714285714285714
 40
0.5714285714285714
 40
0.6190476190476191
 40
0.6190476190476191
 40
0.6190476190476191
 40
0.6190476190476191
 40
0.6666666666666666
 40
0.6666666666666666
 40
0.6666666666666666
 40
0.6666666666666666
 40
0.7142857142857143
 40
0.7142857142857143
 40
0.7142857142857143
 40
0.7142857142857143
 40
0.7619047619047619
 40
0.7619047619047619
 40
0.7619047619047619
 40
0.7619047619047619
 40
0.8095238095238095
 40
0.8095238095238095
 40
0.8095238095238095
 40
0.8095238095238095
 40
0.8571428571428571
 40
0.8571428571428571
 40
0.8571428571428571
 40
0.8571428571428571
 40
0.9047619047619048
 40
0.9047619047619048
 40
0.9047619047619048
 40
0.9047619047619048
 40
1.0
 40
1.0
 40
1.0
 40
1.0
 10
-2.39448
 20
-0.50881
 30
0.0
 10
-2.39448
 20
-0.50881
 30
0.0
 10
-2.39448
 20
-0.17226
 30
0.0
 10
-2.39448
 20
-0.17226
 30
0.0
 10
-2.39448
 20
-0.17226
 30
0.0
 10
-2.39448
 20
-0.17226
 30
0.0
 10
-2.33352
 20
-0.17226
 30
0.0
 10
-2.33352
 20
-0.17226
 30
0.0
 10
-2.33352
 20
-0.17226
 30
0.0
 10
-2.33352
 20
-0.17226
 30
0.0
 10
-2.33352
 20
-0.23587
 30
0.0
 10
-2.33352
 20
-0.23587
 30
0.0
 10
-2.33352
 20
-0.23587
 30
0.0
 10
-2.30378
 20
-0.18877
 30
0.0
 10
-2.26568
 20
-0.16527
 30
0.0
 10
-2.21901
 20
-0.16527
 30
0.0
 10
-2.21901
 20
-0.16527
 30
0.0
 10
-2.17403
 20
-0.16527
 30
0.0
 10
-2.14344
 20
-0.18877
 30
0.0
 10
-2.12714
 20
-0.23587
 30
0.0
 10
-2.12714
 20
-0.23587
 30
0.0
 10
-2.09825
 20
-0.18835
 30
0.0
 10
-2.06058
 20
-0.16464
 30
0.0
 10
-2.01433
 20
-0.16464
 30
0.0
 10
-2.01433
 20
-0.16464
 30
0.0
 10
-1.9848
 20
-0.16464
 30
0.0
 10
-1.96183
 20
-0.17332
 30
0.0
 10
-1.94543
 20
-0.19078
 30
0.0
 10
-1.94543
 20
-0.19078
 30
0.0
 10
-1.92902
 20
-0.20824
 30
0.0
 10
-1.92077
 20
-0.23269
 30
0.0
 10
-1.92077
 20
-0.26412
 30
0.0
 10
-1.92077
 20
-0.26412
 30
0.0
 10
-1.92077
 20
-0.26412
 30
0.0
 10
-1.92077
 20
-0.50881
 30
0.0
 10
-1.92077
 20
-0.50881
 30
0.0
 10
-1.92077
 20
-0.50881
 30
0.0
 10
-1.92077
 20
-0.50881
 30
0.0
 10
-1.98173
 20
-0.50881
 30
0.0
 10
-1.98173
 20
-0.50881
 30
0.0
 10
-1.98173
 20
-0.50881
 30
0.0
 10
-1.98173
 20
-0.50881
 30
0.0
 10
-1.98173
 20
-0.27418
 30
0.0
 10
-1.98173
 20
-0.27418
 30
0.0
 10
-1.98173
 20
-0.27418
 30
0.0
 10
-1.98173
 20
-0.23587
 30
0.0
 10
-1.99697
 20
-0.21671
 30
0.0
 10
-2.02745
 20
-0.21671
 30
0.0
 10
-2.02745
 20
-0.21671
 30
0.0
 10
-2.05909
 20
-0.21671
 30
0.0
 10
-2.09233
 20
-0.23904
 30
0.0
 10
-2.12714
 20
-0.28381
 30
0.0
 10
-2.12714
 20
-0.28381
 30
0.0
 10
-2.12714
 20
-0.28381
 30
0.0
 10
-2.12714
 20
-0.50881
 30
0.0
 10
-2.12714
 20
-0.50881
 30
0.0
 10
-2.12714
 20
-0.50881
 30
0.0
 10
-2.12714
 20
-0.50881
 30
0.0
 10
-2.1881
 20
-0.50881
 30
0.0
 10
-2.1881
 20
-0.50881
 30
0.0
 10
-2.1881
 20
-0.50881
 30
0.0
 10
-2.1881
 20
-0.50881
 30
0.0
 10
-2.1881
 20
-0.27397
 30
0.0
 10
-2.1881
 20
-0.27397
 30
0.0
 10
-2.1881
 20
-0.27397
 30
0.0
 10
-2.1881
 20
-0.23534
 30
0.0
 10
-2.20356
 20
-0.21607
 30
0.0
 10
-2.23457
 20
-0.21607
 30
0.0
 10
-2.23457
 20
-0.21607
 30
0.0
 10
-2.26536
 20
-0.21607
 30
0.0
 10
-2.29838
 20
-0.23851
 30
0.0
 10
-2.33352
 20
-0.28349
 30
0.0
 10
-2.33352
 20
-0.28349
 30
0.0
 10
-2.33352
 20
-0.28349
 30
0.0
 10
-2.33352
 20
-0.50881
 30
0.0
 10
-2.33352
 20
-0.50881
 30
0.0
 10
-2.33352
 20
-0.50881
 30
0.0
 10
-2.33352
 20
-0.50881
 30
0.0
 10
-2.39448
 20
-0.50881
 30
0.0
 10
-2.39448
 20
-0.50881
 30
0.0
  0
SPLINE
  5
65
330
1F
100
AcDbEntity
  8
Layer 1
 62
     5
370
     9
100
AcDbSpline
210
0.0
220
0.0
230
1.0
 70
    11
 71
     3
 72
    36
 73
    32
 74
     0
 42
0.0000000001
 43
0.0000000001
 12
1.0
 22
0.0
 32
0.0
 13
1.0
 23
0.0
 33
0.0
 40
0.0
 40
0.0
 40
0.0
 40
0.0
 40
0.1111111111111111
 40
0.1111111111111111
 40
0.1111111111111111
 40
0.1111111111111111
 40
0.2222222222222222
 40
0.2222222222222222
 40
0.2222222222222222
 40
0.2222222222222222
 40
0.3333333333333333
 40
0.3333333333333333
 40
0.3333333333333333
 40
0.3333333333333333
 40
0.4444444444444444
 40
0.4444444444444444
 40
0.4444444444444444
 40
0.4444444444444444
 40
0.5555555555555556
 40
0.5555555555555556
 40
0.5555555555555556
 40
0.5555555555555556
 40
0.6666666666666666
 40
0.6666666666666666
 40
0.6666666666666666
 40
0.6666666666666666
 40
0.7777777777777778
 40
0.7777777777777778
 40
0.7777777777777778
 40
0.7777777777777778
 40
1.0
 40
1.0
 40
1.0
 40
1.0
 10
-1.66761
 20
-0.51643
 30
0.0
 10
-1.71704
 20
-0.51643
 30
0.0
 10
-1.7562
 20
-0.50066
 30
0.0
 10
-1.78498
 20
-0.46912
 30
0.0
 10
-1.78498
 20
-0.46912
 30
0.0
 10
-1.81388
 20
-0.43758
 30
0.0
 10
-1.82827
 20
-0.39472
 30
0.0
 10
-1.82827
 20
-0.34064
 30
0.0
 10
-1.82827
 20
-0.34064
 30
0.0
 10
-1.82827
 20
-0.28667
 30
0.0
 10
-1.81388
 20
-0.24391
 30
0.0
 10
-1.78498
 20
-0.21248
 30
0.0
 10
-1.78498
 20
-0.21248
 30
0.0
 10
-1.7562
 20
-0.18104
 30
0.0
 10
-1.71704
 20
-0.16527
 30
0.0
 10
-1.66761
 20
-0.16527
 30
0.0
 10
-1.66761
 20
-0.16527
 30
0.0
 10
-1.61819
 20
-0.16527
 30
0.0
 10
-1.57903
 20
-0.18104
 30
0.0
 10
-1.55025
 20
-0.21248
 30
0.0
 10
-1.55025
 20
-0.21248
 30
0.0
 10
-1.52135
 20
-0.24391
 30
0.0
 10
-1.50696
 20
-0.28667
 30
0.0
 10
-1.50696
 20
-0.34064
 30
0.0
 10
-1.50696
 20
-0.34064
 30
0.0
 10
-1.50696
 20
-0.39472
 30
0.0
 10
-1.52135
 20
-0.43758
 30
0.0
 10
-1.55025
 20
-0.46912
 30
0.0
 10
-1.55025
 20
-0.46912
 30
0.0
 10
-1.57903
 20
-0.50066
 30
0.0
 10
-1.61819
 20
-0.51643
 30
0.0
 10
-1.66761
 20
-0.51643
 30
0.0
  0
SPLINE
  5
66
330
1F
100
AcDbEntity
  8
Layer 1
 62
     5
370
     9
100
AcDbSpline
210
0.0
220
0.0
230
1.0
 70
    11
 71
     3
 72
    36
 73
    32
 74
     0
 42
0.0000000001
 43
0.0000000001
 12
1.0
 22
0.0
 32
0.0
 13
1.0
 23
0.0
 33
0.0
 40
0.0
 40
0.0
 40
0.0
 40
0.0
 40
0.1111111111111111
 40
0.1111111111111111
 40
0.1111111111111111
 40
0.1111111111111111
 40
0.2222222222222222
 40
0.2222222222222222
 40
0.2222222222222222
 40
0.2222222222222222
 40
0.3333333333333333
 40
0.3333333333333333
 40
0.3333333333333333
 40
0.3333333333333333
 40
0.4444444444444444
 40
0.4444444444444444
 40
0.4444444444444444
 40
0.4444444444444444
 40
0.5555555555555556
 40
0.5555555555555556
 40
0.5555555555555556
 40
0.5555555555555556
 40
0.6666666666666666
 40
0.6666666666666666
 40
0.6666666666666666
 40
0.6666666666666666
 40
0.7777777777777778
 40
0.7777777777777778
 40
0.7777777777777778
 40
0.7777777777777778
 40
1.0
 40
1.0
 40
1.0
 40
1.0
 10
-1.66772
 20
-0.47071
 30
0.0
 10
-1.63756
 20
-0.47071
 30
0.0
 10
-1.61406
 20
-0.45939
 30
0.0
 10
-1.59734
 20
-0.43663
 30
0.0
 10
-1.59734
 20
-0.43663
 30
0.0
 10
-1.58073
 20
-0.41398
 30
0.0
 10
-1.57236
 20
-0.38192
 30
0.0
 10
-1.57236
 20
-0.34064
 30
0.0
 10
-1.57236
 20
-0.34064
 30
0.0
 10
-1.57236
 20
-0.29947
 30
0.0
 10
-1.58073
 20
-0.26751
 30
0.0
 10
-1.59734
 20
-0.24486
 30
0.0
 10
-1.59734
 20
-0.24486
 30
0.0
 10
-1.61406
 20
-0.22232
 30
0.0
 10
-1.63756
 20
-0.21099
 30
0.0
 10
-1.66772
 20
-0.21099
 30
0.0
 10
-1.66772
 20
-0.21099
 30
0.0
 10
-1.69799
 20
-0.21099
 30
0.0
 10
-1.72148
 20
-0.22232
 30
0.0
 10
-1.73799
 20
-0.24486
 30
0.0
 10
-1.73799
 20
-0.24486
 30
0.0
 10
-1.75461
 20
-0.26751
 30
0.0
 10
-1.76286
 20
-0.29947
 30
0.0
 10
-1.76286
 20
-0.34064
 30
0.0
 10
-1.76286
 20
-0.34064
 30
0.0
 10
-1.76286
 20
-0.38192
 30
0.0
 10
-1.75461
 20
-0.41398
 30
0.0
 10
-1.73799
 20
-0.43663
 30
0.0
 10
-1.73799
 20
-0.43663
 30
0.0
 10
-1.72148
 20
-0.45939
 30
0.0
 10
-1.69799
 20
-0.47071
 30
0.0
 10
-1.66772
 20
-0.47071
 30
0.0
  0
SPLINE
  5
67
330
1F
100
AcDbEntity
  8
Layer 1
 62
     5
370
     9
100
AcDbSpline
210
0.0
220
0.0
230
1.0
 70
    11
 71
     3
 72
    72
 73
    68
 74
     0
 42
0.0000000001
 43
0.0000000001
 12
1.0
 22
0.0
 32
0.0
 13
1.0
 23
0.0
 33
0.0
 40
0.0
 40
0.0
 40
0.0
 40
0.0
 40
0.0555555555555556
 40
0.0555555555555556
 40
0.0555555555555556
 40
0.0555555555555556
 40
0.1111111111111111
 40
0.1111111111111111
 40
0.1111111111111111
 40
0.1111111111111111
 40
0.1666666666666667
 40
0.1666666666666667
 40
0.1666666666666667
 40
0.1666666666666667
 40
0.2222222222222222
 40
0.2222222222222222
 40
0.2222222222222222
 40
0.2222222222222222
 40
0.2777777777777778
 40
0.2777777777777778
 40
0.2777777777777778
 40
0.2777777777777778
 40
0.3333333333333333
 40
0.3333333333333333
 40
0.3333333333333333
 40
0.3333333333333333
 40
0.3888888888888889
 40
0.3888888888888889
 40
0.3888888888888889
 40
0.3888888888888889
 40
0.4444444444444444
 40
0.4444444444444444
 40
0.4444444444444444
 40
0.4444444444444444
 40
0.5
 40
0.5
 40
0.5
 40
0.5
 40
0.5555555555555556
 40
0.5555555555555556
 40
0.5555555555555556
 40
0.5555555555555556
 40
0.6111111111111112
 40
0.6111111111111112
 40
0.6111111111111112
 40
0.6111111111111112
 40
0.6666666666666666
 40
0.6666666666666666
 40
0.6666666666666666
 40
0.6666666666666666
 40
0.7222222222222222
 40
0.7222222222222222
 40
0.7222222222222222
 40
0.7222222222222222
 40
0.7777777777777778
 40
0.7777777777777778
 40
0.7777777777777778
 40
0.7777777777777778
 40
0.8333333333333334
 40
0.8333333333333334
 40
0.8333333333333334
 40
0.8333333333333334
 40
0.8888888888888888
 40
0.8888888888888888
 40
0.8888888888888888
 40
0.8888888888888888
 40
1.0
 40
1.0
 40
1.0
 40
1.0
 10
-1.261
 20
-0.5087
 30
0.0
 10
-1.27984
 20
-0.51389
 30
0.0
 10
-1.29625
 20
-0.51643
 30
0.0
 10
-1.31011
 20
-0.51643
 30
0.0
 10
-1.31011
 20
-0.51643
 30
0.0
 10
-1.34123
 20
-0.51643
 30
0.0
 10
-1.36546
 20
-0.50754
 30
0.0
 10
-1.38282
 20
-0.48976
 30
0.0
 10
-1.38282
 20
-0.48976
 30
0.0
 10
-1.40028
 20
-0.47198
 30
0.0
 10
-1.40896
 20
-0.44732
 30
0.0
 10
-1.40896
 20
-0.41568
 30
0.0
 10
-1.40896
 20
-0.41568
 30
0.0
 10
-1.40896
 20
-0.41568
 30
0.0
 10
-1.40896
 20
-0.21798
 30
0.0
 10
-1.40896
 20
-0.21798
 30
0.0
 10
-1.40896
 20
-0.21798
 30
0.0
 10
-1.40896
 20
-0.21798
 30
0.0
 10
-1.45108
 20
-0.21798
 30
0.0
 10
-1.45108
 20
-0.21798
 30
0.0
 10
-1.45108
 20
-0.21798
 30
0.0
 10
-1.45108
 20
-0.21798
 30
0.0
 10
-1.45108
 20
-0.17226
 30
0.0
 10
-1.45108
 20
-0.17226
 30
0.0
 10
-1.45108
 20
-0.17226
 30
0.0
 10
-1.45108
 20
-0.17226
 30
0.0
 10
-1.40896
 20
-0.17226
 30
0.0
 10
-1.40896
 20
-0.17226
 30
0.0
 10
-1.40896
 20
-0.17226
 30
0.0
 10
-1.40896
 20
-0.17226
 30
0.0
 10
-1.40896
 20
-0.11141
 30
0.0
 10
-1.40896
 20
-0.11141
 30
0.0
 10
-1.40896
 20
-0.11141
 30
0.0
 10
-1.40896
 20
-0.11141
 30
0.0
 10
-1.348
 20
-0.10558
 30
0.0
 10
-1.348
 20
-0.10558
 30
0.0
 10
-1.348
 20
-0.10558
 30
0.0
 10
-1.348
 20
-0.10558
 30
0.0
 10
-1.348
 20
-0.17226
 30
0.0
 10
-1.348
 20
-0.17226
 30
0.0
 10
-1.348
 20
-0.17226
 30
0.0
 10
-1.348
 20
-0.17226
 30
0.0
 10
-1.25973
 20
-0.17226
 30
0.0
 10
-1.25973
 20
-0.17226
 30
0.0
 10
-1.25973
 20
-0.17226
 30
0.0
 10
-1.25973
 20
-0.17226
 30
0.0
 10
-1.25973
 20
-0.21798
 30
0.0
 10
-1.25973
 20
-0.21798
 30
0.0
 10
-1.25973
 20
-0.21798
 30
0.0
 10
-1.25973
 20
-0.21798
 30
0.0
 10
-1.348
 20
-0.21798
 30
0.0
 10
-1.348
 20
-0.21798
 30
0.0
 10
-1.348
 20
-0.21798
 30
0.0
 10
-1.348
 20
-0.21798
 30
0.0
 10
-1.348
 20
-0.40467
 30
0.0
 10
-1.348
 20
-0.40467
 30
0.0
 10
-1.348
 20
-0.40467
 30
0.0
 10
-1.348
 20
-0.4487
 30
0.0
 10
-1.32884
 20
-0.47071
 30
0.0
 10
-1.29064
 20
-0.47071
 30
0.0
 10
-1.29064
 20
-0.47071
 30
0.0
 10
-1.28249
 20
-0.47071
 30
0.0
 10
-1.27265
 20
-0.46933
 30
0.0
 10
-1.261
 20
-0.46669
 30
0.0
 10
-1.261
 20
-0.46669
 30
0.0
 10
-1.261
 20
-0.46669
 30
0.0
 10
-1.261
 20
-0.5087
 30
0.0
 10
-1.261
 20
-0.5087
 30
0.0
  0
SPLINE
  5
68
330
1F
100
AcDbEntity
  8
Layer 1
 62
     5
370
     9
100
AcDbSpline
210
0.0
220
0.0
230
1.0
 70
    11
 71
     3
 72
    36
 73
    32
 74
     0
 42
0.0000000001
 43
0.0000000001
 12
1.0
 22
0.0
 32
0.0
 13
1.0
 23
0.0
 33
0.0
 40
0.0
 40
0.0
 40
0.0
 40
0.0
 40
0.1111111111111111
 40
0.1111111111111111
 40
0.1111111111111111
 40
0.1111111111111111
 40
0.2222222222222222
 40
0.2222222222222222
 40
0.2222222222222222
 40
0.2222222222222222
 40
0.3333333333333333
 40
0.3333333333333333
 40
0.3333333333333333
 40
0.3333333333333333
 40
0.4444444444444444
 40
0.4444444444444444
 40
0.4444444444444444
 40
0.4444444444444444
 40
0.5555555555555556
 40
0.5555555555555556
 40
0.5555555555555556
 40
0.5555555555555556
 40
0.6666666666666666
 40
0.6666666666666666
 40
0.6666666666666666
 40
0.6666666666666666
 40
0.7777777777777778
 40
0.7777777777777778
 40
0.7777777777777778
 40
0.7777777777777778
 40
1.0
 40
1.0
 40
1.0
 40
1.0
 10
-1.04002
 20
-0.51643
 30
0.0
 10
-1.08945
 20
-0.51643
 30
0.0
 10
-1.12861
 20
-0.50066
 30
0.0
 10
-1.15739
 20
-0.46912
 30
0.0
 10
-1.15739
 20
-0.46912
 30
0.0
 10
-1.18629
 20
-0.43758
 30
0.0
 10
-1.20068
 20
-0.39472
 30
0.0
 10
-1.20068
 20
-0.34064
 30
0.0
 10
-1.20068
 20
-0.34064
 30
0.0
 10
-1.20068
 20
-0.28667
 30
0.0
 10
-1.18629
 20
-0.24391
 30
0.0
 10
-1.15739
 20
-0.21248
 30
0.0
 10
-1.15739
 20
-0.21248
 30
0.0
 10
-1.12861
 20
-0.18104
 30
0.0
 10
-1.08945
 20
-0.16527
 30
0.0
 10
-1.04002
 20
-0.16527
 30
0.0
 10
-1.04002
 20
-0.16527
 30
0.0
 10
-0.9906
 20
-0.16527
 30
0.0
 10
-0.95144
 20
-0.18104
 30
0.0
 10
-0.92266
 20
-0.21248
 30
0.0
 10
-0.92266
 20
-0.21248
 30
0.0
 10
-0.89376
 20
-0.24391
 30
0.0
 10
-0.87937
 20
-0.28667
 30
0.0
 10
-0.87937
 20
-0.34064
 30
0.0
 10
-0.87937
 20
-0.34064
 30
0.0
 10
-0.87937
 20
-0.39472
 30
0.0
 10
-0.89376
 20
-0.43758
 30
0.0
 10
-0.92266
 20
-0.46912
 30
0.0
 10
-0.92266
 20
-0.46912
 30
0.0
 10
-0.95144
 20
-0.50066
 30
0.0
 10
-0.9906
 20
-0.51643
 30
0.0
 10
-1.04002
 20
-0.51643
 30
0.0
  0
SPLINE
  5
69
330
1F
100
AcDbEntity
  8
Layer 1
 62
     5
370
     9
100
AcDbSpline
210
0.0
220
0.0
230
1.0
 70
    11
 71
     3
 72
    36
 73
    32
 74
     0
 42
0.0000000001
 43
0.0000000001
 12
1.0
 22
0.0
 32
0.0
 13
1.0
 23
0.0
 33
0.0
 40
0.0
 40
0.0
 40
0.0
 40
0.0
 40
0.1111111111111111
 40
0.1111111111111111
 40
0.1111111111111111
 40
0.1111111111111111
 40
0.2222222222222222
 40
0.2222222222222222
 40
0.2222222222222222
 40
0.2222222222222222
 40
0.3333333333333333
 40
0.3333333333333333
 40
0.3333333333333333
 40
0.3333333333333333
 40
0.4444444444444444
 40
0.4444444444444444
 40
0.4444444444444444
 40
0.4444444444444444
 40
0.5555555555555556
 40
0.5555555555555556
 40
0.5555555555555556
 40
0.5555555555555556
 40
0.6666666666666666
 40
0.6666666666666666
 40
0.6666666666666666
 40
0.6666666666666666
 40
0.7777777777777778
 40
0.7777777777777778
 40
0.7777777777777778
 40
0.7777777777777778
 40
1.0
 40
1.0
 40
1.0
 40
1.0
 10
-1.04013
 20
-0.47071
 30
0.0
 10
-1.00997
 20
-0.47071
 30
0.0
 10
-0.98647
 20
-0.45939
 30
0.0
 10
-0.96975
 20
-0.43663
 30
0.0
 10
-0.96975
 20
-0.43663
 30
0.0
 10
-0.95314
 20
-0.41398
 30
0.0
 10
-0.94477
 20
-0.38192
 30
0.0
 10
-0.94477
 20
-0.34064
 30
0.0
 10
-0.94477
 20
-0.34064
 30
0.0
 10
-0.94477
 20
-0.29947
 30
0.0
 10
-0.95314
 20
-0.26751
 30
0.0
 10
-0.96975
 20
-0.24486
 30
0.0
 10
-0.96975
 20
-0.24486
 30
0.0
 10
-0.98647
 20
-0.22232
 30
0.0
 10
-1.00997
 20
-0.21099
 30
0.0
 10
-1.04013
 20
-0.21099
 30
0.0
 10
-1.04013
 20
-0.21099
 30
0.0
 10
-1.0704
 20
-0.21099
 30
0.0
 10
-1.09389
 20
-0.22232
 30
0.0
 10
-1.1104
 20
-0.24486
 30
0.0
 10
-1.1104
 20
-0.24486
 30
0.0
 10
-1.12702
 20
-0.26751
 30
0.0
 10
-1.13527
 20
-0.29947
 30
0.0
 10
-1.13527
 20
-0.34064
 30
0.0
 10
-1.13527
 20
-0.34064
 30
0.0
 10
-1.13527
 20
-0.38192
 30
0.0
 10
-1.12702
 20
-0.41398
 30
0.0
 10
-1.1104
 20
-0.43663
 30
0.0
 10
-1.1104
 20
-0.43663
 30
0.0
 10
-1.09389
 20
-0.45939
 30
0.0
 10
-1.0704
 20
-0.47071
 30
0.0
 10
-1.04013
 20
-0.47071
 30
0.0
  0
SPLINE
  5
6A
330
1F
100
AcDbEntity
  8
Layer 1
 62
     5
370
     9
100
AcDbSpline
210
0.0
220
0.0
230
1.0
 70
    11
 71
     3
 72
    44
 73
    40
 74
     0
 42
0.0000000001
 43
0.0000000001
 12
1.0
 22
0.0
 32
0.0
 13
1.0
 23
0.0
 33
0.0
 40
0.0
 40
0.0
 40
0.0
 40
0.0
 40
0.0909090909090909
 40
0.0909090909090909
 40
0.0909090909090909
 40
0.0909090909090909
 40
0.1818181818181818
 40
0.1818181818181818
 40
0.1818181818181818
 40
0.1818181818181818
 40
0.2727272727272727
 40
0.2727272727272727
 40
0.2727272727272727
 40
0.2727272727272727
 40
0.3636363636363636
 40
0.3636363636363636
 40
0.3636363636363636
 40
0.3636363636363636
 40
0.4545454545454545
 40
0.4545454545454545
 40
0.4545454545454545
 40
0.4545454545454545
 40
0.5454545454545454
 40
0.5454545454545454
 40
0.5454545454545454
 40
0.5454545454545454
 40
0.6363636363636364
 40
0.6363636363636364
 40
0.6363636363636364
 40
0.6363636363636364
 40
0.7272727272727273
 40
0.7272727272727273
 40
0.7272727272727273
 40
0.7272727272727273
 40
0.8181818181818182
 40
0.8181818181818182
 40
0.8181818181818182
 40
0.8181818181818182
 40
1.0
 40
1.0
 40
1.0
 40
1.0
 10
-0.78391
 20
-0.50881
 30
0.0
 10
-0.78391
 20
-0.50881
 30
0.0
 10
-0.78391
 20
-0.17226
 30
0.0
 10
-0.78391
 20
-0.17226
 30
0.0
 10
-0.78391
 20
-0.17226
 30
0.0
 10
-0.78391
 20
-0.17226
 30
0.0
 10
-0.72295
 20
-0.17226
 30
0.0
 10
-0.72295
 20
-0.17226
 30
0.0
 10
-0.72295
 20
-0.17226
 30
0.0
 10
-0.72295
 20
-0.17226
 30
0.0
 10
-0.72295
 20
-0.23587
 30
0.0
 10
-0.72295
 20
-0.23587
 30
0.0
 10
-0.72295
 20
-0.23587
 30
0.0
 10
-0.69871
 20
-0.18877
 30
0.0
 10
-0.66358
 20
-0.16527
 30
0.0
 10
-0.61743
 20
-0.16527
 30
0.0
 10
-0.61743
 20
-0.16527
 30
0.0
 10
-0.61119
 20
-0.16527
 30
0.0
 10
-0.60463
 20
-0.1658
 30
0.0
 10
-0.59785
 20
-0.16686
 30
0.0
 10
-0.59785
 20
-0.16686
 30
0.0
 10
-0.59785
 20
-0.16686
 30
0.0
 10
-0.59785
 20
-0.22391
 30
0.0
 10
-0.59785
 20
-0.22391
 30
0.0
 10
-0.59785
 20
-0.22391
 30
0.0
 10
-0.60844
 20
-0.22041
 30
0.0
 10
-0.61775
 20
-0.21861
 30
0.0
 10
-0.62579
 20
-0.21861
 30
0.0
 10
-0.62579
 20
-0.21861
 30
0.0
 10
-0.66453
 20
-0.21861
 30
0.0
 10
-0.69691
 20
-0.24147
 30
0.0
 10
-0.72295
 20
-0.2873
 30
0.0
 10
-0.72295
 20
-0.2873
 30
0.0
 10
-0.72295
 20
-0.2873
 30
0.0
 10
-0.72295
 20
-0.50881
 30
0.0
 10
-0.72295
 20
-0.50881
 30
0.0
 10
-0.72295
 20
-0.50881
 30
0.0
 10
-0.72295
 20
-0.50881
 30
0.0
 10
-0.78391
 20
-0.50881
 30
0.0
 10
-0.78391
 20
-0.50881
 30
0.0
  0
SPLINE
  5
6B
330
1F
100
AcDbEntity
  8
Layer 1
 62
     5
370
     9
100
AcDbSpline
210
0.0
220
0.0
230
1.0
 70
    11
 71
     3
 72
    60
 73
    56
 74
     0
 42
0.0000000001
 43
0.0000000001
 12
1.0
 22
0.0
 32
0.0
 13
1.0
 23
0.0
 33
0.0
 40
0.0
 40
0.0
 40
0.0
 40
0.0
 40
0.0666666666666667
 40
0.0666666666666667
 40
0.0666666666666667
 40
0.0666666666666667
 40
0.1333333333333333
 40
0.1333333333333333
 40
0.1333333333333333
 40
0.1333333333333333
 40
0.2
 40
0.2
 40
0.2
 40
0.2
 40
0.2666666666666667
 40
0.2666666666666667
 40
0.2666666666666667
 40
0.2666666666666667
 40
0.3333333333333333
 40
0.3333333333333333
 40
0.3333333333333333
 40
0.3333333333333333
 40
0.4
 40
0.4
 40
0.4
 40
0.4
 40
0.4666666666666667
 40
0.4666666666666667
 40
0.4666666666666667
 40
0.4666666666666667
 40
0.5333333333333333
 40
0.5333333333333333
 40
0.5333333333333333
 40
0.5333333333333333
 40
0.6
 40
0.6
 40
0.6
 40
0.6
 40
0.6666666666666666
 40
0.6666666666666666
 40
0.6666666666666666
 40
0.6666666666666666
 40
0.7333333333333333
 40
0.7333333333333333
 40
0.7333333333333333
 40
0.7333333333333333
 40
0.8
 40
0.8
 40
0.8
 40
0.8
 40
0.8666666666666667
 40
0.8666666666666667
 40
0.8666666666666667
 40
0.8666666666666667
 40
1.0
 40
1.0
 40
1.0
 40
1.0
 10
-2.74719
 20
-1.74004
 30
0.0
 10
-2.74719
 20
-1.74004
 30
0.0
 10
-2.74719
 20
-1.46805
 30
0.0
 10
-2.74719
 20
-1.46805
 30
0.0
 10
-2.74719
 20
-1.46805
 30
0.0
 10
-2.74719
 20
-1.46805
 30
0.0
 10
-2.71333
 20
-1.46805
 30
0.0
 10
-2.71333
 20
-1.46805
 30
0.0
 10
-2.71333
 20
-1.46805
 30
0.0
 10
-2.71333
 20
-1.46805
 30
0.0
 10
-2.71333
 20
-1.5884
 30
0.0
 10
-2.71333
 20
-1.5884
 30
0.0
 10
-2.71333
 20
-1.5884
 30
0.0
 10
-2.69539
 20
-1.56224
 30
0.0
 10
-2.6734
 20
-1.54919
 30
0.0
 10
-2.64742
 20
-1.54919
 30
0.0
 10
-2.64742
 20
-1.54919
 30
0.0
 10
-2.63107
 20
-1.54919
 30
0.0
 10
-2.61808
 20
-1.5543
 30
0.0
 10
-2.60849
 20
-1.56459
 30
0.0
 10
-2.60849
 20
-1.56459
 30
0.0
 10
-2.59891
 20
-1.57482
 30
0.0
 10
-2.59409
 20
-1.58864
 30
0.0
 10
-2.59409
 20
-1.60592
 30
0.0
 10
-2.59409
 20
-1.60592
 30
0.0
 10
-2.59409
 20
-1.60592
 30
0.0
 10
-2.59409
 20
-1.74004
 30
0.0
 10
-2.59409
 20
-1.74004
 30
0.0
 10
-2.59409
 20
-1.74004
 30
0.0
 10
-2.59409
 20
-1.74004
 30
0.0
 10
-2.62795
 20
-1.74004
 30
0.0
 10
-2.62795
 20
-1.74004
 30
0.0
 10
-2.62795
 20
-1.74004
 30
0.0
 10
-2.62795
 20
-1.74004
 30
0.0
 10
-2.62795
 20
-1.61698
 30
0.0
 10
-2.62795
 20
-1.61698
 30
0.0
 10
-2.62795
 20
-1.61698
 30
0.0
 10
-2.62795
 20
-1.6031
 30
0.0
 10
-2.63001
 20
-1.59322
 30
0.0
 10
-2.63407
 20
-1.58735
 30
0.0
 10
-2.63407
 20
-1.58735
 30
0.0
 10
-2.63818
 20
-1.58141
 30
0.0
 10
-2.64495
 20
-1.57847
 30
0.0
 10
-2.65441
 20
-1.57847
 30
0.0
 10
-2.65441
 20
-1.57847
 30
0.0
 10
-2.67523
 20
-1.57847
 30
0.0
 10
-2.69486
 20
-1.59205
 30
0.0
 10
-2.71333
 20
-1.61921
 30
0.0
 10
-2.71333
 20
-1.61921
 30
0.0
 10
-2.71333
 20
-1.61921
 30
0.0
 10
-2.71333
 20
-1.74004
 30
0.0
 10
-2.71333
 20
-1.74004
 30
0.0
 10
-2.71333
 20
-1.74004
 30
0.0
 10
-2.71333
 20
-1.74004
 30
0.0
 10
-2.74719
 20
-1.74004
 30
0.0
 10
-2.74719
 20
-1.74004
 30
0.0
  0
SPLINE
  5
6C
330
1F
100
AcDbEntity
  8
Layer 1
 62
     5
370
     9
100
AcDbSpline
210
0.0
220
0.0
230
1.0
 70
    11
 71
     3
 72
    20
 73
    16
 74
     0
 42
0.0000000001
 43
0.0000000001
 12
1.0
 22
0.0
 32
0.0
 13
1.0
 23
0.0
 33
0.0
 40
0.0
 40
0.0
 40
0.0
 40
0.0
 40
0.2
 40
0.2
 40
0.2
 40
0.2
 40
0.4
 40
0.4
 40
0.4
 40
0.4
 40
0.6
 40
0.6
 40
0.6
 40
0.6
 40
1.0
 40
1.0
 40
1.0
 40
1.0
 10
-2.52823
 20
-1.74004
 30
0.0
 10
-2.52823
 20
-1.74004
 30
0.0
 10
-2.52823
 20
-1.55307
 30
0.0
 10
-2.52823
 20
-1.55307
 30
0.0
 10
-2.52823
 20
-1.55307
 30
0.0
 10
-2.52823
 20
-1.55307
 30
0.0
 10
-2.49437
 20
-1.55307
 30
0.0
 10
-2.49437
 20
-1.55307
 30
0.0
 10
-2.49437
 20
-1.55307
 30
0.0
 10
-2.49437
 20
-1.55307
 30
0.0
 10
-2.49437
 20
-1.74004
 30
0.0
 10
-2.49437
 20
-1.74004
 30
0.0
 10
-2.49437
 20
-1.74004
 30
0.0
 10
-2.49437
 20
-1.74004
 30
0.0
 10
-2.52823
 20
-1.74004
 30
0.0
 10
-2.52823
 20
-1.74004
 30
0.0
  0
SPLINE
  5
6D
330
1F
100
AcDbEntity
  8
Layer 1
 62
     5
370
     9
100
AcDbSpline
210
0.0
220
0.0
230
1.0
 70
    11
 71
     3
 72
    20
 73
    16
 74
     0
 42
0.0000000001
 43
0.0000000001
 12
1.0
 22
0.0
 32
0.0
 13
1.0
 23
0.0
 33
0.0
 40
0.0
 40
0.0
 40
0.0
 40
0.0
 40
0.2
 40
0.2
 40
0.2
 40
0.2
 40
0.4
 40
0.4
 40
0.4
 40
0.4
 40
0.6
 40
0.6
 40
0.6
 40
0.6
 40
1.0
 40
1.0
 40
1.0
 40
1.0
 10
-2.52823
 20
-1.51885
 30
0.0
 10
-2.52823
 20
-1.51885
 30
0.0
 10
-2.52823
 20
-1.48498
 30
0.0
 10
-2.52823
 20
-1.48498
 30
0.0
 10
-2.52823
 20
-1.48498
 30
0.0
 10
-2.52823
 20
-1.48498
 30
0.0
 10
-2.49437
 20
-1.48498
 30
0.0
 10
-2.49437
 20
-1.48498
 30
0.0
 10
-2.49437
 20
-1.48498
 30
0.0
 10
-2.49437
 20
-1.48498
 30
0.0
 10
-2.49437
 20
-1.51885
 30
0.0
 10
-2.49437
 20
-1.51885
 30
0.0
 10
-2.49437
 20
-1.51885
 30
0.0
 10
-2.49437
 20
-1.51885
 30
0.0
 10
-2.52823
 20
-1.51885
 30
0.0
 10
-2.52823
 20
-1.51885
 30
0.0
  0
SPLINE
  5
6E
330
1F
100
AcDbEntity
  8
Layer 1
 62
     5
370
     9
100
AcDbSpline
210
0.0
220
0.0
230
1.0
 70
    11
 71
     3
 72
    76
 73
    72
 74
     0
 42
0.0000000001
 43
0.0000000001
 12
1.0
 22
0.0
 32
0.0
 13
1.0
 23
0.0
 33
0.0
 40
0.0
 40
0.0
 40
0.0
 40
0.0
 40
0.0526315789473684
 40
0.0526315789473684
 40
0.0526315789473684
 40
0.0526315789473684
 40
0.1052631578947368
 40
0.1052631578947368
 40
0.1052631578947368
 40
0.1052631578947368
 40
0.1578947368421053
 40
0.1578947368421053
 40
0.1578947368421053
 40
0.1578947368421053
 40
0.2105263157894737
 40
0.2105263157894737
 40
0.2105263157894737
 40
0.2105263157894737
 40
0.2631578947368421
 40
0.2631578947368421
 40
0.2631578947368421
 40
0.2631578947368421
 40
0.3157894736842105
 40
0.3157894736842105
 40
0.3157894736842105
 40
0.3157894736842105
 40
0.3684210526315789
 40
0.3684210526315789
 40
0.3684210526315789
 40
0.3684210526315789
 40
0.4210526315789473
 40
0.4210526315789473
 40
0.4210526315789473
 40
0.4210526315789473
 40
0.4736842105263158
 40
0.4736842105263158
 40
0.4736842105263158
 40
0.4736842105263158
 40
0.5263157894736842
 40
0.5263157894736842
 40
0.5263157894736842
 40
0.5263157894736842
 40
0.5789473684210527
 40
0.5789473684210527
 40
0.5789473684210527
 40
0.5789473684210527
 40
0.631578947368421
 40
0.631578947368421
 40
0.631578947368421
 40
0.631578947368421
 40
0.6842105263157895
 40
0.6842105263157895
 40
0.6842105263157895
 40
0.6842105263157895
 40
0.7368421052631579
 40
0.7368421052631579
 40
0.7368421052631579
 40
0.7368421052631579
 40
0.7894736842105263
 40
0.7894736842105263
 40
0.7894736842105263
 40
0.7894736842105263
 40
0.8421052631578947
 40
0.8421052631578947
 40
0.8421052631578947
 40
0.8421052631578947
 40
0.8947368421052632
 40
0.8947368421052632
 40
0.8947368421052632
 40
0.8947368421052632
 40
1.0
 40
1.0
 40
1.0
 40
1.0
 10
-2.42558
 20
-1.80213
 30
0.0
 10
-2.42558
 20
-1.80213
 30
0.0
 10
-2.42158
 20
-1.77285
 30
0.0
 10
-2.42158
 20
-1.77285
 30
0.0
 10
-2.42158
 20
-1.77285
 30
0.0
 10
-2.40194
 20
-1.78202
 30
0.0
 10
-2.38248
 20
-1.78661
 30
0.0
 10
-2.36325
 20
-1.78661
 30
0.0
 10
-2.36325
 20
-1.78661
 30
0.0
 10
-2.32509
 20
-1.78661
 30
0.0
 10
-2.30599
 20
-1.76638
 30
0.0
 10
-2.30599
 20
-1.72599
 30
0.0
 10
-2.30599
 20
-1.72599
 30
0.0
 10
-2.30599
 20
-1.72599
 30
0.0
 10
-2.30599
 20
-1.69659
 30
0.0
 10
-2.30599
 20
-1.69659
 30
0.0
 10
-2.30599
 20
-1.69659
 30
0.0
 10
-2.31186
 20
-1.709
 30
0.0
 10
-2.32021
 20
-1.71858
 30
0.0
 10
-2.33109
 20
-1.72546
 30
0.0
 10
-2.33109
 20
-1.72546
 30
0.0
 10
-2.34197
 20
-1.73234
 30
0.0
 10
-2.35408
 20
-1.73581
 30
0.0
 10
-2.36743
 20
-1.73581
 30
0.0
 10
-2.36743
 20
-1.73581
 30
0.0
 10
-2.39006
 20
-1.73581
 30
0.0
 10
-2.408
 20
-1.72769
 30
0.0
 10
-2.42123
 20
-1.71146
 30
0.0
 10
-2.42123
 20
-1.71146
 30
0.0
 10
-2.43446
 20
-1.69524
 30
0.0
 10
-2.4411
 20
-1.67325
 30
0.0
 10
-2.4411
 20
-1.64549
 30
0.0
 10
-2.4411
 20
-1.64549
 30
0.0
 10
-2.4411
 20
-1.6171
 30
0.0
 10
-2.43357
 20
-1.59393
 30
0.0
 10
-2.41852
 20
-1.576
 30
0.0
 10
-2.41852
 20
-1.576
 30
0.0
 10
-2.40341
 20
-1.55812
 30
0.0
 10
-2.38395
 20
-1.54919
 30
0.0
 10
-2.36002
 20
-1.54919
 30
0.0
 10
-2.36002
 20
-1.54919
 30
0.0
 10
-2.33909
 20
-1.54919
 30
0.0
 10
-2.32104
 20
-1.55765
 30
0.0
 10
-2.30599
 20
-1.57464
 30
0.0
 10
-2.30599
 20
-1.57464
 30
0.0
 10
-2.30599
 20
-1.57464
 30
0.0
 10
-2.30599
 20
-1.55307
 30
0.0
 10
-2.30599
 20
-1.55307
 30
0.0
 10
-2.30599
 20
-1.55307
 30
0.0
 10
-2.30599
 20
-1.55307
 30
0.0
 10
-2.27212
 20
-1.55307
 30
0.0
 10
-2.27212
 20
-1.55307
 30
0.0
 10
-2.27212
 20
-1.55307
 30
0.0
 10
-2.27212
 20
-1.55307
 30
0.0
 10
-2.27212
 20
-1.689
 30
0.0
 10
-2.27212
 20
-1.689
 30
0.0
 10
-2.27212
 20
-1.689
 30
0.0
 10
-2.27212
 20
-1.71823
 30
0.0
 10
-2.27365
 20
-1.73986
 30
0.0
 10
-2.2767
 20
-1.75392
 30
0.0
 10
-2.2767
 20
-1.75392
 30
0.0
 10
-2.2797
 20
-1.76797
 30
0.0
 10
-2.28547
 20
-1.77949
 30
0.0
 10
-2.29381
 20
-1.78843
 30
0.0
 10
-2.29381
 20
-1.78843
 30
0.0
 10
-2.30863
 20
-1.80413
 30
0.0
 10
-2.3318
 20
-1.81201
 30
0.0
 10
-2.36325
 20
-1.81201
 30
0.0
 10
-2.36325
 20
-1.81201
 30
0.0
 10
-2.38483
 20
-1.81201
 30
0.0
 10
-2.40559
 20
-1.80871
 30
0.0
 10
-2.42558
 20
-1.80213
 30
0.0
  0
SPLINE
  5
6F
330
1F
100
AcDbEntity
  8
Layer 1
 62
     5
370
     9
100
AcDbSpline
210
0.0
220
0.0
230
1.0
 70
    11
 71
     3
 72
    28
 73
    24
 74
     0
 42
0.0000000001
 43
0.0000000001
 12
1.0
 22
0.0
 32
0.0
 13
1.0
 23
0.0
 33
0.0
 40
0.0
 40
0.0
 40
0.0
 40
0.0
 40
0.1428571428571428
 40
0.1428571428571428
 40
0.1428571428571428
 40
0.1428571428571428
 40
0.2857142857142857
 40
0.2857142857142857
 40
0.2857142857142857
 40
0.2857142857142857
 40
0.4285714285714285
 40
0.4285714285714285
 40
0.4285714285714285
 40
0.4285714285714285
 40
0.5714285714285714
 40
0.5714285714285714
 40
0.5714285714285714
 40
0.5714285714285714
 40
0.7142857142857143
 40
0.7142857142857143
 40
0.7142857142857143
 40
0.7142857142857143
 40
1.0
 40
1.0
 40
1.0
 40
1.0
 10
-2.30599
 20
-1.67536
 30
0.0
 10
-2.30599
 20
-1.67536
 30
0.0
 10
-2.30599
 20
-1.59781
 30
0.0
 10
-2.30599
 20
-1.59781
 30
0.0
 10
-2.30599
 20
-1.59781
 30
0.0
 10
-2.32092
 20
-1.58235
 30
0.0
 10
-2.33721
 20
-1.57459
 30
0.0
 10
-2.35479
 20
-1.57459
 30
0.0
 10
-2.35479
 20
-1.57459
 30
0.0
 10
-2.37043
 20
-1.57459
 30
0.0
 10
-2.38266
 20
-1.58082
 30
0.0
 10
-2.39148
 20
-1.59334
 30
0.0
 10
-2.39148
 20
-1.59334
 30
0.0
 10
-2.40035
 20
-1.60581
 30
0.0
 10
-2.40476
 20
-1.62315
 30
0.0
 10
-2.40476
 20
-1.64526
 30
0.0
 10
-2.40476
 20
-1.64526
 30
0.0
 10
-2.40476
 20
-1.68589
 30
0.0
 10
-2.39036
 20
-1.70617
 30
0.0
 10
-2.36149
 20
-1.70617
 30
0.0
 10
-2.36149
 20
-1.70617
 30
0.0
 10
-2.34185
 20
-1.70617
 30
0.0
 10
-2.32333
 20
-1.69588
 30
0.0
 10
-2.30599
 20
-1.67536
 30
0.0
  0
SPLINE
  5
70
330
1F
100
AcDbEntity
  8
Layer 1
 62
     5
370
     9
100
AcDbSpline
210
0.0
220
0.0
230
1.0
 70
    11
 71
     3
 72
    60
 73
    56
 74
     0
 42
0.0000000001
 43
0.0000000001
 12
1.0
 22
0.0
 32
0.0
 13
1.0
 23
0.0
 33
0.0
 40
0.0
 40
0.0
 40
0.0
 40
0.0
 40
0.0666666666666667
 40
0.0666666666666667
 40
0.0666666666666667
 40
0.0666666666666667
 40
0.1333333333333333
 40
0.1333333333333333
 40
0.1333333333333333
 40
0.1333333333333333
 40
0.2
 40
0.2
 40
0.2
 40
0.2
 40
0.2666666666666667
 40
0.2666666666666667
 40
0.2666666666666667
 40
0.2666666666666667
 40
0.3333333333333333
 40
0.3333333333333333
 40
0.3333333333333333
 40
0.3333333333333333
 40
0.4
 40
0.4
 40
0.4
 40
0.4
 40
0.4666666666666667
 40
0.4666666666666667
 40
0.4666666666666667
 40
0.4666666666666667
 40
0.5333333333333333
 40
0.5333333333333333
 40
0.5333333333333333
 40
0.5333333333333333
 40
0.6
 40
0.6
 40
0.6
 40
0.6
 40
0.6666666666666666
 40
0.6666666666666666
 40
0.6666666666666666
 40
0.6666666666666666
 40
0.7333333333333333
 40
0.7333333333333333
 40
0.7333333333333333
 40
0.7333333333333333
 40
0.8
 40
0.8
 40
0.8
 40
0.8
 40
0.8666666666666667
 40
0.8666666666666667
 40
0.8666666666666667
 40
0.8666666666666667
 40
1.0
 40
1.0
 40
1.0
 40
1.0
 10
-2.20631
 20
-1.74004
 30
0.0
 10
-2.20631
 20
-1.74004
 30
0.0
 10
-2.20631
 20
-1.46805
 30
0.0
 10
-2.20631
 20
-1.46805
 30
0.0
 10
-2.20631
 20
-1.46805
 30
0.0
 10
-2.20631
 20
-1.46805
 30
0.0
 10
-2.17245
 20
-1.46805
 30
0.0
 10
-2.17245
 20
-1.46805
 30
0.0
 10
-2.17245
 20
-1.46805
 30
0.0
 10
-2.17245
 20
-1.46805
 30
0.0
 10
-2.17245
 20
-1.5884
 30
0.0
 10
-2.17245
 20
-1.5884
 30
0.0
 10
-2.17245
 20
-1.5884
 30
0.0
 10
-2.15451
 20
-1.56224
 30
0.0
 10
-2.13252
 20
-1.54919
 30
0.0
 10
-2.10654
 20
-1.54919
 30
0.0
 10
-2.10654
 20
-1.54919
 30
0.0
 10
-2.09019
 20
-1.54919
 30
0.0
 10
-2.0772
 20
-1.5543
 30
0.0
 10
-2.06761
 20
-1.56459
 30
0.0
 10
-2.06761
 20
-1.56459
 30
0.0
 10
-2.05803
 20
-1.57482
 30
0.0
 10
-2.05321
 20
-1.58864
 30
0.0
 10
-2.05321
 20
-1.60592
 30
0.0
 10
-2.05321
 20
-1.60592
 30
0.0
 10
-2.05321
 20
-1.60592
 30
0.0
 10
-2.05321
 20
-1.74004
 30
0.0
 10
-2.05321
 20
-1.74004
 30
0.0
 10
-2.05321
 20
-1.74004
 30
0.0
 10
-2.05321
 20
-1.74004
 30
0.0
 10
-2.08707
 20
-1.74004
 30
0.0
 10
-2.08707
 20
-1.74004
 30
0.0
 10
-2.08707
 20
-1.74004
 30
0.0
 10
-2.08707
 20
-1.74004
 30
0.0
 10
-2.08707
 20
-1.61698
 30
0.0
 10
-2.08707
 20
-1.61698
 30
0.0
 10
-2.08707
 20
-1.61698
 30
0.0
 10
-2.08707
 20
-1.6031
 30
0.0
 10
-2.08913
 20
-1.59322
 30
0.0
 10
-2.09319
 20
-1.58735
 30
0.0
 10
-2.09319
 20
-1.58735
 30
0.0
 10
-2.0973
 20
-1.58141
 30
0.0
 10
-2.10407
 20
-1.57847
 30
0.0
 10
-2.11353
 20
-1.57847
 30
0.0
 10
-2.11353
 20
-1.57847
 30
0.0
 10
-2.13435
 20
-1.57847
 30
0.0
 10
-2.15398
 20
-1.59205
 30
0.0
 10
-2.17245
 20
-1.61921
 30
0.0
 10
-2.17245
 20
-1.61921
 30
0.0
 10
-2.17245
 20
-1.61921
 30
0.0
 10
-2.17245
 20
-1.74004
 30
0.0
 10
-2.17245
 20
-1.74004
 30
0.0
 10
-2.17245
 20
-1.74004
 30
0.0
 10
-2.17245
 20
-1.74004
 30
0.0
 10
-2.20631
 20
-1.74004
 30
0.0
 10
-2.20631
 20
-1.74004
 30
0.0
  0
SPLINE
  5
71
330
1F
100
AcDbEntity
  8
Layer 1
 62
     5
370
     9
100
AcDbSpline
210
0.0
220
0.0
230
1.0
 70
    11
 71
     3
 72
    52
 73
    48
 74
     0
 42
0.0000000001
 43
0.0000000001
 12
1.0
 22
0.0
 32
0.0
 13
1.0
 23
0.0
 33
0.0
 40
0.0
 40
0.0
 40
0.0
 40
0.0
 40
0.0769230769230769
 40
0.0769230769230769
 40
0.0769230769230769
 40
0.0769230769230769
 40
0.1538461538461539
 40
0.1538461538461539
 40
0.1538461538461539
 40
0.1538461538461539
 40
0.2307692307692308
 40
0.2307692307692308
 40
0.2307692307692308
 40
0.2307692307692308
 40
0.3076923076923077
 40
0.3076923076923077
 40
0.3076923076923077
 40
0.3076923076923077
 40
0.3846153846153846
 40
0.3846153846153846
 40
0.3846153846153846
 40
0.3846153846153846
 40
0.4615384615384616
 40
0.4615384615384616
 40
0.4615384615384616
 40
0.4615384615384616
 40
0.5384615384615384
 40
0.5384615384615384
 40
0.5384615384615384
 40
0.5384615384615384
 40
0.6153846153846154
 40
0.6153846153846154
 40
0.6153846153846154
 40
0.6153846153846154
 40
0.6923076923076923
 40
0.6923076923076923
 40
0.6923076923076923
 40
0.6923076923076923
 40
0.7692307692307693
 40
0.7692307692307693
 40
0.7692307692307693
 40
0.7692307692307693
 40
0.8461538461538461
 40
0.8461538461538461
 40
0.8461538461538461
 40
0.8461538461538461
 40
1.0
 40
1.0
 40
1.0
 40
1.0
 10
-1.85012
 20
-1.73404
 30
0.0
 10
-1.87288
 20
-1.74086
 30
0.0
 10
-1.89234
 20
-1.74427
 30
0.0
 10
-1.90857
 20
-1.74427
 30
0.0
 10
-1.90857
 20
-1.74427
 30
0.0
 10
-1.93626
 20
-1.74427
 30
0.0
 10
-1.95878
 20
-1.7351
 30
0.0
 10
-1.97612
 20
-1.71682
 30
0.0
 10
-1.97612
 20
-1.71682
 30
0.0
 10
-1.99347
 20
-1.69853
 30
0.0
 10
-2.00217
 20
-1.67483
 30
0.0
 10
-2.00217
 20
-1.64567
 30
0.0
 10
-2.00217
 20
-1.64567
 30
0.0
 10
-2.00217
 20
-1.61739
 30
0.0
 10
-1.99453
 20
-1.59417
 30
0.0
 10
-1.97918
 20
-1.576
 30
0.0
 10
-1.97918
 20
-1.576
 30
0.0
 10
-1.96383
 20
-1.55789
 30
0.0
 10
-1.9442
 20
-1.54883
 30
0.0
 10
-1.92027
 20
-1.54883
 30
0.0
 10
-1.92027
 20
-1.54883
 30
0.0
 10
-1.89763
 20
-1.54883
 30
0.0
 10
-1.88011
 20
-1.55689
 30
0.0
 10
-1.86776
 20
-1.573
 30
0.0
 10
-1.86776
 20
-1.573
 30
0.0
 10
-1.85541
 20
-1.58911
 30
0.0
 10
-1.84924
 20
-1.61192
 30
0.0
 10
-1.84924
 20
-1.6415
 30
0.0
 10
-1.84924
 20
-1.6415
 30
0.0
 10
-1.84924
 20
-1.6415
 30
0.0
 10
-1.84942
 20
-1.65184
 30
0.0
 10
-1.84942
 20
-1.65184
 30
0.0
 10
-1.84942
 20
-1.65184
 30
0.0
 10
-1.84942
 20
-1.65184
 30
0.0
 10
-1.9676
 20
-1.65184
 30
0.0
 10
-1.9676
 20
-1.65184
 30
0.0
 10
-1.9676
 20
-1.65184
 30
0.0
 10
-1.96266
 20
-1.69653
 30
0.0
 10
-1.94084
 20
-1.71887
 30
0.0
 10
-1.90222
 20
-1.71887
 30
0.0
 10
-1.90222
 20
-1.71887
 30
0.0
 10
-1.88805
 20
-1.71887
 30
0.0
 10
-1.8707
 20
-1.71488
 30
0.0
 10
-1.85012
 20
-1.70688
 30
0.0
 10
-1.85012
 20
-1.70688
 30
0.0
 10
-1.85012
 20
-1.70688
 30
0.0
 10
-1.85012
 20
-1.73404
 30
0.0
 10
-1.85012
 20
-1.73404
 30
0.0
  0
SPLINE
  5
72
330
1F
100
AcDbEntity
  8
Layer 1
 62
     5
370
     9
100
AcDbSpline
210
0.0
220
0.0
230
1.0
 70
    11
 71
     3
 72
    16
 73
    12
 74
     0
 42
0.0000000001
 43
0.0000000001
 12
1.0
 22
0.0
 32
0.0
 13
1.0
 23
0.0
 33
0.0
 40
0.0
 40
0.0
 40
0.0
 40
0.0
 40
0.25
 40
0.25
 40
0.25
 40
0.25
 40
0.5
 40
0.5
 40
0.5
 40
0.5
 40
1.0
 40
1.0
 40
1.0
 40
1.0
 10
-1.96583
 20
-1.62644
 30
0.0
 10
-1.96583
 20
-1.62644
 30
0.0
 10
-1.88328
 20
-1.62644
 30
0.0
 10
-1.88328
 20
-1.62644
 30
0.0
 10
-1.88328
 20
-1.62644
 30
0.0
 10
-1.88328
 20
-1.59164
 30
0.0
 10
-1.89628
 20
-1.57423
 30
0.0
 10
-1.92221
 20
-1.57423
 30
0.0
 10
-1.92221
 20
-1.57423
 30
0.0
 10
-1.94831
 20
-1.57423
 30
0.0
 10
-1.96283
 20
-1.59164
 30
0.0
 10
-1.96583
 20
-1.62644
 30
0.0
  0
SPLINE
  5
73
330
1F
100
AcDbEntity
  8
Layer 1
 62
     5
370
     9
100
AcDbSpline
210
0.0
220
0.0
230
1.0
 70
    11
 71
     3
 72
    44
 73
    40
 74
     0
 42
0.0000000001
 43
0.0000000001
 12
1.0
 22
0.0
 32
0.0
 13
1.0
 23
0.0
 33
0.0
 40
0.0
 40
0.0
 40
0.0
 40
0.0
 40
0.0909090909090909
 40
0.0909090909090909
 40
0.0909090909090909
 40
0.0909090909090909
 40
0.1818181818181818
 40
0.1818181818181818
 40
0.1818181818181818
 40
0.1818181818181818
 40
0.2727272727272727
 40
0.2727272727272727
 40
0.2727272727272727
 40
0.2727272727272727
 40
0.3636363636363636
 40
0.3636363636363636
 40
0.3636363636363636
 40
0.3636363636363636
 40
0.4545454545454545
 40
0.4545454545454545
 40
0.4545454545454545
 40
0.4545454545454545
 40
0.5454545454545454
 40
0.5454545454545454
 40
0.5454545454545454
 40
0.5454545454545454
 40
0.6363636363636364
 40
0.6363636363636364
 40
0.6363636363636364
 40
0.6363636363636364
 40
0.7272727272727273
 40
0.7272727272727273
 40
0.7272727272727273
 40
0.7272727272727273
 40
0.8181818181818182
 40
0.8181818181818182
 40
0.8181818181818182
 40
0.8181818181818182
 40
1.0
 40
1.0
 40
1.0
 40
1.0
 10
-1.79079
 20
-1.74004
 30
0.0
 10
-1.79079
 20
-1.74004
 30
0.0
 10
-1.79079
 20
-1.55307
 30
0.0
 10
-1.79079
 20
-1.55307
 30
0.0
 10
-1.79079
 20
-1.55307
 30
0.0
 10
-1.79079
 20
-1.55307
 30
0.0
 10
-1.75693
 20
-1.55307
 30
0.0
 10
-1.75693
 20
-1.55307
 30
0.0
 10
-1.75693
 20
-1.55307
 30
0.0
 10
-1.75693
 20
-1.55307
 30
0.0
 10
-1.75693
 20
-1.5884
 30
0.0
 10
-1.75693
 20
-1.5884
 30
0.0
 10
-1.75693
 20
-1.5884
 30
0.0
 10
-1.74346
 20
-1.56224
 30
0.0
 10
-1.72394
 20
-1.54919
 30
0.0
 10
-1.69831
 20
-1.54919
 30
0.0
 10
-1.69831
 20
-1.54919
 30
0.0
 10
-1.69484
 20
-1.54919
 30
0.0
 10
-1.69119
 20
-1.54948
 30
0.0
 10
-1.68743
 20
-1.55007
 30
0.0
 10
-1.68743
 20
-1.55007
 30
0.0
 10
-1.68743
 20
-1.55007
 30
0.0
 10
-1.68743
 20
-1.58176
 30
0.0
 10
-1.68743
 20
-1.58176
 30
0.0
 10
-1.68743
 20
-1.58176
 30
0.0
 10
-1.69331
 20
-1.57982
 30
0.0
 10
-1.69848
 20
-1.57882
 30
0.0
 10
-1.70295
 20
-1.57882
 30
0.0
 10
-1.70295
 20
-1.57882
 30
0.0
 10
-1.72447
 20
-1.57882
 30
0.0
 10
-1.74246
 20
-1.59152
 30
0.0
 10
-1.75693
 20
-1.61698
 30
0.0
 10
-1.75693
 20
-1.61698
 30
0.0
 10
-1.75693
 20
-1.61698
 30
0.0
 10
-1.75693
 20
-1.74004
 30
0.0
 10
-1.75693
 20
-1.74004
 30
0.0
 10
-1.75693
 20
-1.74004
 30
0.0
 10
-1.75693
 20
-1.74004
 30
0.0
 10
-1.79079
 20
-1.74004
 30
0.0
 10
-1.79079
 20
-1.74004
 30
0.0
  0
SPLINE
  5
74
330
1F
100
AcDbEntity
  8
Layer 1
 62
     5
370
     9
100
AcDbSpline
210
0.0
220
0.0
230
1.0
 70
    11
 71
     3
 72
    20
 73
    16
 74
     0
 42
0.0000000001
 43
0.0000000001
 12
1.0
 22
0.0
 32
0.0
 13
1.0
 23
0.0
 33
0.0
 40
0.0
 40
0.0
 40
0.0
 40
0.0
 40
0.2
 40
0.2
 40
0.2
 40
0.2
 40
0.4
 40
0.4
 40
0.4
 40
0.4
 40
0.6
 40
0.6
 40
0.6
 40
0.6
 40
1.0
 40
1.0
 40
1.0
 40
1.0
 10
-1.66549
 20
-1.76544
 30
0.0
 10
-1.66549
 20
-1.76544
 30
0.0
 10
-1.66549
 20
-1.74004
 30
0.0
 10
-1.66549
 20
-1.74004
 30
0.0
 10
-1.66549
 20
-1.74004
 30
0.0
 10
-1.66549
 20
-1.74004
 30
0.0
 10
-1.51874
 20
-1.74004
 30
0.0
 10
-1.51874
 20
-1.74004
 30
0.0
 10
-1.51874
 20
-1.74004
 30
0.0
 10
-1.51874
 20
-1.74004
 30
0.0
 10
-1.51874
 20
-1.76544
 30
0.0
 10
-1.51874
 20
-1.76544
 30
0.0
 10
-1.51874
 20
-1.76544
 30
0.0
 10
-1.51874
 20
-1.76544
 30
0.0
 10
-1.66549
 20
-1.76544
 30
0.0
 10
-1.66549
 20
-1.76544
 30
0.0
  0
SPLINE
  5
75
330
1F
100
AcDbEntity
  8
Layer 1
 62
     5
370
     9
100
AcDbSpline
210
0.0
220
0.0
230
1.0
 70
    11
 71
     3
 72
    32
 73
    28
 74
     0
 42
0.0000000001
 43
0.0000000001
 12
1.0
 22
0.0
 32
0.0
 13
1.0
 23
0.0
 33
0.0
 40
0.0
 40
0.0
 40
0.0
 40
0.0
 40
0.125
 40
0.125
 40
0.125
 40
0.125
 40
0.25
 40
0.25
 40
0.25
 40
0.25
 40
0.375
 40
0.375
 40
0.375
 40
0.375
 40
0.5
 40
0.5
 40
0.5
 40
0.5
 40
0.625
 40
0.625
 40
0.625
 40
0.625
 40
0.75
 40
0.75
 40
0.75
 40
0.75
 40
1.0
 40
1.0
 40
1.0
 40
1.0
 10
-1.43113
 20
-1.74004
 30
0.0
 10
-1.43113
 20
-1.74004
 30
0.0
 10
-1.50074
 20
-1.55307
 30
0.0
 10
-1.50074
 20
-1.55307
 30
0.0
 10
-1.50074
 20
-1.55307
 30
0.0
 10
-1.50074
 20
-1.55307
 30
0.0
 10
-1.46688
 20
-1.55307
 30
0.0
 10
-1.46688
 20
-1.55307
 30
0.0
 10
-1.46688
 20
-1.55307
 30
0.0
 10
-1.46688
 20
-1.55307
 30
0.0
 10
-1.41261
 20
-1.69835
 30
0.0
 10
-1.41261
 20
-1.69835
 30
0.0
 10
-1.41261
 20
-1.69835
 30
0.0
 10
-1.41261
 20
-1.69835
 30
0.0
 10
-1.35516
 20
-1.55307
 30
0.0
 10
-1.35516
 20
-1.55307
 30
0.0
 10
-1.35516
 20
-1.55307
 30
0.0
 10
-1.35516
 20
-1.55307
 30
0.0
 10
-1.3233
 20
-1.55307
 30
0.0
 10
-1.3233
 20
-1.55307
 30
0.0
 10
-1.3233
 20
-1.55307
 30
0.0
 10
-1.3233
 20
-1.55307
 30
0.0
 10
-1.3972
 20
-1.74004
 30
0.0
 10
-1.3972
 20
-1.74004
 30
0.0
 10
-1.3972
 20
-1.74004
 30
0.0
 10
-1.3972
 20
-1.74004
 30
0.0
 10
-1.43113
 20
-1.74004
 30
0.0
 10
-1.43113
 20
-1.74004
 30
0.0
  0
SPLINE
  5
76
330
1F
100
AcDbEntity
  8
Layer 1
 62
     5
370
     9
100
AcDbSpline
210
0.0
220
0.0
230
1.0
 70
    11
 71
     3
 72
    36
 73
    32
 74
     0
 42
0.0000000001
 43
0.0000000001
 12
1.0
 22
0.0
 32
0.0
 13
1.0
 23
0.0
 33
0.0
 40
0.0
 40
0.0
 40
0.0
 40
0.0
 40
0.1111111111111111
 40
0.1111111111111111
 40
0.1111111111111111
 40
0.1111111111111111
 40
0.2222222222222222
 40
0.2222222222222222
 40
0.2222222222222222
 40
0.2222222222222222
 40
0.3333333333333333
 40
0.3333333333333333
 40
0.3333333333333333
 40
0.3333333333333333
 40
0.4444444444444444
 40
0.4444444444444444
 40
0.4444444444444444
 40
0.4444444444444444
 40
0.5555555555555556
 40
0.5555555555555556
 40
0.5555555555555556
 40
0.5555555555555556
 40
0.6666666666666666
 40
0.6666666666666666
 40
0.6666666666666666
 40
0.6666666666666666
 40
0.7777777777777778
 40
0.7777777777777778
 40
0.7777777777777778
 40
0.7777777777777778
 40
1.0
 40
1.0
 40
1.0
 40
1.0
 10
-1.21306
 20
-1.74427
 30
0.0
 10
-1.24051
 20
-1.74427
 30
0.0
 10
-1.26227
 20
-1.73551
 30
0.0
 10
-1.27826
 20
-1.71799
 30
0.0
 10
-1.27826
 20
-1.71799
 30
0.0
 10
-1.29431
 20
-1.70047
 30
0.0
 10
-1.30231
 20
-1.67666
 30
0.0
 10
-1.30231
 20
-1.64661
 30
0.0
 10
-1.30231
 20
-1.64661
 30
0.0
 10
-1.30231
 20
-1.61663
 30
0.0
 10
-1.29431
 20
-1.59287
 30
0.0
 10
-1.27826
 20
-1.57541
 30
0.0
 10
-1.27826
 20
-1.57541
 30
0.0
 10
-1.26227
 20
-1.55795
 30
0.0
 10
-1.24051
 20
-1.54919
 30
0.0
 10
-1.21306
 20
-1.54919
 30
0.0
 10
-1.21306
 20
-1.54919
 30
0.0
 10
-1.1856
 20
-1.54919
 30
0.0
 10
-1.16384
 20
-1.55795
 30
0.0
 10
-1.14785
 20
-1.57541
 30
0.0
 10
-1.14785
 20
-1.57541
 30
0.0
 10
-1.1318
 20
-1.59287
 30
0.0
 10
-1.1238
 20
-1.61663
 30
0.0
 10
-1.1238
 20
-1.64661
 30
0.0
 10
-1.1238
 20
-1.64661
 30
0.0
 10
-1.1238
 20
-1.67666
 30
0.0
 10
-1.1318
 20
-1.70047
 30
0.0
 10
-1.14785
 20
-1.71799
 30
0.0
 10
-1.14785
 20
-1.71799
 30
0.0
 10
-1.16384
 20
-1.73551
 30
0.0
 10
-1.1856
 20
-1.74427
 30
0.0
 10
-1.21306
 20
-1.74427
 30
0.0
  0
SPLINE
  5
77
330
1F
100
AcDbEntity
  8
Layer 1
 62
     5
370
     9
100
AcDbSpline
210
0.0
220
0.0
230
1.0
 70
    11
 71
     3
 72
    36
 73
    32
 74
     0
 42
0.0000000001
 43
0.0000000001
 12
1.0
 22
0.0
 32
0.0
 13
1.0
 23
0.0
 33
0.0
 40
0.0
 40
0.0
 40
0.0
 40
0.0
 40
0.1111111111111111
 40
0.1111111111111111
 40
0.1111111111111111
 40
0.1111111111111111
 40
0.2222222222222222
 40
0.2222222222222222
 40
0.2222222222222222
 40
0.2222222222222222
 40
0.3333333333333333
 40
0.3333333333333333
 40
0.3333333333333333
 40
0.3333333333333333
 40
0.4444444444444444
 40
0.4444444444444444
 40
0.4444444444444444
 40
0.4444444444444444
 40
0.5555555555555556
 40
0.5555555555555556
 40
0.5555555555555556
 40
0.5555555555555556
 40
0.6666666666666666
 40
0.6666666666666666
 40
0.6666666666666666
 40
0.6666666666666666
 40
0.7777777777777778
 40
0.7777777777777778
 40
0.7777777777777778
 40
0.7777777777777778
 40
1.0
 40
1.0
 40
1.0
 40
1.0
 10
-1.21312
 20
-1.71887
 30
0.0
 10
-1.19636
 20
-1.71887
 30
0.0
 10
-1.18331
 20
-1.71258
 30
0.0
 10
-1.17402
 20
-1.69994
 30
0.0
 10
-1.17402
 20
-1.69994
 30
0.0
 10
-1.16478
 20
-1.68736
 30
0.0
 10
-1.16014
 20
-1.66954
 30
0.0
 10
-1.16014
 20
-1.64661
 30
0.0
 10
-1.16014
 20
-1.64661
 30
0.0
 10
-1.16014
 20
-1.62374
 30
0.0
 10
-1.16478
 20
-1.60598
 30
0.0
 10
-1.17402
 20
-1.5934
 30
0.0
 10
-1.17402
 20
-1.5934
 30
0.0
 10
-1.18331
 20
-1.58088
 30
0.0
 10
-1.19636
 20
-1.57459
 30
0.0
 10
-1.21312
 20
-1.57459
 30
0.0
 10
-1.21312
 20
-1.57459
 30
0.0
 10
-1.22993
 20
-1.57459
 30
0.0
 10
-1.24298
 20
-1.58088
 30
0.0
 10
-1.25216
 20
-1.5934
 30
0.0
 10
-1.25216
 20
-1.5934
 30
0.0
 10
-1.26139
 20
-1.60598
 30
0.0
 10
-1.26597
 20
-1.62374
 30
0.0
 10
-1.26597
 20
-1.64661
 30
0.0
 10
-1.26597
 20
-1.64661
 30
0.0
 10
-1.26597
 20
-1.66954
 30
0.0
 10
-1.26139
 20
-1.68736
 30
0.0
 10
-1.25216
 20
-1.69994
 30
0.0
 10
-1.25216
 20
-1.69994
 30
0.0
 10
-1.24298
 20
-1.71258
 30
0.0
 10
-1.22993
 20
-1.71887
 30
0.0
 10
-1.21312
 20
-1.71887
 30
0.0
  0
SPLINE
  5
78
330
1F
100
AcDbEntity
  8
Layer 1
 62
     5
370
     9
100
AcDbSpline
210
0.0
220
0.0
230
1.0
 70
    11
 71
     3
 72
    20
 73
    16
 74
     0
 42
0.0000000001
 43
0.0000000001
 12
1.0
 22
0.0
 32
0.0
 13
1.0
 23
0.0
 33
0.0
 40
0.0
 40
0.0
 40
0.0
 40
0.0
 40
0.2
 40
0.2
 40
0.2
 40
0.2
 40
0.4
 40
0.4
 40
0.4
 40
0.4
 40
0.6
 40
0.6
 40
0.6
 40
0.6
 40
1.0
 40
1.0
 40
1.0
 40
1.0
 10
-1.07077
 20
-1.74004
 30
0.0
 10
-1.07077
 20
-1.74004
 30
0.0
 10
-1.07077
 20
-1.46805
 30
0.0
 10
-1.07077
 20
-1.46805
 30
0.0
 10
-1.07077
 20
-1.46805
 30
0.0
 10
-1.07077
 20
-1.46805
 30
0.0
 10
-1.03691
 20
-1.46805
 30
0.0
 10
-1.03691
 20
-1.46805
 30
0.0
 10
-1.03691
 20
-1.46805
 30
0.0
 10
-1.03691
 20
-1.46805
 30
0.0
 10
-1.03691
 20
-1.74004
 30
0.0
 10
-1.03691
 20
-1.74004
 30
0.0
 10
-1.03691
 20
-1.74004
 30
0.0
 10
-1.03691
 20
-1.74004
 30
0.0
 10
-1.07077
 20
-1.74004
 30
0.0
 10
-1.07077
 20
-1.74004
 30
0.0
  0
SPLINE
  5
79
330
1F
100
AcDbEntity
  8
Layer 1
 62
     5
370
     9
100
AcDbSpline
210
0.0
220
0.0
230
1.0
 70
    11
 71
     3
 72
    72
 73
    68
 74
     0
 42
0.0000000001
 43
0.0000000001
 12
1.0
 22
0.0
 32
0.0
 13
1.0
 23
0.0
 33
0.0
 40
0.0
 40
0.0
 40
0.0
 40
0.0
 40
0.0555555555555556
 40
0.0555555555555556
 40
0.0555555555555556
 40
0.0555555555555556
 40
0.1111111111111111
 40
0.1111111111111111
 40
0.1111111111111111
 40
0.1111111111111111
 40
0.1666666666666667
 40
0.1666666666666667
 40
0.1666666666666667
 40
0.1666666666666667
 40
0.2222222222222222
 40
0.2222222222222222
 40
0.2222222222222222
 40
0.2222222222222222
 40
0.2777777777777778
 40
0.2777777777777778
 40
0.2777777777777778
 40
0.2777777777777778
 40
0.3333333333333333
 40
0.3333333333333333
 40
0.3333333333333333
 40
0.3333333333333333
 40
0.3888888888888889
 40
0.3888888888888889
 40
0.3888888888888889
 40
0.3888888888888889
 40
0.4444444444444444
 40
0.4444444444444444
 40
0.4444444444444444
 40
0.4444444444444444
 40
0.5
 40
0.5
 40
0.5
 40
0.5
 40
0.5555555555555556
 40
0.5555555555555556
 40
0.5555555555555556
 40
0.5555555555555556
 40
0.6111111111111112
 40
0.6111111111111112
 40
0.6111111111111112
 40
0.6111111111111112
 40
0.6666666666666666
 40
0.6666666666666666
 40
0.6666666666666666
 40
0.6666666666666666
 40
0.7222222222222222
 40
0.7222222222222222
 40
0.7222222222222222
 40
0.7222222222222222
 40
0.7777777777777778
 40
0.7777777777777778
 40
0.7777777777777778
 40
0.7777777777777778
 40
0.8333333333333334
 40
0.8333333333333334
 40
0.8333333333333334
 40
0.8333333333333334
 40
0.8888888888888888
 40
0.8888888888888888
 40
0.8888888888888888
 40
0.8888888888888888
 40
1.0
 40
1.0
 40
1.0
 40
1.0
 10
-0.88521
 20
-1.73998
 30
0.0
 10
-0.89568
 20
-1.74286
 30
0.0
 10
-0.90479
 20
-1.74427
 30
0.0
 10
-0.9125
 20
-1.74427
 30
0.0
 10
-0.9125
 20
-1.74427
 30
0.0
 10
-0.92978
 20
-1.74427
 30
0.0
 10
-0.94325
 20
-1.73933
 30
0.0
 10
-0.95289
 20
-1.72946
 30
0.0
 10
-0.95289
 20
-1.72946
 30
0.0
 10
-0.96259
 20
-1.71958
 30
0.0
 10
-0.96741
 20
-1.70588
 30
0.0
 10
-0.96741
 20
-1.6883
 30
0.0
 10
-0.96741
 20
-1.6883
 30
0.0
 10
-0.96741
 20
-1.6883
 30
0.0
 10
-0.96741
 20
-1.57847
 30
0.0
 10
-0.96741
 20
-1.57847
 30
0.0
 10
-0.96741
 20
-1.57847
 30
0.0
 10
-0.96741
 20
-1.57847
 30
0.0
 10
-0.99081
 20
-1.57847
 30
0.0
 10
-0.99081
 20
-1.57847
 30
0.0
 10
-0.99081
 20
-1.57847
 30
0.0
 10
-0.99081
 20
-1.57847
 30
0.0
 10
-0.99081
 20
-1.55307
 30
0.0
 10
-0.99081
 20
-1.55307
 30
0.0
 10
-0.99081
 20
-1.55307
 30
0.0
 10
-0.99081
 20
-1.55307
 30
0.0
 10
-0.96741
 20
-1.55307
 30
0.0
 10
-0.96741
 20
-1.55307
 30
0.0
 10
-0.96741
 20
-1.55307
 30
0.0
 10
-0.96741
 20
-1.55307
 30
0.0
 10
-0.96741
 20
-1.51926
 30
0.0
 10
-0.96741
 20
-1.51926
 30
0.0
 10
-0.96741
 20
-1.51926
 30
0.0
 10
-0.96741
 20
-1.51926
 30
0.0
 10
-0.93355
 20
-1.51602
 30
0.0
 10
-0.93355
 20
-1.51602
 30
0.0
 10
-0.93355
 20
-1.51602
 30
0.0
 10
-0.93355
 20
-1.51602
 30
0.0
 10
-0.93355
 20
-1.55307
 30
0.0
 10
-0.93355
 20
-1.55307
 30
0.0
 10
-0.93355
 20
-1.55307
 30
0.0
 10
-0.93355
 20
-1.55307
 30
0.0
 10
-0.88451
 20
-1.55307
 30
0.0
 10
-0.88451
 20
-1.55307
 30
0.0
 10
-0.88451
 20
-1.55307
 30
0.0
 10
-0.88451
 20
-1.55307
 30
0.0
 10
-0.88451
 20
-1.57847
 30
0.0
 10
-0.88451
 20
-1.57847
 30
0.0
 10
-0.88451
 20
-1.57847
 30
0.0
 10
-0.88451
 20
-1.57847
 30
0.0
 10
-0.93355
 20
-1.57847
 30
0.0
 10
-0.93355
 20
-1.57847
 30
0.0
 10
-0.93355
 20
-1.57847
 30
0.0
 10
-0.93355
 20
-1.57847
 30
0.0
 10
-0.93355
 20
-1.68218
 30
0.0
 10
-0.93355
 20
-1.68218
 30
0.0
 10
-0.93355
 20
-1.68218
 30
0.0
 10
-0.93355
 20
-1.70664
 30
0.0
 10
-0.9229
 20
-1.71887
 30
0.0
 10
-0.90168
 20
-1.71887
 30
0.0
 10
-0.90168
 20
-1.71887
 30
0.0
 10
-0.89715
 20
-1.71887
 30
0.0
 10
-0.89168
 20
-1.71811
 30
0.0
 10
-0.88521
 20
-1.71664
 30
0.0
 10
-0.88521
 20
-1.71664
 30
0.0
 10
-0.88521
 20
-1.71664
 30
0.0
 10
-0.88521
 20
-1.73998
 30
0.0
 10
-0.88521
 20
-1.73998
 30
0.0
  0
SPLINE
  5
7A
330
1F
100
AcDbEntity
  8
Layer 1
 62
     5
370
     9
100
AcDbSpline
210
0.0
220
0.0
230
1.0
 70
    11
 71
     3
 72
    80
 73
    76
 74
     0
 42
0.0000000001
 43
0.0000000001
 12
1.0
 22
0.0
 32
0.0
 13
1.0
 23
0.0
 33
0.0
 40
0.0
 40
0.0
 40
0.0
 40
0.0
 40
0.05
 40
0.05
 40
0.05
 40
0.05
 40
0.1
 40
0.1
 40
0.1
 40
0.1
 40
0.15
 40
0.15
 40
0.15
 40
0.15
 40
0.2
 40
0.2
 40
0.2
 40
0.2
 40
0.25
 40
0.25
 40
0.25
 40
0.25
 40
0.3
 40
0.3
 40
0.3
 40
0.3
 40
0.35
 40
0.35
 40
0.35
 40
0.35
 40
0.4
 40
0.4
 40
0.4
 40
0.4
 40
0.45
 40
0.45
 40
0.45
 40
0.45
 40
0.5
 40
0.5
 40
0.5
 40
0.5
 40
0.55
 40
0.55
 40
0.55
 40
0.55
 40
0.6
 40
0.6
 40
0.6
 40
0.6
 40
0.65
 40
0.65
 40
0.65
 40
0.65
 40
0.7
 40
0.7
 40
0.7
 40
0.7
 40
0.75
 40
0.75
 40
0.75
 40
0.75
 40
0.8
 40
0.8
 40
0.8
 40
0.8
 40
0.85
 40
0.85
 40
0.85
 40
0.85
 40
0.9
 40
0.9
 40
0.9
 40
0.9
 40
1.0
 40
1.0
 40
1.0
 40
1.0
 10
-0.74052
 20
-1.71623
 30
0.0
 10
-0.76086
 20
-1.73492
 30
0.0
 10
-0.78044
 20
-1.74427
 30
0.0
 10
-0.79925
 20
-1.74427
 30
0.0
 10
-0.79925
 20
-1.74427
 30
0.0
 10
-0.81472
 20
-1.74427
 30
0.0
 10
-0.82759
 20
-1.73945
 30
0.0
 10
-0.83777
 20
-1.72975
 30
0.0
 10
-0.83777
 20
-1.72975
 30
0.0
 10
-0.848
 20
-1.72005
 30
0.0
 10
-0.85311
 20
-1.70782
 30
0.0
 10
-0.85311
 20
-1.69306
 30
0.0
 10
-0.85311
 20
-1.69306
 30
0.0
 10
-0.85311
 20
-1.67266
 30
0.0
 10
-0.84453
 20
-1.65696
 30
0.0
 10
-0.82736
 20
-1.64602
 30
0.0
 10
-0.82736
 20
-1.64602
 30
0.0
 10
-0.81019
 20
-1.63509
 30
0.0
 10
-0.78555
 20
-1.62962
 30
0.0
 10
-0.75345
 20
-1.62962
 30
0.0
 10
-0.75345
 20
-1.62962
 30
0.0
 10
-0.75345
 20
-1.62962
 30
0.0
 10
-0.74551
 20
-1.62962
 30
0.0
 10
-0.74551
 20
-1.62962
 30
0.0
 10
-0.74551
 20
-1.62962
 30
0.0
 10
-0.74551
 20
-1.62962
 30
0.0
 10
-0.74551
 20
-1.6071
 30
0.0
 10
-0.74551
 20
-1.6071
 30
0.0
 10
-0.74551
 20
-1.6071
 30
0.0
 10
-0.74551
 20
-1.5854
 30
0.0
 10
-0.7568
 20
-1.57459
 30
0.0
 10
-0.77944
 20
-1.57459
 30
0.0
 10
-0.77944
 20
-1.57459
 30
0.0
 10
-0.79696
 20
-1.57459
 30
0.0
 10
-0.81613
 20
-1.58011
 30
0.0
 10
-0.83688
 20
-1.59117
 30
0.0
 10
-0.83688
 20
-1.59117
 30
0.0
 10
-0.83688
 20
-1.59117
 30
0.0
 10
-0.83688
 20
-1.5633
 30
0.0
 10
-0.83688
 20
-1.5633
 30
0.0
 10
-0.83688
 20
-1.5633
 30
0.0
 10
-0.81407
 20
-1.55389
 30
0.0
 10
-0.79255
 20
-1.54919
 30
0.0
 10
-0.77238
 20
-1.54919
 30
0.0
 10
-0.77238
 20
-1.54919
 30
0.0
 10
-0.75163
 20
-1.54919
 30
0.0
 10
-0.73628
 20
-1.55389
 30
0.0
 10
-0.72646
 20
-1.56336
 30
0.0
 10
-0.72646
 20
-1.56336
 30
0.0
 10
-0.71659
 20
-1.57282
 30
0.0
 10
-0.71165
 20
-1.5874
 30
0.0
 10
-0.71165
 20
-1.6071
 30
0.0
 10
-0.71165
 20
-1.6071
 30
0.0
 10
-0.71165
 20
-1.6071
 30
0.0
 10
-0.71165
 20
-1.69159
 30
0.0
 10
-0.71165
 20
-1.69159
 30
0.0
 10
-0.71165
 20
-1.69159
 30
0.0
 10
-0.71165
 20
-1.71094
 30
0.0
 10
-0.70571
 20
-1.72064
 30
0.0
 10
-0.69377
 20
-1.72064
 30
0.0
 10
-0.69377
 20
-1.72064
 30
0.0
 10
-0.6923
 20
-1.72064
 30
0.0
 10
-0.69013
 20
-1.7204
 30
0.0
 10
-0.68725
 20
-1.71993
 30
0.0
 10
-0.68725
 20
-1.71993
 30
0.0
 10
-0.68725
 20
-1.71993
 30
0.0
 10
-0.68483
 20
-1.73875
 30
0.0
 10
-0.68483
 20
-1.73875
 30
0.0
 10
-0.68483
 20
-1.73875
 30
0.0
 10
-0.69254
 20
-1.74245
 30
0.0
 10
-0.701
 20
-1.74427
 30
0.0
 10
-0.71029
 20
-1.74427
 30
0.0
 10
-0.71029
 20
-1.74427
 30
0.0
 10
-0.72611
 20
-1.74427
 30
0.0
 10
-0.73616
 20
-1.73492
 30
0.0
 10
-0.74052
 20
-1.71623
 30
0.0
  0
SPLINE
  5
7B
330
1F
100
AcDbEntity
  8
Layer 1
 62
     5
370
     9
100
AcDbSpline
210
0.0
220
0.0
230
1.0
 70
    11
 71
     3
 72
    32
 73
    28
 74
     0
 42
0.0000000001
 43
0.0000000001
 12
1.0
 22
0.0
 32
0.0
 13
1.0
 23
0.0
 33
0.0
 40
0.0
 40
0.0
 40
0.0
 40
0.0
 40
0.125
 40
0.125
 40
0.125
 40
0.125
 40
0.25
 40
0.25
 40
0.25
 40
0.25
 40
0.375
 40
0.375
 40
0.375
 40
0.375
 40
0.5
 40
0.5
 40
0.5
 40
0.5
 40
0.625
 40
0.625
 40
0.625
 40
0.625
 40
0.75
 40
0.75
 40
0.75
 40
0.75
 40
1.0
 40
1.0
 40
1.0
 40
1.0
 10
-0.74551
 20
-1.69777
 30
0.0
 10
-0.74551
 20
-1.69777
 30
0.0
 10
-0.74551
 20
-1.64973
 30
0.0
 10
-0.74551
 20
-1.64973
 30
0.0
 10
-0.74551
 20
-1.64973
 30
0.0
 10
-0.74551
 20
-1.64973
 30
0.0
 10
-0.75639
 20
-1.64938
 30
0.0
 10
-0.75639
 20
-1.64938
 30
0.0
 10
-0.75639
 20
-1.64938
 30
0.0
 10
-0.77521
 20
-1.64938
 30
0.0
 10
-0.79037
 20
-1.65284
 30
0.0
 10
-0.80196
 20
-1.65978
 30
0.0
 10
-0.80196
 20
-1.65978
 30
0.0
 10
-0.81348
 20
-1.66678
 30
0.0
 10
-0.81924
 20
-1.67601
 30
0.0
 10
-0.81924
 20
-1.68753
 30
0.0
 10
-0.81924
 20
-1.68753
 30
0.0
 10
-0.81924
 20
-1.69559
 30
0.0
 10
-0.81636
 20
-1.70241
 30
0.0
 10
-0.81066
 20
-1.708
 30
0.0
 10
-0.81066
 20
-1.708
 30
0.0
 10
-0.8049
 20
-1.71358
 30
0.0
 10
-0.7979
 20
-1.7164
 30
0.0
 10
-0.78961
 20
-1.7164
 30
0.0
 10
-0.78961
 20
-1.7164
 30
0.0
 10
-0.7755
 20
-1.7164
 30
0.0
 10
-0.7608
 20
-1.71017
 30
0.0
 10
-0.74551
 20
-1.69777
 30
0.0
  0
SPLINE
  5
7C
330
1F
100
AcDbEntity
  8
Layer 1
 62
     5
370
     9
100
AcDbSpline
210
0.0
220
0.0
230
1.0
 70
    11
 71
     3
 72
    76
 73
    72
 74
     0
 42
0.0000000001
 43
0.0000000001
 12
1.0
 22
0.0
 32
0.0
 13
1.0
 23
0.0
 33
0.0
 40
0.0
 40
0.0
 40
0.0
 40
0.0
 40
0.0526315789473684
 40
0.0526315789473684
 40
0.0526315789473684
 40
0.0526315789473684
 40
0.1052631578947368
 40
0.1052631578947368
 40
0.1052631578947368
 40
0.1052631578947368
 40
0.1578947368421053
 40
0.1578947368421053
 40
0.1578947368421053
 40
0.1578947368421053
 40
0.2105263157894737
 40
0.2105263157894737
 40
0.2105263157894737
 40
0.2105263157894737
 40
0.2631578947368421
 40
0.2631578947368421
 40
0.2631578947368421
 40
0.2631578947368421
 40
0.3157894736842105
 40
0.3157894736842105
 40
0.3157894736842105
 40
0.3157894736842105
 40
0.3684210526315789
 40
0.3684210526315789
 40
0.3684210526315789
 40
0.3684210526315789
 40
0.4210526315789473
 40
0.4210526315789473
 40
0.4210526315789473
 40
0.4210526315789473
 40
0.4736842105263158
 40
0.4736842105263158
 40
0.4736842105263158
 40
0.4736842105263158
 40
0.5263157894736842
 40
0.5263157894736842
 40
0.5263157894736842
 40
0.5263157894736842
 40
0.5789473684210527
 40
0.5789473684210527
 40
0.5789473684210527
 40
0.5789473684210527
 40
0.631578947368421
 40
0.631578947368421
 40
0.631578947368421
 40
0.631578947368421
 40
0.6842105263157895
 40
0.6842105263157895
 40
0.6842105263157895
 40
0.6842105263157895
 40
0.7368421052631579
 40
0.7368421052631579
 40
0.7368421052631579
 40
0.7368421052631579
 40
0.7894736842105263
 40
0.7894736842105263
 40
0.7894736842105263
 40
0.7894736842105263
 40
0.8421052631578947
 40
0.8421052631578947
 40
0.8421052631578947
 40
0.8421052631578947
 40
0.8947368421052632
 40
0.8947368421052632
 40
0.8947368421052632
 40
0.8947368421052632
 40
1.0
 40
1.0
 40
1.0
 40
1.0
 10
-0.64138
 20
-1.80213
 30
0.0
 10
-0.64138
 20
-1.80213
 30
0.0
 10
-0.63738
 20
-1.77285
 30
0.0
 10
-0.63738
 20
-1.77285
 30
0.0
 10
-0.63738
 20
-1.77285
 30
0.0
 10
-0.61774
 20
-1.78202
 30
0.0
 10
-0.59828
 20
-1.78661
 30
0.0
 10
-0.57905
 20
-1.78661
 30
0.0
 10
-0.57905
 20
-1.78661
 30
0.0
 10
-0.54089
 20
-1.78661
 30
0.0
 10
-0.52179
 20
-1.76638
 30
0.0
 10
-0.52179
 20
-1.72599
 30
0.0
 10
-0.52179
 20
-1.72599
 30
0.0
 10
-0.52179
 20
-1.72599
 30
0.0
 10
-0.52179
 20
-1.69659
 30
0.0
 10
-0.52179
 20
-1.69659
 30
0.0
 10
-0.52179
 20
-1.69659
 30
0.0
 10
-0.52766
 20
-1.709
 30
0.0
 10
-0.53601
 20
-1.71858
 30
0.0
 10
-0.54689
 20
-1.72546
 30
0.0
 10
-0.54689
 20
-1.72546
 30
0.0
 10
-0.55777
 20
-1.73234
 30
0.0
 10
-0.56988
 20
-1.73581
 30
0.0
 10
-0.58323
 20
-1.73581
 30
0.0
 10
-0.58323
 20
-1.73581
 30
0.0
 10
-0.60586
 20
-1.73581
 30
0.0
 10
-0.6238
 20
-1.72769
 30
0.0
 10
-0.63703
 20
-1.71146
 30
0.0
 10
-0.63703
 20
-1.71146
 30
0.0
 10
-0.65026
 20
-1.69524
 30
0.0
 10
-0.6569
 20
-1.67325
 30
0.0
 10
-0.6569
 20
-1.64549
 30
0.0
 10
-0.6569
 20
-1.64549
 30
0.0
 10
-0.6569
 20
-1.6171
 30
0.0
 10
-0.64937
 20
-1.59393
 30
0.0
 10
-0.63432
 20
-1.576
 30
0.0
 10
-0.63432
 20
-1.576
 30
0.0
 10
-0.61921
 20
-1.55812
 30
0.0
 10
-0.59975
 20
-1.54919
 30
0.0
 10
-0.57582
 20
-1.54919
 30
0.0
 10
-0.57582
 20
-1.54919
 30
0.0
 10
-0.55489
 20
-1.54919
 30
0.0
 10
-0.53684
 20
-1.55765
 30
0.0
 10
-0.52179
 20
-1.57464
 30
0.0
 10
-0.52179
 20
-1.57464
 30
0.0
 10
-0.52179
 20
-1.57464
 30
0.0
 10
-0.52179
 20
-1.55307
 30
0.0
 10
-0.52179
 20
-1.55307
 30
0.0
 10
-0.52179
 20
-1.55307
 30
0.0
 10
-0.52179
 20
-1.55307
 30
0.0
 10
-0.48792
 20
-1.55307
 30
0.0
 10
-0.48792
 20
-1.55307
 30
0.0
 10
-0.48792
 20
-1.55307
 30
0.0
 10
-0.48792
 20
-1.55307
 30
0.0
 10
-0.48792
 20
-1.689
 30
0.0
 10
-0.48792
 20
-1.689
 30
0.0
 10
-0.48792
 20
-1.689
 30
0.0
 10
-0.48792
 20
-1.71823
 30
0.0
 10
-0.48945
 20
-1.73986
 30
0.0
 10
-0.4925
 20
-1.75392
 30
0.0
 10
-0.4925
 20
-1.75392
 30
0.0
 10
-0.4955
 20
-1.76797
 30
0.0
 10
-0.50127
 20
-1.77949
 30
0.0
 10
-0.50961
 20
-1.78843
 30
0.0
 10
-0.50961
 20
-1.78843
 30
0.0
 10
-0.52443
 20
-1.80413
 30
0.0
 10
-0.5476
 20
-1.81201
 30
0.0
 10
-0.57905
 20
-1.81201
 30
0.0
 10
-0.57905
 20
-1.81201
 30
0.0
 10
-0.60063
 20
-1.81201
 30
0.0
 10
-0.62139
 20
-1.80871
 30
0.0
 10
-0.64138
 20
-1.80213
 30
0.0
  0
SPLINE
  5
7D
330
1F
100
AcDbEntity
  8
Layer 1
 62
     5
370
     9
100
AcDbSpline
210
0.0
220
0.0
230
1.0
 70
    11
 71
     3
 72
    28
 73
    24
 74
     0
 42
0.0000000001
 43
0.0000000001
 12
1.0
 22
0.0
 32
0.0
 13
1.0
 23
0.0
 33
0.0
 40
0.0
 40
0.0
 40
0.0
 40
0.0
 40
0.1428571428571428
 40
0.1428571428571428
 40
0.1428571428571428
 40
0.1428571428571428
 40
0.2857142857142857
 40
0.2857142857142857
 40
0.2857142857142857
 40
0.2857142857142857
 40
0.4285714285714285
 40
0.4285714285714285
 40
0.4285714285714285
 40
0.4285714285714285
 40
0.5714285714285714
 40
0.5714285714285714
 40
0.5714285714285714
 40
0.5714285714285714
 40
0.7142857142857143
 40
0.7142857142857143
 40
0.7142857142857143
 40
0.7142857142857143
 40
1.0
 40
1.0
 40
1.0
 40
1.0
 10
-0.52179
 20
-1.67536
 30
0.0
 10
-0.52179
 20
-1.67536
 30
0.0
 10
-0.52179
 20
-1.59781
 30
0.0
 10
-0.52179
 20
-1.59781
 30
0.0
 10
-0.52179
 20
-1.59781
 30
0.0
 10
-0.53672
 20
-1.58235
 30
0.0
 10
-0.55301
 20
-1.57459
 30
0.0
 10
-0.57059
 20
-1.57459
 30
0.0
 10
-0.57059
 20
-1.57459
 30
0.0
 10
-0.58623
 20
-1.57459
 30
0.0
 10
-0.59846
 20
-1.58082
 30
0.0
 10
-0.60728
 20
-1.59334
 30
0.0
 10
-0.60728
 20
-1.59334
 30
0.0
 10
-0.61615
 20
-1.60581
 30
0.0
 10
-0.62056
 20
-1.62315
 30
0.0
 10
-0.62056
 20
-1.64526
 30
0.0
 10
-0.62056
 20
-1.64526
 30
0.0
 10
-0.62056
 20
-1.68589
 30
0.0
 10
-0.60616
 20
-1.70617
 30
0.0
 10
-0.57729
 20
-1.70617
 30
0.0
 10
-0.57729
 20
-1.70617
 30
0.0
 10
-0.55765
 20
-1.70617
 30
0.0
 10
-0.53913
 20
-1.69588
 30
0.0
 10
-0.52179
 20
-1.67536
 30
0.0
  0
SPLINE
  5
7E
330
1F
100
AcDbEntity
  8
Layer 1
 62
     5
370
     9
100
AcDbSpline
210
0.0
220
0.0
230
1.0
 70
    11
 71
     3
 72
    52
 73
    48
 74
     0
 42
0.0000000001
 43
0.0000000001
 12
1.0
 22
0.0
 32
0.0
 13
1.0
 23
0.0
 33
0.0
 40
0.0
 40
0.0
 40
0.0
 40
0.0
 40
0.0769230769230769
 40
0.0769230769230769
 40
0.0769230769230769
 40
0.0769230769230769
 40
0.1538461538461539
 40
0.1538461538461539
 40
0.1538461538461539
 40
0.1538461538461539
 40
0.2307692307692308
 40
0.2307692307692308
 40
0.2307692307692308
 40
0.2307692307692308
 40
0.3076923076923077
 40
0.3076923076923077
 40
0.3076923076923077
 40
0.3076923076923077
 40
0.3846153846153846
 40
0.3846153846153846
 40
0.3846153846153846
 40
0.3846153846153846
 40
0.4615384615384616
 40
0.4615384615384616
 40
0.4615384615384616
 40
0.4615384615384616
 40
0.5384615384615384
 40
0.5384615384615384
 40
0.5384615384615384
 40
0.5384615384615384
 40
0.6153846153846154
 40
0.6153846153846154
 40
0.6153846153846154
 40
0.6153846153846154
 40
0.6923076923076923
 40
0.6923076923076923
 40
0.6923076923076923
 40
0.6923076923076923
 40
0.7692307692307693
 40
0.7692307692307693
 40
0.7692307692307693
 40
0.7692307692307693
 40
0.8461538461538461
 40
0.8461538461538461
 40
0.8461538461538461
 40
0.8461538461538461
 40
1.0
 40
1.0
 40
1.0
 40
1.0
 10
-0.28489
 20
-1.73404
 30
0.0
 10
-0.30765
 20
-1.74086
 30
0.0
 10
-0.32711
 20
-1.74427
 30
0.0
 10
-0.34334
 20
-1.74427
 30
0.0
 10
-0.34334
 20
-1.74427
 30
0.0
 10
-0.37103
 20
-1.74427
 30
0.0
 10
-0.39355
 20
-1.7351
 30
0.0
 10
-0.41089
 20
-1.71682
 30
0.0
 10
-0.41089
 20
-1.71682
 30
0.0
 10
-0.42824
 20
-1.69853
 30
0.0
 10
-0.43694
 20
-1.67483
 30
0.0
 10
-0.43694
 20
-1.64567
 30
0.0
 10
-0.43694
 20
-1.64567
 30
0.0
 10
-0.43694
 20
-1.61739
 30
0.0
 10
-0.4293
 20
-1.59417
 30
0.0
 10
-0.41395
 20
-1.576
 30
0.0
 10
-0.41395
 20
-1.576
 30
0.0
 10
-0.3986
 20
-1.55789
 30
0.0
 10
-0.37897
 20
-1.54883
 30
0.0
 10
-0.35504
 20
-1.54883
 30
0.0
 10
-0.35504
 20
-1.54883
 30
0.0
 10
-0.3324
 20
-1.54883
 30
0.0
 10
-0.31488
 20
-1.55689
 30
0.0
 10
-0.30253
 20
-1.573
 30
0.0
 10
-0.30253
 20
-1.573
 30
0.0
 10
-0.29018
 20
-1.58911
 30
0.0
 10
-0.28401
 20
-1.61192
 30
0.0
 10
-0.28401
 20
-1.6415
 30
0.0
 10
-0.28401
 20
-1.6415
 30
0.0
 10
-0.28401
 20
-1.6415
 30
0.0
 10
-0.28419
 20
-1.65184
 30
0.0
 10
-0.28419
 20
-1.65184
 30
0.0
 10
-0.28419
 20
-1.65184
 30
0.0
 10
-0.28419
 20
-1.65184
 30
0.0
 10
-0.40237
 20
-1.65184
 30
0.0
 10
-0.40237
 20
-1.65184
 30
0.0
 10
-0.40237
 20
-1.65184
 30
0.0
 10
-0.39743
 20
-1.69653
 30
0.0
 10
-0.37561
 20
-1.71887
 30
0.0
 10
-0.33699
 20
-1.71887
 30
0.0
 10
-0.33699
 20
-1.71887
 30
0.0
 10
-0.32282
 20
-1.71887
 30
0.0
 10
-0.30547
 20
-1.71488
 30
0.0
 10
-0.28489
 20
-1.70688
 30
0.0
 10
-0.28489
 20
-1.70688
 30
0.0
 10
-0.28489
 20
-1.70688
 30
0.0
 10
-0.28489
 20
-1.73404
 30
0.0
 10
-0.28489
 20
-1.73404
 30
0.0
  0
SPLINE
  5
7F
330
1F
100
AcDbEntity
  8
Layer 1
 62
     5
370
     9
100
AcDbSpline
210
0.0
220
0.0
230
1.0
 70
    11
 71
     3
 72
    16
 73
    12
 74
     0
 42
0.0000000001
 43
0.0000000001
 12
1.0
 22
0.0
 32
0.0
 13
1.0
 23
0.0
 33
0.0
 40
0.0
 40
0.0
 40
0.0
 40
0.0
 40
0.25
 40
0.25
 40
0.25
 40
0.25
 40
0.5
 40
0.5
 40
0.5
 40
0.5
 40
1.0
 40
1.0
 40
1.0
 40
1.0
 10
-0.4006
 20
-1.62644
 30
0.0
 10
-0.4006
 20
-1.62644
 30
0.0
 10
-0.31805
 20
-1.62644
 30
0.0
 10
-0.31805
 20
-1.62644
 30
0.0
 10
-0.31805
 20
-1.62644
 30
0.0
 10
-0.31805
 20
-1.59164
 30
0.0
 10
-0.33105
 20
-1.57423
 30
0.0
 10
-0.35698
 20
-1.57423
 30
0.0
 10
-0.35698
 20
-1.57423
 30
0.0
 10
-0.38308
 20
-1.57423
 30
0.0
 10
-0.3976
 20
-1.59164
 30
0.0
 10
-0.4006
 20
-1.62644
 30
0.0
  0
LWPOLYLINE
  5
80
330
1F
100
AcDbEntity
  8
Layer 1
370
    53
100
AcDbPolyline
 90
        5
 70
     1
 43
0.0
 10
1.4625
 20
0.3375
 10
1.5375
 20
0.3375
 10
1.5375
 20
0.4125
 10
1.4625
 20
0.4125
 10
1.4625
 20
0.3375
  0
LWPOLYLINE
  5
81
330
1F
100
AcDbEntity
  8
Layer 1
370
    53
100
AcDbPolyline
 90
        5
 70
     1
 43
0.0
 10
1.2085
 20
0.3375
 10
1.2835
 20
0.3375
 10
1.2835
 20
0.4125
 10
1.2085
 20
0.4125
 10
1.2085
 20
0.3375
  0
LWPOLYLINE
  5
82
330
1F
100
AcDbEntity
  8
Layer 1
370
    53
100
AcDbPolyline
 90
        5
 70
     1
 43
0.0
 10
0.9545
 20
0.3375
 10
1.0295
 20
0.3375
 10
1.0295
 20
0.4125
 10
0.9545
 20
0.4125
 10
0.9545
 20
0.3375
  0
SPLINE
  5
83
330
1F
100
AcDbEntity
  8
Layer 1
 62
     5
370
    53
100
AcDbSpline
210
0.0
220
0.0
230
1.0
 70
    11
 71
     3
 72
    20
 73
    16
 74
     0
 42
0.0000000001
 43
0.0000000001
 12
1.0
 22
0.0
 32
0.0
 13
1.0
 23
0.0
 33
0.0
 40
0.0
 40
0.0
 40
0.0
 40
0.0
 40
0.2
 40
0.2
 40
0.2
 40
0.2
 40
0.4
 40
0.4
 40
0.4
 40
0.4
 40
0.6
 40
0.6
 40
0.6
 40
0.6
 40
1.0
 40
1.0
 40
1.0
 40
1.0
 10
0.357
 20
0.502
 30
0.0
 10
0.357
 20
0.502
 30
0.0
 10
2.135
 20
0.502
 30
0.0
 10
2.135
 20
0.502
 30
0.0
 10
2.135
 20
0.502
 30
0.0
 10
2.135
 20
0.502
 30
0.0
 10
2.135
 20
0.248
 30
0.0
 10
2.135
 20
0.248
 30
0.0
 10
2.135
 20
0.248
 30
0.0
 10
2.135
 20
0.248
 30
0.0
 10
0.357
 20
0.248
 30
0.0
 10
0.357
 20
0.248
 30
0.0
 10
0.357
 20
0.248
 30
0.0
 10
0.357
 20
0.248
 30
0.0
 10
0.357
 20
0.502
 30
0.0
 10
0.357
 20
0.502
 30
0.0
  0
LWPOLYLINE
  5
84
330
1F
100
AcDbEntity
  8
Layer 1
 62
     5
370
    53
100
AcDbPolyline
 90
        5
 70
     1
 43
0.0
 10
1.7165
 20
0.3375
 10
1.7915
 20
0.3375
 10
1.7915
 20
0.4125
 10
1.7165
 20
0.4125
 10
1.7165
 20
0.3375
  0
LWPOLYLINE
  5
85
330
1F
100
AcDbEntity
  8
Layer 1
 62
     5
370
    53
100
AcDbPolyline
 90
        5
 70
     1
 43
0.0
 10
1.9705
 20
0.3375
 10
2.0455
 20
0.3375
 10
2.0455
 20
0.4125
 10
1.9705
 20
0.4125
 10
1.9705
 20
0.3375
  0
LWPOLYLINE
  5
86
330
1F
100
AcDbEntity
  8
Layer 1
370
    53
100
AcDbPolyline
 90
        5
 70
     1
 43
0.0
 10
0.7005
 20
0.3375
 10
0.7755
 20
0.3375
 10
0.7755
 20
0.4125
 10
0.7005
 20
0.4125
 10
0.7005
 20
0.3375
  0
LWPOLYLINE
  5
87
330
1F
100
AcDbEntity
  8
Layer 1
370
    53
100
AcDbPolyline
 90
        5
 70
     1
 43
0.0
 10
1.4625
 20
-1.1625
 10
1.5375
 20
-1.1625
 10
1.5375
 20
-1.0875
 10
1.4625
 20
-1.0875
 10
1.4625
 20
-1.1625
  0
LWPOLYLINE
  5
88
330
1F
100
AcDbEntity
  8
Layer 1
370
    53
100
AcDbPolyline
 90
        5
 70
     1
 43
0.0
 10
1.2085
 20
-1.1625
 10
1.2835
 20
-1.1625
 10
1.2835
 20
-1.0875
 10
1.2085
 20
-1.0875
 10
1.2085
 20
-1.1625
  0
LWPOLYLINE
  5
89
330
1F
100
AcDbEntity
  8
Layer 1
370
    53
100
AcDbPolyline
 90
        5
 70
     1
 43
0.0
 10
0.9545
 20
-1.1625
 10
1.0295
 20
-1.1625
 10
1.0295
 20
-1.0875
 10
0.9545
 20
-1.0875
 10
0.9545
 20
-1.1625
  0
LWPOLYLINE
  5
8A
330
1F
100
AcDbEntity
  8
Layer 1
 62
     5
370
    53
100
AcDbPolyline
 90
        5
 70
     1
 43
0.0
 10
0.611
 20
-1.252
 10
2.135
 20
-1.252
 10
2.135
 20
-0.998
 10
0.611
 20
-0.998
 10
0.611
 20
-1.252
  0
LWPOLYLINE
  5
8B
330
1F
100
AcDbEntity
  8
Layer 1
370
    53
100
AcDbPolyline
 90
        5
 70
     1
 43
0.0
 10
1.7165
 20
-1.1625
 10
1.7915
 20
-1.1625
 10
1.7915
 20
-1.0875
 10
1.7165
 20
-1.0875
 10
1.7165
 20
-1.1625
  0
LWPOLYLINE
  5
8C
330
1F
100
AcDbEntity
  8
Layer 1
 62
     5
370
    53
100
AcDbPolyline
 90
        5
 70
     1
 43
0.0
 10
1.9705
 20
-1.1625
 10
2.0455
 20
-1.1625
 10
2.0455
 20
-1.0875
 10
1.9705
 20
-1.0875
 10
1.9705
 20
-1.1625
  0
LWPOLYLINE
  5
8D
330
1F
100
AcDbEntity
  8
Layer 1
 62
     5
370
    53
100
AcDbPolyline
 90
        5
 70
     1
 43
0.0
 10
0.7005
 20
-1.1625
 10
0.7755
 20
-1.1625
 10
0.7755
 20
-1.0875
 10
0.7005
 20
-1.0875
 10
0.7005
 20
-1.1625
  0
SPLINE
  5
8E
330
1F
100
AcDbEntity
  8
Layer 1
 62
     5
370
     9
100
AcDbSpline
210
0.0
220
0.0
230
1.0
 70
    11
 71
     3
 72
    20
 73
    16
 74
     0
 42
0.0000000001
 43
0.0000000001
 12
1.0
 22
0.0
 32
0.0
 13
1.0
 23
0.0
 33
0.0
 40
0.0
 40
0.0
 40
0.0
 40
0.0
 40
0.2
 40
0.2
 40
0.2
 40
0.2
 40
0.4
 40
0.4
 40
0.4
 40
0.4
 40
0.6
 40
0.6
 40
0.6
 40
0.6
 40
1.0
 40
1.0
 40
1.0
 40
1.0
 10
1.08558
 20
-0.50881
 30
0.0
 10
1.08558
 20
-0.50881
 30
0.0
 10
1.08558
 20
-0.17226
 30
0.0
 10
1.08558
 20
-0.17226
 30
0.0
 10
1.08558
 20
-0.17226
 30
0.0
 10
1.08558
 20
-0.17226
 30
0.0
 10
1.14654
 20
-0.17226
 30
0.0
 10
1.14654
 20
-0.17226
 30
0.0
 10
1.14654
 20
-0.17226
 30
0.0
 10
1.14654
 20
-0.17226
 30
0.0
 10
1.14654
 20
-0.50881
 30
0.0
 10
1.14654
 20
-0.50881
 30
0.0
 10
1.14654
 20
-0.50881
 30
0.0
 10
1.14654
 20
-0.50881
 30
0.0
 10
1.08558
 20
-0.50881
 30
0.0
 10
1.08558
 20
-0.50881
 30
0.0
  0
SPLINE
  5
8F
330
1F
100
AcDbEntity
  8
Layer 1
 62
     5
370
     9
100
AcDbSpline
210
0.0
220
0.0
230
1.0
 70
    11
 71
     3
 72
    20
 73
    16
 74
     0
 42
0.0000000001
 43
0.0000000001
 12
1.0
 22
0.0
 32
0.0
 13
1.0
 23
0.0
 33
0.0
 40
0.0
 40
0.0
 40
0.0
 40
0.0
 40
0.2
 40
0.2
 40
0.2
 40
0.2
 40
0.4
 40
0.4
 40
0.4
 40
0.4
 40
0.6
 40
0.6
 40
0.6
 40
0.6
 40
1.0
 40
1.0
 40
1.0
 40
1.0
 10
1.08558
 20
-0.11066
 30
0.0
 10
1.08558
 20
-0.11066
 30
0.0
 10
1.08558
 20
-0.0497
 30
0.0
 10
1.08558
 20
-0.0497
 30
0.0
 10
1.08558
 20
-0.0497
 30
0.0
 10
1.08558
 20
-0.0497
 30
0.0
 10
1.14654
 20
-0.0497
 30
0.0
 10
1.14654
 20
-0.0497
 30
0.0
 10
1.14654
 20
-0.0497
 30
0.0
 10
1.14654
 20
-0.0497
 30
0.0
 10
1.14654
 20
-0.11066
 30
0.0
 10
1.14654
 20
-0.11066
 30
0.0
 10
1.14654
 20
-0.11066
 30
0.0
 10
1.14654
 20
-0.11066
 30
0.0
 10
1.08558
 20
-0.11066
 30
0.0
 10
1.08558
 20
-0.11066
 30
0.0
  0
SPLINE
  5
90
330
1F
100
AcDbEntity
  8
Layer 1
 62
     5
370
     9
100
AcDbSpline
210
0.0
220
0.0
230
1.0
 70
    11
 71
     3
 72
    76
 73
    72
 74
     0
 42
0.0000000001
 43
0.0000000001
 12
1.0
 22
0.0
 32
0.0
 13
1.0
 23
0.0
 33
0.0
 40
0.0
 40
0.0
 40
0.0
 40
0.0
 40
0.0526315789473684
 40
0.0526315789473684
 40
0.0526315789473684
 40
0.0526315789473684
 40
0.1052631578947368
 40
0.1052631578947368
 40
0.1052631578947368
 40
0.1052631578947368
 40
0.1578947368421053
 40
0.1578947368421053
 40
0.1578947368421053
 40
0.1578947368421053
 40
0.2105263157894737
 40
0.2105263157894737
 40
0.2105263157894737
 40
0.2105263157894737
 40
0.2631578947368421
 40
0.2631578947368421
 40
0.2631578947368421
 40
0.2631578947368421
 40
0.3157894736842105
 40
0.3157894736842105
 40
0.3157894736842105
 40
0.3157894736842105
 40
0.3684210526315789
 40
0.3684210526315789
 40
0.3684210526315789
 40
0.3684210526315789
 40
0.4210526315789473
 40
0.4210526315789473
 40
0.4210526315789473
 40
0.4210526315789473
 40
0.4736842105263158
 40
0.4736842105263158
 40
0.4736842105263158
 40
0.4736842105263158
 40
0.5263157894736842
 40
0.5263157894736842
 40
0.5263157894736842
 40
0.5263157894736842
 40
0.5789473684210527
 40
0.5789473684210527
 40
0.5789473684210527
 40
0.5789473684210527
 40
0.631578947368421
 40
0.631578947368421
 40
0.631578947368421
 40
0.631578947368421
 40
0.6842105263157895
 40
0.6842105263157895
 40
0.6842105263157895
 40
0.6842105263157895
 40
0.7368421052631579
 40
0.7368421052631579
 40
0.7368421052631579
 40
0.7368421052631579
 40
0.7894736842105263
 40
0.7894736842105263
 40
0.7894736842105263
 40
0.7894736842105263
 40
0.8421052631578947
 40
0.8421052631578947
 40
0.8421052631578947
 40
0.8421052631578947
 40
0.8947368421052632
 40
0.8947368421052632
 40
0.8947368421052632
 40
0.8947368421052632
 40
1.0
 40
1.0
 40
1.0
 40
1.0
 10
1.26085
 20
-0.50881
 30
0.0
 10
1.26085
 20
-0.50881
 30
0.0
 10
1.26085
 20
-0.45547
 30
0.0
 10
1.26085
 20
-0.45547
 30
0.0
 10
1.26085
 20
-0.45547
 30
0.0
 10
1.27863
 20
-0.41388
 30
0.0
 10
1.3145
 20
-0.36847
 30
0.0
 10
1.36858
 20
-0.31947
 30
0.0
 10
1.36858
 20
-0.31947
 30
0.0
 10
1.36858
 20
-0.31947
 30
0.0
 10
1.40351
 20
-0.28815
 30
0.0
 10
1.40351
 20
-0.28815
 30
0.0
 10
1.40351
 20
-0.28815
 30
0.0
 10
1.44849
 20
-0.2473
 30
0.0
 10
1.47103
 20
-0.20687
 30
0.0
 10
1.47103
 20
-0.16665
 30
0.0
 10
1.47103
 20
-0.16665
 30
0.0
 10
1.47103
 20
-0.14093
 30
0.0
 10
1.4633
 20
-0.12082
 30
0.0
 10
1.44796
 20
-0.10611
 30
0.0
 10
1.44796
 20
-0.10611
 30
0.0
 10
1.43261
 20
-0.0914
 30
0.0
 10
1.41134
 20
-0.08399
 30
0.0
 10
1.38435
 20
-0.08399
 30
0.0
 10
1.38435
 20
-0.08399
 30
0.0
 10
1.35281
 20
-0.08399
 30
0.0
 10
1.31546
 20
-0.09606
 30
0.0
 10
1.27228
 20
-0.12019
 30
0.0
 10
1.27228
 20
-0.12019
 30
0.0
 10
1.27228
 20
-0.12019
 30
0.0
 10
1.27228
 20
-0.06685
 30
0.0
 10
1.27228
 20
-0.06685
 30
0.0
 10
1.27228
 20
-0.06685
 30
0.0
 10
1.31302
 20
-0.0478
 30
0.0
 10
1.35356
 20
-0.03827
 30
0.0
 10
1.39398
 20
-0.03827
 30
0.0
 10
1.39398
 20
-0.03827
 30
0.0
 10
1.43695
 20
-0.03827
 30
0.0
 10
1.47145
 20
-0.04981
 30
0.0
 10
1.49749
 20
-0.07299
 30
0.0
 10
1.49749
 20
-0.07299
 30
0.0
 10
1.52342
 20
-0.09617
 30
0.0
 10
1.53644
 20
-0.12686
 30
0.0
 10
1.53644
 20
-0.16517
 30
0.0
 10
1.53644
 20
-0.16517
 30
0.0
 10
1.53644
 20
-0.19269
 30
0.0
 10
1.52987
 20
-0.21713
 30
0.0
 10
1.51675
 20
-0.23841
 30
0.0
 10
1.51675
 20
-0.23841
 30
0.0
 10
1.50352
 20
-0.25978
 30
0.0
 10
1.47907
 20
-0.28561
 30
0.0
 10
1.4432
 20
-0.31609
 30
0.0
 10
1.4432
 20
-0.31609
 30
0.0
 10
1.4432
 20
-0.31609
 30
0.0
 10
1.4196
 20
-0.3362
 30
0.0
 10
1.4196
 20
-0.3362
 30
0.0
 10
1.4196
 20
-0.3362
 30
0.0
 10
1.37049
 20
-0.37779
 30
0.0
 10
1.34213
 20
-0.41758
 30
0.0
 10
1.33451
 20
-0.45547
 30
0.0
 10
1.33451
 20
-0.45547
 30
0.0
 10
1.33451
 20
-0.45547
 30
0.0
 10
1.53453
 20
-0.45547
 30
0.0
 10
1.53453
 20
-0.45547
 30
0.0
 10
1.53453
 20
-0.45547
 30
0.0
 10
1.53453
 20
-0.45547
 30
0.0
 10
1.53453
 20
-0.50881
 30
0.0
 10
1.53453
 20
-0.50881
 30
0.0
 10
1.53453
 20
-0.50881
 30
0.0
 10
1.53453
 20
-0.50881
 30
0.0
 10
1.26085
 20
-0.50881
 30
0.0
 10
1.26085
 20
-0.50881
 30
0.0
  0
SPLINE
  5
91
330
1F
100
AcDbEntity
  8
Layer 1
 62
     5
370
     9
100
AcDbSpline
210
0.0
220
0.0
230
1.0
 70
    11
 71
     3
 72
    60
 73
    56
 74
     0
 42
0.0000000001
 43
0.0000000001
 12
1.0
 22
0.0
 32
0.0
 13
1.0
 23
0.0
 33
0.0
 40
0.0
 40
0.0
 40
0.0
 40
0.0
 40
0.0666666666666667
 40
0.0666666666666667
 40
0.0666666666666667
 40
0.0666666666666667
 40
0.1333333333333333
 40
0.1333333333333333
 40
0.1333333333333333
 40
0.1333333333333333
 40
0.2
 40
0.2
 40
0.2
 40
0.2
 40
0.2666666666666667
 40
0.2666666666666667
 40
0.2666666666666667
 40
0.2666666666666667
 40
0.3333333333333333
 40
0.3333333333333333
 40
0.3333333333333333
 40
0.3333333333333333
 40
0.4
 40
0.4
 40
0.4
 40
0.4
 40
0.4666666666666667
 40
0.4666666666666667
 40
0.4666666666666667
 40
0.4666666666666667
 40
0.5333333333333333
 40
0.5333333333333333
 40
0.5333333333333333
 40
0.5333333333333333
 40
0.6
 40
0.6
 40
0.6
 40
0.6
 40
0.6666666666666666
 40
0.6666666666666666
 40
0.6666666666666666
 40
0.6666666666666666
 40
0.7333333333333333
 40
0.7333333333333333
 40
0.7333333333333333
 40
0.7333333333333333
 40
0.8
 40
0.8
 40
0.8
 40
0.8
 40
0.8666666666666667
 40
0.8666666666666667
 40
0.8666666666666667
 40
0.8666666666666667
 40
1.0
 40
1.0
 40
1.0
 40
1.0
 10
1.90431
 20
-0.49865
 30
0.0
 10
1.86483
 20
-0.5105
 30
0.0
 10
1.83076
 20
-0.51643
 30
0.0
 10
1.80208
 20
-0.51643
 30
0.0
 10
1.80208
 20
-0.51643
 30
0.0
 10
1.75657
 20
-0.51643
 30
0.0
 10
1.71889
 20
-0.4996
 30
0.0
 10
1.68894
 20
-0.46605
 30
0.0
 10
1.68894
 20
-0.46605
 30
0.0
 10
1.65899
 20
-0.4324
 30
0.0
 10
1.64396
 20
-0.38996
 30
0.0
 10
1.64396
 20
-0.33884
 30
0.0
 10
1.64396
 20
-0.33884
 30
0.0
 10
1.64396
 20
-0.28423
 30
0.0
 10
1.65878
 20
-0.24158
 30
0.0
 10
1.68841
 20
-0.2111
 30
0.0
 10
1.68841
 20
-0.2111
 30
0.0
 10
1.71804
 20
-0.18051
 30
0.0
 10
1.75942
 20
-0.16527
 30
0.0
 10
1.81255
 20
-0.16527
 30
0.0
 10
1.81255
 20
-0.16527
 30
0.0
 10
1.83869
 20
-0.16527
 30
0.0
 10
1.86812
 20
-0.16887
 30
0.0
 10
1.9005
 20
-0.17607
 30
0.0
 10
1.9005
 20
-0.17607
 30
0.0
 10
1.9005
 20
-0.17607
 30
0.0
 10
1.9005
 20
-0.2275
 30
0.0
 10
1.9005
 20
-0.2275
 30
0.0
 10
1.9005
 20
-0.2275
 30
0.0
 10
1.8661
 20
-0.21734
 30
0.0
 10
1.83806
 20
-0.21226
 30
0.0
 10
1.81647
 20
-0.21226
 30
0.0
 10
1.81647
 20
-0.21226
 30
0.0
 10
1.78514
 20
-0.21226
 30
0.0
 10
1.76006
 20
-0.22401
 30
0.0
 10
1.74133
 20
-0.2474
 30
0.0
 10
1.74133
 20
-0.2474
 30
0.0
 10
1.72259
 20
-0.27079
 30
0.0
 10
1.71318
 20
-0.30201
 30
0.0
 10
1.71318
 20
-0.34096
 30
0.0
 10
1.71318
 20
-0.34096
 30
0.0
 10
1.71318
 20
-0.37874
 30
0.0
 10
1.72291
 20
-0.40922
 30
0.0
 10
1.74228
 20
-0.43261
 30
0.0
 10
1.74228
 20
-0.43261
 30
0.0
 10
1.76165
 20
-0.45589
 30
0.0
 10
1.78694
 20
-0.46753
 30
0.0
 10
1.81837
 20
-0.46753
 30
0.0
 10
1.81837
 20
-0.46753
 30
0.0
 10
1.84621
 20
-0.46753
 30
0.0
 10
1.87478
 20
-0.46034
 30
0.0
 10
1.90431
 20
-0.44594
 30
0.0
 10
1.90431
 20
-0.44594
 30
0.0
 10
1.90431
 20
-0.44594
 30
0.0
 10
1.90431
 20
-0.49865
 30
0.0
 10
1.90431
 20
-0.49865
 30
0.0
  0
SPLINE
  5
92
330
1F
100
AcDbEntity
  8
Layer 1
 62
     5
370
     9
100
AcDbSpline
210
0.0
220
0.0
230
1.0
 70
    11
 71
     3
 72
    84
 73
    80
 74
     0
 42
0.0000000001
 43
0.0000000001
 12
1.0
 22
0.0
 32
0.0
 13
1.0
 23
0.0
 33
0.0
 40
0.0
 40
0.0
 40
0.0
 40
0.0
 40
0.0476190476190476
 40
0.0476190476190476
 40
0.0476190476190476
 40
0.0476190476190476
 40
0.0952380952380952
 40
0.0952380952380952
 40
0.0952380952380952
 40
0.0952380952380952
 40
0.1428571428571428
 40
0.1428571428571428
 40
0.1428571428571428
 40
0.1428571428571428
 40
0.1904761904761905
 40
0.1904761904761905
 40
0.1904761904761905
 40
0.1904761904761905
 40
0.2380952380952381
 40
0.2380952380952381
 40
0.2380952380952381
 40
0.2380952380952381
 40
0.2857142857142857
 40
0.2857142857142857
 40
0.2857142857142857
 40
0.2857142857142857
 40
0.3333333333333333
 40
0.3333333333333333
 40
0.3333333333333333
 40
0.3333333333333333
 40
0.3809523809523809
 40
0.3809523809523809
 40
0.3809523809523809
 40
0.3809523809523809
 40
0.4285714285714285
 40
0.4285714285714285
 40
0.4285714285714285
 40
0.4285714285714285
 40
0.4761904761904762
 40
0.4761904761904762
 40
0.4761904761904762
 40
0.4761904761904762
 40
0.5238095238095238
 40
0.5238095238095238
 40
0.5238095238095238
 40
0.5238095238095238
 40
0.5714285714285714
 40
0.5714285714285714
 40
0.5714285714285714
 40
0.5714285714285714
 40
0.6190476190476191
 40
0.6190476190476191
 40
0.6190476190476191
 40
0.6190476190476191
 40
0.6666666666666666
 40
0.6666666666666666
 40
0.6666666666666666
 40
0.6666666666666666
 40
0.7142857142857143
 40
0.7142857142857143
 40
0.7142857142857143
 40
0.7142857142857143
 40
0.7619047619047619
 40
0.7619047619047619
 40
0.7619047619047619
 40
0.7619047619047619
 40
0.8095238095238095
 40
0.8095238095238095
 40
0.8095238095238095
 40
0.8095238095238095
 40
0.8571428571428571
 40
0.8571428571428571
 40
0.8571428571428571
 40
0.8571428571428571
 40
0.9047619047619048
 40
0.9047619047619048
 40
0.9047619047619048
 40
0.9047619047619048
 40
1.0
 40
1.0
 40
1.0
 40
1.0
 10
0.25543
 20
-1.78659
 30
0.0
 10
0.25543
 20
-1.78659
 30
0.0
 10
0.25543
 20
-1.59962
 30
0.0
 10
0.25543
 20
-1.59962
 30
0.0
 10
0.25543
 20
-1.59962
 30
0.0
 10
0.25543
 20
-1.59962
 30
0.0
 10
0.28929
 20
-1.59962
 30
0.0
 10
0.28929
 20
-1.59962
 30
0.0
 10
0.28929
 20
-1.59962
 30
0.0
 10
0.28929
 20
-1.59962
 30
0.0
 10
0.28929
 20
-1.63495
 30
0.0
 10
0.28929
 20
-1.63495
 30
0.0
 10
0.28929
 20
-1.63495
 30
0.0
 10
0.30582
 20
-1.60879
 30
0.0
 10
0.32698
 20
-1.59574
 30
0.0
 10
0.35291
 20
-1.59574
 30
0.0
 10
0.35291
 20
-1.59574
 30
0.0
 10
0.3779
 20
-1.59574
 30
0.0
 10
0.39489
 20
-1.60879
 30
0.0
 10
0.40395
 20
-1.63495
 30
0.0
 10
0.40395
 20
-1.63495
 30
0.0
 10
0.42
 20
-1.60855
 30
0.0
 10
0.44093
 20
-1.59538
 30
0.0
 10
0.46662
 20
-1.59538
 30
0.0
 10
0.46662
 20
-1.59538
 30
0.0
 10
0.48303
 20
-1.59538
 30
0.0
 10
0.49579
 20
-1.6002
 30
0.0
 10
0.50489
 20
-1.60991
 30
0.0
 10
0.50489
 20
-1.60991
 30
0.0
 10
0.514
 20
-1.61961
 30
0.0
 10
0.51859
 20
-1.63319
 30
0.0
 10
0.51859
 20
-1.65065
 30
0.0
 10
0.51859
 20
-1.65065
 30
0.0
 10
0.51859
 20
-1.65065
 30
0.0
 10
0.51859
 20
-1.78659
 30
0.0
 10
0.51859
 20
-1.78659
 30
0.0
 10
0.51859
 20
-1.78659
 30
0.0
 10
0.51859
 20
-1.78659
 30
0.0
 10
0.48473
 20
-1.78659
 30
0.0
 10
0.48473
 20
-1.78659
 30
0.0
 10
0.48473
 20
-1.78659
 30
0.0
 10
0.48473
 20
-1.78659
 30
0.0
 10
0.48473
 20
-1.65624
 30
0.0
 10
0.48473
 20
-1.65624
 30
0.0
 10
0.48473
 20
-1.65624
 30
0.0
 10
0.48473
 20
-1.63495
 30
0.0
 10
0.47627
 20
-1.62431
 30
0.0
 10
0.45933
 20
-1.62431
 30
0.0
 10
0.45933
 20
-1.62431
 30
0.0
 10
0.44175
 20
-1.62431
 30
0.0
 10
0.42329
 20
-1.63672
 30
0.0
 10
0.40395
 20
-1.66159
 30
0.0
 10
0.40395
 20
-1.66159
 30
0.0
 10
0.40395
 20
-1.66159
 30
0.0
 10
0.40395
 20
-1.78659
 30
0.0
 10
0.40395
 20
-1.78659
 30
0.0
 10
0.40395
 20
-1.78659
 30
0.0
 10
0.40395
 20
-1.78659
 30
0.0
 10
0.37008
 20
-1.78659
 30
0.0
 10
0.37008
 20
-1.78659
 30
0.0
 10
0.37008
 20
-1.78659
 30
0.0
 10
0.37008
 20
-1.78659
 30
0.0
 10
0.37008
 20
-1.65612
 30
0.0
 10
0.37008
 20
-1.65612
 30
0.0
 10
0.37008
 20
-1.65612
 30
0.0
 10
0.37008
 20
-1.63466
 30
0.0
 10
0.3615
 20
-1.62396
 30
0.0
 10
0.34427
 20
-1.62396
 30
0.0
 10
0.34427
 20
-1.62396
 30
0.0
 10
0.32716
 20
-1.62396
 30
0.0
 10
0.30881
 20
-1.63642
 30
0.0
 10
0.28929
 20
-1.66141
 30
0.0
 10
0.28929
 20
-1.66141
 30
0.0
 10
0.28929
 20
-1.66141
 30
0.0
 10
0.28929
 20
-1.78659
 30
0.0
 10
0.28929
 20
-1.78659
 30
0.0
 10
0.28929
 20
-1.78659
 30
0.0
 10
0.28929
 20
-1.78659
 30
0.0
 10
0.25543
 20
-1.78659
 30
0.0
 10
0.25543
 20
-1.78659
 30
0.0
  0
SPLINE
  5
93
330
1F
100
AcDbEntity
  8
Layer 1
 62
     5
370
     9
100
AcDbSpline
210
0.0
220
0.0
230
1.0
 70
    11
 71
     3
 72
    36
 73
    32
 74
     0
 42
0.0000000001
 43
0.0000000001
 12
1.0
 22
0.0
 32
0.0
 13
1.0
 23
0.0
 33
0.0
 40
0.0
 40
0.0
 40
0.0
 40
0.0
 40
0.1111111111111111
 40
0.1111111111111111
 40
0.1111111111111111
 40
0.1111111111111111
 40
0.2222222222222222
 40
0.2222222222222222
 40
0.2222222222222222
 40
0.2222222222222222
 40
0.3333333333333333
 40
0.3333333333333333
 40
0.3333333333333333
 40
0.3333333333333333
 40
0.4444444444444444
 40
0.4444444444444444
 40
0.4444444444444444
 40
0.4444444444444444
 40
0.5555555555555556
 40
0.5555555555555556
 40
0.5555555555555556
 40
0.5555555555555556
 40
0.6666666666666666
 40
0.6666666666666666
 40
0.6666666666666666
 40
0.6666666666666666
 40
0.7777777777777778
 40
0.7777777777777778
 40
0.7777777777777778
 40
0.7777777777777778
 40
1.0
 40
1.0
 40
1.0
 40
1.0
 10
0.65924
 20
-1.79082
 30
0.0
 10
0.63179
 20
-1.79082
 30
0.0
 10
0.61003
 20
-1.78206
 30
0.0
 10
0.59404
 20
-1.76454
 30
0.0
 10
0.59404
 20
-1.76454
 30
0.0
 10
0.57799
 20
-1.74702
 30
0.0
 10
0.56999
 20
-1.72321
 30
0.0
 10
0.56999
 20
-1.69316
 30
0.0
 10
0.56999
 20
-1.69316
 30
0.0
 10
0.56999
 20
-1.66318
 30
0.0
 10
0.57799
 20
-1.63942
 30
0.0
 10
0.59404
 20
-1.62196
 30
0.0
 10
0.59404
 20
-1.62196
 30
0.0
 10
0.61003
 20
-1.6045
 30
0.0
 10
0.63179
 20
-1.59574
 30
0.0
 10
0.65924
 20
-1.59574
 30
0.0
 10
0.65924
 20
-1.59574
 30
0.0
 10
0.6867
 20
-1.59574
 30
0.0
 10
0.70846
 20
-1.6045
 30
0.0
 10
0.72445
 20
-1.62196
 30
0.0
 10
0.72445
 20
-1.62196
 30
0.0
 10
0.7405
 20
-1.63942
 30
0.0
 10
0.7485
 20
-1.66318
 30
0.0
 10
0.7485
 20
-1.69316
 30
0.0
 10
0.7485
 20
-1.69316
 30
0.0
 10
0.7485
 20
-1.72321
 30
0.0
 10
0.7405
 20
-1.74702
 30
0.0
 10
0.72445
 20
-1.76454
 30
0.0
 10
0.72445
 20
-1.76454
 30
0.0
 10
0.70846
 20
-1.78206
 30
0.0
 10
0.6867
 20
-1.79082
 30
0.0
 10
0.65924
 20
-1.79082
 30
0.0
  0
SPLINE
  5
94
330
1F
100
AcDbEntity
  8
Layer 1
 62
     5
370
     9
100
AcDbSpline
210
0.0
220
0.0
230
1.0
 70
    11
 71
     3
 72
    36
 73
    32
 74
     0
 42
0.0000000001
 43
0.0000000001
 12
1.0
 22
0.0
 32
0.0
 13
1.0
 23
0.0
 33
0.0
 40
0.0
 40
0.0
 40
0.0
 40
0.0
 40
0.1111111111111111
 40
0.1111111111111111
 40
0.1111111111111111
 40
0.1111111111111111
 40
0.2222222222222222
 40
0.2222222222222222
 40
0.2222222222222222
 40
0.2222222222222222
 40
0.3333333333333333
 40
0.3333333333333333
 40
0.3333333333333333
 40
0.3333333333333333
 40
0.4444444444444444
 40
0.4444444444444444
 40
0.4444444444444444
 40
0.4444444444444444
 40
0.5555555555555556
 40
0.5555555555555556
 40
0.5555555555555556
 40
0.5555555555555556
 40
0.6666666666666666
 40
0.6666666666666666
 40
0.6666666666666666
 40
0.6666666666666666
 40
0.7777777777777778
 40
0.7777777777777778
 40
0.7777777777777778
 40
0.7777777777777778
 40
1.0
 40
1.0
 40
1.0
 40
1.0
 10
0.65918
 20
-1.76542
 30
0.0
 10
0.67594
 20
-1.76542
 30
0.0
 10
0.68899
 20
-1.75913
 30
0.0
 10
0.69828
 20
-1.74649
 30
0.0
 10
0.69828
 20
-1.74649
 30
0.0
 10
0.70752
 20
-1.73391
 30
0.0
 10
0.71216
 20
-1.71609
 30
0.0
 10
0.71216
 20
-1.69316
 30
0.0
 10
0.71216
 20
-1.69316
 30
0.0
 10
0.71216
 20
-1.67029
 30
0.0
 10
0.70752
 20
-1.65253
 30
0.0
 10
0.69828
 20
-1.63995
 30
0.0
 10
0.69828
 20
-1.63995
 30
0.0
 10
0.68899
 20
-1.62743
 30
0.0
 10
0.67594
 20
-1.62114
 30
0.0
 10
0.65918
 20
-1.62114
 30
0.0
 10
0.65918
 20
-1.62114
 30
0.0
 10
0.64237
 20
-1.62114
 30
0.0
 10
0.62932
 20
-1.62743
 30
0.0
 10
0.62014
 20
-1.63995
 30
0.0
 10
0.62014
 20
-1.63995
 30
0.0
 10
0.61091
 20
-1.65253
 30
0.0
 10
0.60633
 20
-1.67029
 30
0.0
 10
0.60633
 20
-1.69316
 30
0.0
 10
0.60633
 20
-1.69316
 30
0.0
 10
0.60633
 20
-1.71609
 30
0.0
 10
0.61091
 20
-1.73391
 30
0.0
 10
0.62014
 20
-1.74649
 30
0.0
 10
0.62014
 20
-1.74649
 30
0.0
 10
0.62932
 20
-1.75913
 30
0.0
 10
0.64237
 20
-1.76542
 30
0.0
 10
0.65918
 20
-1.76542
 30
0.0
  0
SPLINE
  5
95
330
1F
100
AcDbEntity
  8
Layer 1
 62
     5
370
     9
100
AcDbSpline
210
0.0
220
0.0
230
1.0
 70
    11
 71
     3
 72
    72
 73
    68
 74
     0
 42
0.0000000001
 43
0.0000000001
 12
1.0
 22
0.0
 32
0.0
 13
1.0
 23
0.0
 33
0.0
 40
0.0
 40
0.0
 40
0.0
 40
0.0
 40
0.0555555555555556
 40
0.0555555555555556
 40
0.0555555555555556
 40
0.0555555555555556
 40
0.1111111111111111
 40
0.1111111111111111
 40
0.1111111111111111
 40
0.1111111111111111
 40
0.1666666666666667
 40
0.1666666666666667
 40
0.1666666666666667
 40
0.1666666666666667
 40
0.2222222222222222
 40
0.2222222222222222
 40
0.2222222222222222
 40
0.2222222222222222
 40
0.2777777777777778
 40
0.2777777777777778
 40
0.2777777777777778
 40
0.2777777777777778
 40
0.3333333333333333
 40
0.3333333333333333
 40
0.3333333333333333
 40
0.3333333333333333
 40
0.3888888888888889
 40
0.3888888888888889
 40
0.3888888888888889
 40
0.3888888888888889
 40
0.4444444444444444
 40
0.4444444444444444
 40
0.4444444444444444
 40
0.4444444444444444
 40
0.5
 40
0.5
 40
0.5
 40
0.5
 40
0.5555555555555556
 40
0.5555555555555556
 40
0.5555555555555556
 40
0.5555555555555556
 40
0.6111111111111112
 40
0.6111111111111112
 40
0.6111111111111112
 40
0.6111111111111112
 40
0.6666666666666666
 40
0.6666666666666666
 40
0.6666666666666666
 40
0.6666666666666666
 40
0.7222222222222222
 40
0.7222222222222222
 40
0.7222222222222222
 40
0.7222222222222222
 40
0.7777777777777778
 40
0.7777777777777778
 40
0.7777777777777778
 40
0.7777777777777778
 40
0.8333333333333334
 40
0.8333333333333334
 40
0.8333333333333334
 40
0.8333333333333334
 40
0.8888888888888888
 40
0.8888888888888888
 40
0.8888888888888888
 40
0.8888888888888888
 40
1.0
 40
1.0
 40
1.0
 40
1.0
 10
0.88513
 20
-1.78653
 30
0.0
 10
0.87466
 20
-1.78941
 30
0.0
 10
0.86555
 20
-1.79082
 30
0.0
 10
0.85784
 20
-1.79082
 30
0.0
 10
0.85784
 20
-1.79082
 30
0.0
 10
0.84056
 20
-1.79082
 30
0.0
 10
0.82709
 20
-1.78588
 30
0.0
 10
0.81745
 20
-1.77601
 30
0.0
 10
0.81745
 20
-1.77601
 30
0.0
 10
0.80775
 20
-1.76613
 30
0.0
 10
0.80293
 20
-1.75243
 30
0.0
 10
0.80293
 20
-1.73485
 30
0.0
 10
0.80293
 20
-1.73485
 30
0.0
 10
0.80293
 20
-1.73485
 30
0.0
 10
0.80293
 20
-1.62502
 30
0.0
 10
0.80293
 20
-1.62502
 30
0.0
 10
0.80293
 20
-1.62502
 30
0.0
 10
0.80293
 20
-1.62502
 30
0.0
 10
0.77953
 20
-1.62502
 30
0.0
 10
0.77953
 20
-1.62502
 30
0.0
 10
0.77953
 20
-1.62502
 30
0.0
 10
0.77953
 20
-1.62502
 30
0.0
 10
0.77953
 20
-1.59962
 30
0.0
 10
0.77953
 20
-1.59962
 30
0.0
 10
0.77953
 20
-1.59962
 30
0.0
 10
0.77953
 20
-1.59962
 30
0.0
 10
0.80293
 20
-1.59962
 30
0.0
 10
0.80293
 20
-1.59962
 30
0.0
 10
0.80293
 20
-1.59962
 30
0.0
 10
0.80293
 20
-1.59962
 30
0.0
 10
0.80293
 20
-1.56581
 30
0.0
 10
0.80293
 20
-1.56581
 30
0.0
 10
0.80293
 20
-1.56581
 30
0.0
 10
0.80293
 20
-1.56581
 30
0.0
 10
0.83679
 20
-1.56257
 30
0.0
 10
0.83679
 20
-1.56257
 30
0.0
 10
0.83679
 20
-1.56257
 30
0.0
 10
0.83679
 20
-1.56257
 30
0.0
 10
0.83679
 20
-1.59962
 30
0.0
 10
0.83679
 20
-1.59962
 30
0.0
 10
0.83679
 20
-1.59962
 30
0.0
 10
0.83679
 20
-1.59962
 30
0.0
 10
0.88583
 20
-1.59962
 30
0.0
 10
0.88583
 20
-1.59962
 30
0.0
 10
0.88583
 20
-1.59962
 30
0.0
 10
0.88583
 20
-1.59962
 30
0.0
 10
0.88583
 20
-1.62502
 30
0.0
 10
0.88583
 20
-1.62502
 30
0.0
 10
0.88583
 20
-1.62502
 30
0.0
 10
0.88583
 20
-1.62502
 30
0.0
 10
0.83679
 20
-1.62502
 30
0.0
 10
0.83679
 20
-1.62502
 30
0.0
 10
0.83679
 20
-1.62502
 30
0.0
 10
0.83679
 20
-1.62502
 30
0.0
 10
0.83679
 20
-1.72873
 30
0.0
 10
0.83679
 20
-1.72873
 30
0.0
 10
0.83679
 20
-1.72873
 30
0.0
 10
0.83679
 20
-1.75319
 30
0.0
 10
0.84744
 20
-1.76542
 30
0.0
 10
0.86866
 20
-1.76542
 30
0.0
 10
0.86866
 20
-1.76542
 30
0.0
 10
0.87319
 20
-1.76542
 30
0.0
 10
0.87866
 20
-1.76466
 30
0.0
 10
0.88513
 20
-1.76319
 30
0.0
 10
0.88513
 20
-1.76319
 30
0.0
 10
0.88513
 20
-1.76319
 30
0.0
 10
0.88513
 20
-1.78653
 30
0.0
 10
0.88513
 20
-1.78653
 30
0.0
  0
SPLINE
  5
96
330
1F
100
AcDbEntity
  8
Layer 1
 62
     5
370
     9
100
AcDbSpline
210
0.0
220
0.0
230
1.0
 70
    11
 71
     3
 72
    36
 73
    32
 74
     0
 42
0.0000000001
 43
0.0000000001
 12
1.0
 22
0.0
 32
0.0
 13
1.0
 23
0.0
 33
0.0
 40
0.0
 40
0.0
 40
0.0
 40
0.0
 40
0.1111111111111111
 40
0.1111111111111111
 40
0.1111111111111111
 40
0.1111111111111111
 40
0.2222222222222222
 40
0.2222222222222222
 40
0.2222222222222222
 40
0.2222222222222222
 40
0.3333333333333333
 40
0.3333333333333333
 40
0.3333333333333333
 40
0.3333333333333333
 40
0.4444444444444444
 40
0.4444444444444444
 40
0.4444444444444444
 40
0.4444444444444444
 40
0.5555555555555556
 40
0.5555555555555556
 40
0.5555555555555556
 40
0.5555555555555556
 40
0.6666666666666666
 40
0.6666666666666666
 40
0.6666666666666666
 40
0.6666666666666666
 40
0.7777777777777778
 40
0.7777777777777778
 40
0.7777777777777778
 40
0.7777777777777778
 40
1.0
 40
1.0
 40
1.0
 40
1.0
 10
1.00789
 20
-1.79082
 30
0.0
 10
0.98044
 20
-1.79082
 30
0.0
 10
0.95868
 20
-1.78206
 30
0.0
 10
0.94269
 20
-1.76454
 30
0.0
 10
0.94269
 20
-1.76454
 30
0.0
 10
0.92664
 20
-1.74702
 30
0.0
 10
0.91864
 20
-1.72321
 30
0.0
 10
0.91864
 20
-1.69316
 30
0.0
 10
0.91864
 20
-1.69316
 30
0.0
 10
0.91864
 20
-1.66318
 30
0.0
 10
0.92664
 20
-1.63942
 30
0.0
 10
0.94269
 20
-1.62196
 30
0.0
 10
0.94269
 20
-1.62196
 30
0.0
 10
0.95868
 20
-1.6045
 30
0.0
 10
0.98044
 20
-1.59574
 30
0.0
 10
1.00789
 20
-1.59574
 30
0.0
 10
1.00789
 20
-1.59574
 30
0.0
 10
1.03535
 20
-1.59574
 30
0.0
 10
1.05711
 20
-1.6045
 30
0.0
 10
1.0731
 20
-1.62196
 30
0.0
 10
1.0731
 20
-1.62196
 30
0.0
 10
1.08915
 20
-1.63942
 30
0.0
 10
1.09715
 20
-1.66318
 30
0.0
 10
1.09715
 20
-1.69316
 30
0.0
 10
1.09715
 20
-1.69316
 30
0.0
 10
1.09715
 20
-1.72321
 30
0.0
 10
1.08915
 20
-1.74702
 30
0.0
 10
1.0731
 20
-1.76454
 30
0.0
 10
1.0731
 20
-1.76454
 30
0.0
 10
1.05711
 20
-1.78206
 30
0.0
 10
1.03535
 20
-1.79082
 30
0.0
 10
1.00789
 20
-1.79082
 30
0.0
  0
SPLINE
  5
97
330
1F
100
AcDbEntity
  8
Layer 1
 62
     5
370
     9
100
AcDbSpline
210
0.0
220
0.0
230
1.0
 70
    11
 71
     3
 72
    36
 73
    32
 74
     0
 42
0.0000000001
 43
0.0000000001
 12
1.0
 22
0.0
 32
0.0
 13
1.0
 23
0.0
 33
0.0
 40
0.0
 40
0.0
 40
0.0
 40
0.0
 40
0.1111111111111111
 40
0.1111111111111111
 40
0.1111111111111111
 40
0.1111111111111111
 40
0.2222222222222222
 40
0.2222222222222222
 40
0.2222222222222222
 40
0.2222222222222222
 40
0.3333333333333333
 40
0.3333333333333333
 40
0.3333333333333333
 40
0.3333333333333333
 40
0.4444444444444444
 40
0.4444444444444444
 40
0.4444444444444444
 40
0.4444444444444444
 40
0.5555555555555556
 40
0.5555555555555556
 40
0.5555555555555556
 40
0.5555555555555556
 40
0.6666666666666666
 40
0.6666666666666666
 40
0.6666666666666666
 40
0.6666666666666666
 40
0.7777777777777778
 40
0.7777777777777778
 40
0.7777777777777778
 40
0.7777777777777778
 40
1.0
 40
1.0
 40
1.0
 40
1.0
 10
1.00783
 20
-1.76542
 30
0.0
 10
1.02459
 20
-1.76542
 30
0.0
 10
1.03764
 20
-1.75913
 30
0.0
 10
1.04693
 20
-1.74649
 30
0.0
 10
1.04693
 20
-1.74649
 30
0.0
 10
1.05617
 20
-1.73391
 30
0.0
 10
1.06081
 20
-1.71609
 30
0.0
 10
1.06081
 20
-1.69316
 30
0.0
 10
1.06081
 20
-1.69316
 30
0.0
 10
1.06081
 20
-1.67029
 30
0.0
 10
1.05617
 20
-1.65253
 30
0.0
 10
1.04693
 20
-1.63995
 30
0.0
 10
1.04693
 20
-1.63995
 30
0.0
 10
1.03764
 20
-1.62743
 30
0.0
 10
1.02459
 20
-1.62114
 30
0.0
 10
1.00783
 20
-1.62114
 30
0.0
 10
1.00783
 20
-1.62114
 30
0.0
 10
0.99102
 20
-1.62114
 30
0.0
 10
0.97797
 20
-1.62743
 30
0.0
 10
0.96879
 20
-1.63995
 30
0.0
 10
0.96879
 20
-1.63995
 30
0.0
 10
0.95956
 20
-1.65253
 30
0.0
 10
0.95498
 20
-1.67029
 30
0.0
 10
0.95498
 20
-1.69316
 30
0.0
 10
0.95498
 20
-1.69316
 30
0.0
 10
0.95498
 20
-1.71609
 30
0.0
 10
0.95956
 20
-1.73391
 30
0.0
 10
0.96879
 20
-1.74649
 30
0.0
 10
0.96879
 20
-1.74649
 30
0.0
 10
0.97797
 20
-1.75913
 30
0.0
 10
0.99102
 20
-1.76542
 30
0.0
 10
1.00783
 20
-1.76542
 30
0.0
  0
SPLINE
  5
98
330
1F
100
AcDbEntity
  8
Layer 1
 62
     5
370
     9
100
AcDbSpline
210
0.0
220
0.0
230
1.0
 70
    11
 71
     3
 72
    44
 73
    40
 74
     0
 42
0.0000000001
 43
0.0000000001
 12
1.0
 22
0.0
 32
0.0
 13
1.0
 23
0.0
 33
0.0
 40
0.0
 40
0.0
 40
0.0
 40
0.0
 40
0.0909090909090909
 40
0.0909090909090909
 40
0.0909090909090909
 40
0.0909090909090909
 40
0.1818181818181818
 40
0.1818181818181818
 40
0.1818181818181818
 40
0.1818181818181818
 40
0.2727272727272727
 40
0.2727272727272727
 40
0.2727272727272727
 40
0.2727272727272727
 40
0.3636363636363636
 40
0.3636363636363636
 40
0.3636363636363636
 40
0.3636363636363636
 40
0.4545454545454545
 40
0.4545454545454545
 40
0.4545454545454545
 40
0.4545454545454545
 40
0.5454545454545454
 40
0.5454545454545454
 40
0.5454545454545454
 40
0.5454545454545454
 40
0.6363636363636364
 40
0.6363636363636364
 40
0.6363636363636364
 40
0.6363636363636364
 40
0.7272727272727273
 40
0.7272727272727273
 40
0.7272727272727273
 40
0.7272727272727273
 40
0.8181818181818182
 40
0.8181818181818182
 40
0.8181818181818182
 40
0.8181818181818182
 40
1.0
 40
1.0
 40
1.0
 40
1.0
 10
1.15018
 20
-1.78659
 30
0.0
 10
1.15018
 20
-1.78659
 30
0.0
 10
1.15018
 20
-1.59962
 30
0.0
 10
1.15018
 20
-1.59962
 30
0.0
 10
1.15018
 20
-1.59962
 30
0.0
 10
1.15018
 20
-1.59962
 30
0.0
 10
1.18404
 20
-1.59962
 30
0.0
 10
1.18404
 20
-1.59962
 30
0.0
 10
1.18404
 20
-1.59962
 30
0.0
 10
1.18404
 20
-1.59962
 30
0.0
 10
1.18404
 20
-1.63495
 30
0.0
 10
1.18404
 20
-1.63495
 30
0.0
 10
1.18404
 20
-1.63495
 30
0.0
 10
1.19751
 20
-1.60879
 30
0.0
 10
1.21703
 20
-1.59574
 30
0.0
 10
1.24266
 20
-1.59574
 30
0.0
 10
1.24266
 20
-1.59574
 30
0.0
 10
1.24613
 20
-1.59574
 30
0.0
 10
1.24978
 20
-1.59603
 30
0.0
 10
1.25354
 20
-1.59662
 30
0.0
 10
1.25354
 20
-1.59662
 30
0.0
 10
1.25354
 20
-1.59662
 30
0.0
 10
1.25354
 20
-1.62831
 30
0.0
 10
1.25354
 20
-1.62831
 30
0.0
 10
1.25354
 20
-1.62831
 30
0.0
 10
1.24766
 20
-1.62637
 30
0.0
 10
1.24249
 20
-1.62537
 30
0.0
 10
1.23802
 20
-1.62537
 30
0.0
 10
1.23802
 20
-1.62537
 30
0.0
 10
1.2165
 20
-1.62537
 30
0.0
 10
1.19851
 20
-1.63807
 30
0.0
 10
1.18404
 20
-1.66353
 30
0.0
 10
1.18404
 20
-1.66353
 30
0.0
 10
1.18404
 20
-1.66353
 30
0.0
 10
1.18404
 20
-1.78659
 30
0.0
 10
1.18404
 20
-1.78659
 30
0.0
 10
1.18404
 20
-1.78659
 30
0.0
 10
1.18404
 20
-1.78659
 30
0.0
 10
1.15018
 20
-1.78659
 30
0.0
 10
1.15018
 20
-1.78659
 30
0.0
  0
SPLINE
  5
99
330
1F
100
AcDbEntity
  8
Layer 1
 62
     5
370
     9
100
AcDbSpline
210
0.0
220
0.0
230
1.0
 70
    11
 71
     3
 72
    20
 73
    16
 74
     0
 42
0.0000000001
 43
0.0000000001
 12
1.0
 22
0.0
 32
0.0
 13
1.0
 23
0.0
 33
0.0
 40
0.0
 40
0.0
 40
0.0
 40
0.0
 40
0.2
 40
0.2
 40
0.2
 40
0.2
 40
0.4
 40
0.4
 40
0.4
 40
0.4
 40
0.6
 40
0.6
 40
0.6
 40
0.6
 40
1.0
 40
1.0
 40
1.0
 40
1.0
 10
1.27547
 20
-1.81199
 30
0.0
 10
1.27547
 20
-1.81199
 30
0.0
 10
1.27547
 20
-1.78659
 30
0.0
 10
1.27547
 20
-1.78659
 30
0.0
 10
1.27547
 20
-1.78659
 30
0.0
 10
1.27547
 20
-1.78659
 30
0.0
 10
1.42222
 20
-1.78659
 30
0.0
 10
1.42222
 20
-1.78659
 30
0.0
 10
1.42222
 20
-1.78659
 30
0.0
 10
1.42222
 20
-1.78659
 30
0.0
 10
1.42222
 20
-1.81199
 30
0.0
 10
1.42222
 20
-1.81199
 30
0.0
 10
1.42222
 20
-1.81199
 30
0.0
 10
1.42222
 20
-1.81199
 30
0.0
 10
1.27547
 20
-1.81199
 30
0.0
 10
1.27547
 20
-1.81199
 30
0.0
  0
SPLINE
  5
9A
330
1F
100
AcDbEntity
  8
Layer 1
 62
     5
370
     9
100
AcDbSpline
210
0.0
220
0.0
230
1.0
 70
    11
 71
     3
 72
    92
 73
    88
 74
     0
 42
0.0000000001
 43
0.0000000001
 12
1.0
 22
0.0
 32
0.0
 13
1.0
 23
0.0
 33
0.0
 40
0.0
 40
0.0
 40
0.0
 40
0.0
 40
0.0434782608695652
 40
0.0434782608695652
 40
0.0434782608695652
 40
0.0434782608695652
 40
0.0869565217391304
 40
0.0869565217391304
 40
0.0869565217391304
 40
0.0869565217391304
 40
0.1304347826086956
 40
0.1304347826086956
 40
0.1304347826086956
 40
0.1304347826086956
 40
0.1739130434782609
 40
0.1739130434782609
 40
0.1739130434782609
 40
0.1739130434782609
 40
0.2173913043478261
 40
0.2173913043478261
 40
0.2173913043478261
 40
0.2173913043478261
 40
0.2608695652173913
 40
0.2608695652173913
 40
0.2608695652173913
 40
0.2608695652173913
 40
0.3043478260869565
 40
0.3043478260869565
 40
0.3043478260869565
 40
0.3043478260869565
 40
0.3478260869565217
 40
0.3478260869565217
 40
0.3478260869565217
 40
0.3478260869565217
 40
0.391304347826087
 40
0.391304347826087
 40
0.391304347826087
 40
0.391304347826087
 40
0.4347826086956522
 40
0.4347826086956522
 40
0.4347826086956522
 40
0.4347826086956522
 40
0.4782608695652174
 40
0.4782608695652174
 40
0.4782608695652174
 40
0.4782608695652174
 40
0.5217391304347826
 40
0.5217391304347826
 40
0.5217391304347826
 40
0.5217391304347826
 40
0.5652173913043478
 40
0.5652173913043478
 40
0.5652173913043478
 40
0.5652173913043478
 40
0.6086956521739131
 40
0.6086956521739131
 40
0.6086956521739131
 40
0.6086956521739131
 40
0.6521739130434783
 40
0.6521739130434783
 40
0.6521739130434783
 40
0.6521739130434783
 40
0.6956521739130435
 40
0.6956521739130435
 40
0.6956521739130435
 40
0.6956521739130435
 40
0.7391304347826086
 40
0.7391304347826086
 40
0.7391304347826086
 40
0.7391304347826086
 40
0.782608695652174
 40
0.782608695652174
 40
0.782608695652174
 40
0.782608695652174
 40
0.8260869565217391
 40
0.8260869565217391
 40
0.8260869565217391
 40
0.8260869565217391
 40
0.8695652173913043
 40
0.8695652173913043
 40
0.8695652173913043
 40
0.8695652173913043
 40
0.9130434782608695
 40
0.9130434782608695
 40
0.9130434782608695
 40
0.9130434782608695
 40
1.0
 40
1.0
 40
1.0
 40
1.0
 10
1.4642
 20
-1.77989
 30
0.0
 10
1.4642
 20
-1.77989
 30
0.0
 10
1.4642
 20
-1.74884
 30
0.0
 10
1.4642
 20
-1.74884
 30
0.0
 10
1.4642
 20
-1.74884
 30
0.0
 10
1.48637
 20
-1.7599
 30
0.0
 10
1.5056
 20
-1.76542
 30
0.0
 10
1.522
 20
-1.76542
 30
0.0
 10
1.522
 20
-1.76542
 30
0.0
 10
1.53176
 20
-1.76542
 30
0.0
 10
1.53988
 20
-1.76278
 30
0.0
 10
1.54628
 20
-1.75749
 30
0.0
 10
1.54628
 20
-1.75749
 30
0.0
 10
1.55269
 20
-1.75225
 30
0.0
 10
1.55593
 20
-1.74567
 30
0.0
 10
1.55593
 20
-1.73773
 30
0.0
 10
1.55593
 20
-1.73773
 30
0.0
 10
1.55593
 20
-1.72615
 30
0.0
 10
1.54693
 20
-1.71656
 30
0.0
 10
1.52894
 20
-1.70898
 30
0.0
 10
1.52894
 20
-1.70898
 30
0.0
 10
1.52894
 20
-1.70898
 30
0.0
 10
1.50912
 20
-1.70057
 30
0.0
 10
1.50912
 20
-1.70057
 30
0.0
 10
1.50912
 20
-1.70057
 30
0.0
 10
1.4799
 20
-1.68846
 30
0.0
 10
1.46526
 20
-1.67094
 30
0.0
 10
1.46526
 20
-1.64818
 30
0.0
 10
1.46526
 20
-1.64818
 30
0.0
 10
1.46526
 20
-1.6319
 30
0.0
 10
1.47102
 20
-1.61908
 30
0.0
 10
1.48255
 20
-1.60973
 30
0.0
 10
1.48255
 20
-1.60973
 30
0.0
 10
1.49407
 20
-1.60038
 30
0.0
 10
1.50989
 20
-1.59574
 30
0.0
 10
1.52994
 20
-1.59574
 30
0.0
 10
1.52994
 20
-1.59574
 30
0.0
 10
1.54035
 20
-1.59574
 30
0.0
 10
1.55328
 20
-1.59715
 30
0.0
 10
1.56863
 20
-1.60003
 30
0.0
 10
1.56863
 20
-1.60003
 30
0.0
 10
1.56863
 20
-1.60003
 30
0.0
 10
1.57568
 20
-1.60138
 30
0.0
 10
1.57568
 20
-1.60138
 30
0.0
 10
1.57568
 20
-1.60138
 30
0.0
 10
1.57568
 20
-1.60138
 30
0.0
 10
1.57568
 20
-1.6296
 30
0.0
 10
1.57568
 20
-1.6296
 30
0.0
 10
1.57568
 20
-1.6296
 30
0.0
 10
1.55681
 20
-1.62396
 30
0.0
 10
1.54176
 20
-1.62114
 30
0.0
 10
1.53053
 20
-1.62114
 30
0.0
 10
1.53053
 20
-1.62114
 30
0.0
 10
1.52065
 20
-1.62114
 30
0.0
 10
1.51283
 20
-1.62331
 30
0.0
 10
1.50689
 20
-1.6276
 30
0.0
 10
1.50689
 20
-1.6276
 30
0.0
 10
1.50101
 20
-1.6319
 30
0.0
 10
1.49807
 20
-1.63766
 30
0.0
 10
1.49807
 20
-1.64489
 30
0.0
 10
1.49807
 20
-1.64489
 30
0.0
 10
1.49807
 20
-1.65506
 30
0.0
 10
1.5063
 20
-1.6637
 30
0.0
 10
1.52282
 20
-1.6707
 30
0.0
 10
1.52282
 20
-1.6707
 30
0.0
 10
1.52282
 20
-1.6707
 30
0.0
 10
1.53911
 20
-1.67758
 30
0.0
 10
1.53911
 20
-1.67758
 30
0.0
 10
1.53911
 20
-1.67758
 30
0.0
 10
1.55757
 20
-1.68534
 30
0.0
 10
1.57063
 20
-1.69357
 30
0.0
 10
1.57827
 20
-1.70222
 30
0.0
 10
1.57827
 20
-1.70222
 30
0.0
 10
1.58597
 20
-1.71086
 30
0.0
 10
1.58979
 20
-1.72168
 30
0.0
 10
1.58979
 20
-1.73461
 30
0.0
 10
1.58979
 20
-1.73461
 30
0.0
 10
1.58979
 20
-1.75102
 30
0.0
 10
1.58333
 20
-1.76448
 30
0.0
 10
1.57033
 20
-1.77501
 30
0.0
 10
1.57033
 20
-1.77501
 30
0.0
 10
1.5574
 20
-1.78553
 30
0.0
 10
1.54082
 20
-1.79082
 30
0.0
 10
1.52065
 20
-1.79082
 30
0.0
 10
1.52065
 20
-1.79082
 30
0.0
 10
1.50513
 20
-1.79082
 30
0.0
 10
1.48637
 20
-1.78718
 30
0.0
 10
1.4642
 20
-1.77989
 30
0.0
  0
SPLINE
  5
9B
330
1F
100
AcDbEntity
  8
Layer 1
 62
     5
370
     9
100
AcDbSpline
210
0.0
220
0.0
230
1.0
 70
    11
 71
     3
 72
    72
 73
    68
 74
     0
 42
0.0000000001
 43
0.0000000001
 12
1.0
 22
0.0
 32
0.0
 13
1.0
 23
0.0
 33
0.0
 40
0.0
 40
0.0
 40
0.0
 40
0.0
 40
0.0555555555555556
 40
0.0555555555555556
 40
0.0555555555555556
 40
0.0555555555555556
 40
0.1111111111111111
 40
0.1111111111111111
 40
0.1111111111111111
 40
0.1111111111111111
 40
0.1666666666666667
 40
0.1666666666666667
 40
0.1666666666666667
 40
0.1666666666666667
 40
0.2222222222222222
 40
0.2222222222222222
 40
0.2222222222222222
 40
0.2222222222222222
 40
0.2777777777777778
 40
0.2777777777777778
 40
0.2777777777777778
 40
0.2777777777777778
 40
0.3333333333333333
 40
0.3333333333333333
 40
0.3333333333333333
 40
0.3333333333333333
 40
0.3888888888888889
 40
0.3888888888888889
 40
0.3888888888888889
 40
0.3888888888888889
 40
0.4444444444444444
 40
0.4444444444444444
 40
0.4444444444444444
 40
0.4444444444444444
 40
0.5
 40
0.5
 40
0.5
 40
0.5
 40
0.5555555555555556
 40
0.5555555555555556
 40
0.5555555555555556
 40
0.5555555555555556
 40
0.6111111111111112
 40
0.6111111111111112
 40
0.6111111111111112
 40
0.6111111111111112
 40
0.6666666666666666
 40
0.6666666666666666
 40
0.6666666666666666
 40
0.6666666666666666
 40
0.7222222222222222
 40
0.7222222222222222
 40
0.7222222222222222
 40
0.7222222222222222
 40
0.7777777777777778
 40
0.7777777777777778
 40
0.7777777777777778
 40
0.7777777777777778
 40
0.8333333333333334
 40
0.8333333333333334
 40
0.8333333333333334
 40
0.8333333333333334
 40
0.8888888888888888
 40
0.8888888888888888
 40
0.8888888888888888
 40
0.8888888888888888
 40
1.0
 40
1.0
 40
1.0
 40
1.0
 10
1.73438
 20
-1.78653
 30
0.0
 10
1.72391
 20
-1.78941
 30
0.0
 10
1.7148
 20
-1.79082
 30
0.0
 10
1.70709
 20
-1.79082
 30
0.0
 10
1.70709
 20
-1.79082
 30
0.0
 10
1.68981
 20
-1.79082
 30
0.0
 10
1.67634
 20
-1.78588
 30
0.0
 10
1.6667
 20
-1.77601
 30
0.0
 10
1.6667
 20
-1.77601
 30
0.0
 10
1.657
 20
-1.76613
 30
0.0
 10
1.65218
 20
-1.75243
 30
0.0
 10
1.65218
 20
-1.73485
 30
0.0
 10
1.65218
 20
-1.73485
 30
0.0
 10
1.65218
 20
-1.73485
 30
0.0
 10
1.65218
 20
-1.62502
 30
0.0
 10
1.65218
 20
-1.62502
 30
0.0
 10
1.65218
 20
-1.62502
 30
0.0
 10
1.65218
 20
-1.62502
 30
0.0
 10
1.62878
 20
-1.62502
 30
0.0
 10
1.62878
 20
-1.62502
 30
0.0
 10
1.62878
 20
-1.62502
 30
0.0
 10
1.62878
 20
-1.62502
 30
0.0
 10
1.62878
 20
-1.59962
 30
0.0
 10
1.62878
 20
-1.59962
 30
0.0
 10
1.62878
 20
-1.59962
 30
0.0
 10
1.62878
 20
-1.59962
 30
0.0
 10
1.65218
 20
-1.59962
 30
0.0
 10
1.65218
 20
-1.59962
 30
0.0
 10
1.65218
 20
-1.59962
 30
0.0
 10
1.65218
 20
-1.59962
 30
0.0
 10
1.65218
 20
-1.56581
 30
0.0
 10
1.65218
 20
-1.56581
 30
0.0
 10
1.65218
 20
-1.56581
 30
0.0
 10
1.65218
 20
-1.56581
 30
0.0
 10
1.68604
 20
-1.56257
 30
0.0
 10
1.68604
 20
-1.56257
 30
0.0
 10
1.68604
 20
-1.56257
 30
0.0
 10
1.68604
 20
-1.56257
 30
0.0
 10
1.68604
 20
-1.59962
 30
0.0
 10
1.68604
 20
-1.59962
 30
0.0
 10
1.68604
 20
-1.59962
 30
0.0
 10
1.68604
 20
-1.59962
 30
0.0
 10
1.73508
 20
-1.59962
 30
0.0
 10
1.73508
 20
-1.59962
 30
0.0
 10
1.73508
 20
-1.59962
 30
0.0
 10
1.73508
 20
-1.59962
 30
0.0
 10
1.73508
 20
-1.62502
 30
0.0
 10
1.73508
 20
-1.62502
 30
0.0
 10
1.73508
 20
-1.62502
 30
0.0
 10
1.73508
 20
-1.62502
 30
0.0
 10
1.68604
 20
-1.62502
 30
0.0
 10
1.68604
 20
-1.62502
 30
0.0
 10
1.68604
 20
-1.62502
 30
0.0
 10
1.68604
 20
-1.62502
 30
0.0
 10
1.68604
 20
-1.72873
 30
0.0
 10
1.68604
 20
-1.72873
 30
0.0
 10
1.68604
 20
-1.72873
 30
0.0
 10
1.68604
 20
-1.75319
 30
0.0
 10
1.69669
 20
-1.76542
 30
0.0
 10
1.71791
 20
-1.76542
 30
0.0
 10
1.71791
 20
-1.76542
 30
0.0
 10
1.72244
 20
-1.76542
 30
0.0
 10
1.72791
 20
-1.76466
 30
0.0
 10
1.73438
 20
-1.76319
 30
0.0
 10
1.73438
 20
-1.76319
 30
0.0
 10
1.73438
 20
-1.76319
 30
0.0
 10
1.73438
 20
-1.78653
 30
0.0
 10
1.73438
 20
-1.78653
 30
0.0
  0
SPLINE
  5
9C
330
1F
100
AcDbEntity
  8
Layer 1
 62
     5
370
     9
100
AcDbSpline
210
0.0
220
0.0
230
1.0
 70
    11
 71
     3
 72
    52
 73
    48
 74
     0
 42
0.0000000001
 43
0.0000000001
 12
1.0
 22
0.0
 32
0.0
 13
1.0
 23
0.0
 33
0.0
 40
0.0
 40
0.0
 40
0.0
 40
0.0
 40
0.0769230769230769
 40
0.0769230769230769
 40
0.0769230769230769
 40
0.0769230769230769
 40
0.1538461538461539
 40
0.1538461538461539
 40
0.1538461538461539
 40
0.1538461538461539
 40
0.2307692307692308
 40
0.2307692307692308
 40
0.2307692307692308
 40
0.2307692307692308
 40
0.3076923076923077
 40
0.3076923076923077
 40
0.3076923076923077
 40
0.3076923076923077
 40
0.3846153846153846
 40
0.3846153846153846
 40
0.3846153846153846
 40
0.3846153846153846
 40
0.4615384615384616
 40
0.4615384615384616
 40
0.4615384615384616
 40
0.4615384615384616
 40
0.5384615384615384
 40
0.5384615384615384
 40
0.5384615384615384
 40
0.5384615384615384
 40
0.6153846153846154
 40
0.6153846153846154
 40
0.6153846153846154
 40
0.6153846153846154
 40
0.6923076923076923
 40
0.6923076923076923
 40
0.6923076923076923
 40
0.6923076923076923
 40
0.7692307692307693
 40
0.7692307692307693
 40
0.7692307692307693
 40
0.7692307692307693
 40
0.8461538461538461
 40
0.8461538461538461
 40
0.8461538461538461
 40
0.8461538461538461
 40
1.0
 40
1.0
 40
1.0
 40
1.0
 10
1.91993
 20
-1.78059
 30
0.0
 10
1.89717
 20
-1.78741
 30
0.0
 10
1.87771
 20
-1.79082
 30
0.0
 10
1.86148
 20
-1.79082
 30
0.0
 10
1.86148
 20
-1.79082
 30
0.0
 10
1.83379
 20
-1.79082
 30
0.0
 10
1.81127
 20
-1.78165
 30
0.0
 10
1.79393
 20
-1.76337
 30
0.0
 10
1.79393
 20
-1.76337
 30
0.0
 10
1.77658
 20
-1.74508
 30
0.0
 10
1.76788
 20
-1.72138
 30
0.0
 10
1.76788
 20
-1.69222
 30
0.0
 10
1.76788
 20
-1.69222
 30
0.0
 10
1.76788
 20
-1.66394
 30
0.0
 10
1.77552
 20
-1.64072
 30
0.0
 10
1.79087
 20
-1.62255
 30
0.0
 10
1.79087
 20
-1.62255
 30
0.0
 10
1.80622
 20
-1.60444
 30
0.0
 10
1.82585
 20
-1.59538
 30
0.0
 10
1.84978
 20
-1.59538
 30
0.0
 10
1.84978
 20
-1.59538
 30
0.0
 10
1.87242
 20
-1.59538
 30
0.0
 10
1.88994
 20
-1.60344
 30
0.0
 10
1.90229
 20
-1.61955
 30
0.0
 10
1.90229
 20
-1.61955
 30
0.0
 10
1.91464
 20
-1.63566
 30
0.0
 10
1.92081
 20
-1.65847
 30
0.0
 10
1.92081
 20
-1.68805
 30
0.0
 10
1.92081
 20
-1.68805
 30
0.0
 10
1.92081
 20
-1.68805
 30
0.0
 10
1.92063
 20
-1.69839
 30
0.0
 10
1.92063
 20
-1.69839
 30
0.0
 10
1.92063
 20
-1.69839
 30
0.0
 10
1.92063
 20
-1.69839
 30
0.0
 10
1.80245
 20
-1.69839
 30
0.0
 10
1.80245
 20
-1.69839
 30
0.0
 10
1.80245
 20
-1.69839
 30
0.0
 10
1.80739
 20
-1.74308
 30
0.0
 10
1.82921
 20
-1.76542
 30
0.0
 10
1.86783
 20
-1.76542
 30
0.0
 10
1.86783
 20
-1.76542
 30
0.0
 10
1.882
 20
-1.76542
 30
0.0
 10
1.89935
 20
-1.76143
 30
0.0
 10
1.91993
 20
-1.75343
 30
0.0
 10
1.91993
 20
-1.75343
 30
0.0
 10
1.91993
 20
-1.75343
 30
0.0
 10
1.91993
 20
-1.78059
 30
0.0
 10
1.91993
 20
-1.78059
 30
0.0
  0
SPLINE
  5
9D
330
1F
100
AcDbEntity
  8
Layer 1
 62
     5
370
     9
100
AcDbSpline
210
0.0
220
0.0
230
1.0
 70
    11
 71
     3
 72
    16
 73
    12
 74
     0
 42
0.0000000001
 43
0.0000000001
 12
1.0
 22
0.0
 32
0.0
 13
1.0
 23
0.0
 33
0.0
 40
0.0
 40
0.0
 40
0.0
 40
0.0
 40
0.25
 40
0.25
 40
0.25
 40
0.25
 40
0.5
 40
0.5
 40
0.5
 40
0.5
 40
1.0
 40
1.0
 40
1.0
 40
1.0
 10
1.80422
 20
-1.67299
 30
0.0
 10
1.80422
 20
-1.67299
 30
0.0
 10
1.88677
 20
-1.67299
 30
0.0
 10
1.88677
 20
-1.67299
 30
0.0
 10
1.88677
 20
-1.67299
 30
0.0
 10
1.88677
 20
-1.63819
 30
0.0
 10
1.87377
 20
-1.62078
 30
0.0
 10
1.84784
 20
-1.62078
 30
0.0
 10
1.84784
 20
-1.62078
 30
0.0
 10
1.82174
 20
-1.62078
 30
0.0
 10
1.80722
 20
-1.63819
 30
0.0
 10
1.80422
 20
-1.67299
 30
0.0
  0
SPLINE
  5
9E
330
1F
100
AcDbEntity
  8
Layer 1
 62
     5
370
     9
100
AcDbSpline
210
0.0
220
0.0
230
1.0
 70
    11
 71
     3
 72
    48
 73
    44
 74
     0
 42
0.0000000001
 43
0.0000000001
 12
1.0
 22
0.0
 32
0.0
 13
1.0
 23
0.0
 33
0.0
 40
0.0
 40
0.0
 40
0.0
 40
0.0
 40
0.0833333333333333
 40
0.0833333333333333
 40
0.0833333333333333
 40
0.0833333333333333
 40
0.1666666666666667
 40
0.1666666666666667
 40
0.1666666666666667
 40
0.1666666666666667
 40
0.25
 40
0.25
 40
0.25
 40
0.25
 40
0.3333333333333333
 40
0.3333333333333333
 40
0.3333333333333333
 40
0.3333333333333333
 40
0.4166666666666667
 40
0.4166666666666667
 40
0.4166666666666667
 40
0.4166666666666667
 40
0.5
 40
0.5
 40
0.5
 40
0.5
 40
0.5833333333333334
 40
0.5833333333333334
 40
0.5833333333333334
 40
0.5833333333333334
 40
0.6666666666666666
 40
0.6666666666666666
 40
0.6666666666666666
 40
0.6666666666666666
 40
0.75
 40
0.75
 40
0.75
 40
0.75
 40
0.8333333333333334
 40
0.8333333333333334
 40
0.8333333333333334
 40
0.8333333333333334
 40
1.0
 40
1.0
 40
1.0
 40
1.0
 10
1.97926
 20
-1.85468
 30
0.0
 10
1.97926
 20
-1.85468
 30
0.0
 10
1.97926
 20
-1.59962
 30
0.0
 10
1.97926
 20
-1.59962
 30
0.0
 10
1.97926
 20
-1.59962
 30
0.0
 10
1.97926
 20
-1.59962
 30
0.0
 10
2.01312
 20
-1.59962
 30
0.0
 10
2.01312
 20
-1.59962
 30
0.0
 10
2.01312
 20
-1.59962
 30
0.0
 10
2.01312
 20
-1.59962
 30
0.0
 10
2.01312
 20
-1.63495
 30
0.0
 10
2.01312
 20
-1.63495
 30
0.0
 10
2.01312
 20
-1.63495
 30
0.0
 10
2.027
 20
-1.60879
 30
0.0
 10
2.04787
 20
-1.59574
 30
0.0
 10
2.07568
 20
-1.59574
 30
0.0
 10
2.07568
 20
-1.59574
 30
0.0
 10
2.0982
 20
-1.59574
 30
0.0
 10
2.1159
 20
-1.60391
 30
0.0
 10
2.12884
 20
-1.62031
 30
0.0
 10
2.12884
 20
-1.62031
 30
0.0
 10
2.14177
 20
-1.63672
 30
0.0
 10
2.14824
 20
-1.65912
 30
0.0
 10
2.14824
 20
-1.68752
 30
0.0
 10
2.14824
 20
-1.68752
 30
0.0
 10
2.14824
 20
-1.71844
 30
0.0
 10
2.14089
 20
-1.74343
 30
0.0
 10
2.12625
 20
-1.76237
 30
0.0
 10
2.12625
 20
-1.76237
 30
0.0
 10
2.11161
 20
-1.78136
 30
0.0
 10
2.09232
 20
-1.79082
 30
0.0
 10
2.06845
 20
-1.79082
 30
0.0
 10
2.06845
 20
-1.79082
 30
0.0
 10
2.04629
 20
-1.79082
 30
0.0
 10
2.02782
 20
-1.78236
 30
0.0
 10
2.01312
 20
-1.76536
 30
0.0
 10
2.01312
 20
-1.76536
 30
0.0
 10
2.01312
 20
-1.76536
 30
0.0
 10
2.01312
 20
-1.85468
 30
0.0
 10
2.01312
 20
-1.85468
 30
0.0
 10
2.01312
 20
-1.85468
 30
0.0
 10
2.01312
 20
-1.85468
 30
0.0
 10
1.97926
 20
-1.85468
 30
0.0
 10
1.97926
 20
-1.85468
 30
0.0
  0
SPLINE
  5
9F
330
1F
100
AcDbEntity
  8
Layer 1
 62
     5
370
     9
100
AcDbSpline
210
0.0
220
0.0
230
1.0
 70
    11
 71
     3
 72
    28
 73
    24
 74
     0
 42
0.0000000001
 43
0.0000000001
 12
1.0
 22
0.0
 32
0.0
 13
1.0
 23
0.0
 33
0.0
 40
0.0
 40
0.0
 40
0.0
 40
0.0
 40
0.1428571428571428
 40
0.1428571428571428
 40
0.1428571428571428
 40
0.1428571428571428
 40
0.2857142857142857
 40
0.2857142857142857
 40
0.2857142857142857
 40
0.2857142857142857
 40
0.4285714285714285
 40
0.4285714285714285
 40
0.4285714285714285
 40
0.4285714285714285
 40
0.5714285714285714
 40
0.5714285714285714
 40
0.5714285714285714
 40
0.5714285714285714
 40
0.7142857142857143
 40
0.7142857142857143
 40
0.7142857142857143
 40
0.7142857142857143
 40
1.0
 40
1.0
 40
1.0
 40
1.0
 10
2.01312
 20
-1.74202
 30
0.0
 10
2.03059
 20
-1.7576
 30
0.0
 10
2.04723
 20
-1.76542
 30
0.0
 10
2.06304
 20
-1.76542
 30
0.0
 10
2.06304
 20
-1.76542
 30
0.0
 10
2.07862
 20
-1.76542
 30
0.0
 10
2.09068
 20
-1.7589
 30
0.0
 10
2.09914
 20
-1.7459
 30
0.0
 10
2.09914
 20
-1.7459
 30
0.0
 10
2.10767
 20
-1.73291
 30
0.0
 10
2.1119
 20
-1.71462
 30
0.0
 10
2.1119
 20
-1.69099
 30
0.0
 10
2.1119
 20
-1.69099
 30
0.0
 10
2.1119
 20
-1.64724
 30
0.0
 10
2.09744
 20
-1.62537
 30
0.0
 10
2.06851
 20
-1.62537
 30
0.0
 10
2.06851
 20
-1.62537
 30
0.0
 10
2.04958
 20
-1.62537
 30
0.0
 10
2.03112
 20
-1.6356
 30
0.0
 10
2.01312
 20
-1.65612
 30
0.0
 10
2.01312
 20
-1.65612
 30
0.0
 10
2.01312
 20
-1.65612
 30
0.0
 10
2.01312
 20
-1.74202
 30
0.0
 10
2.01312
 20
-1.74202
 30
0.0
  0
SPLINE
  5
A0
330
1F
100
AcDbEntity
  8
Layer 1
 62
     5
370
     9
100
AcDbSpline
210
0.0
220
0.0
230
1.0
 70
    11
 71
     3
 72
    48
 73
    44
 74
     0
 42
0.0000000001
 43
0.0000000001
 12
1.0
 22
0.0
 32
0.0
 13
1.0
 23
0.0
 33
0.0
 40
0.0
 40
0.0
 40
0.0
 40
0.0
 40
0.0833333333333333
 40
0.0833333333333333
 40
0.0833333333333333
 40
0.0833333333333333
 40
0.1666666666666667
 40
0.1666666666666667
 40
0.1666666666666667
 40
0.1666666666666667
 40
0.25
 40
0.25
 40
0.25
 40
0.25
 40
0.3333333333333333
 40
0.3333333333333333
 40
0.3333333333333333
 40
0.3333333333333333
 40
0.4166666666666667
 40
0.4166666666666667
 40
0.4166666666666667
 40
0.4166666666666667
 40
0.5
 40
0.5
 40
0.5
 40
0.5
 40
0.5833333333333334
 40
0.5833333333333334
 40
0.5833333333333334
 40
0.5833333333333334
 40
0.6666666666666666
 40
0.6666666666666666
 40
0.6666666666666666
 40
0.6666666666666666
 40
0.75
 40
0.75
 40
0.75
 40
0.75
 40
0.8333333333333334
 40
0.8333333333333334
 40
0.8333333333333334
 40
0.8333333333333334
 40
1.0
 40
1.0
 40
1.0
 40
1.0
 10
2.20128
 20
-1.85468
 30
0.0
 10
2.20128
 20
-1.85468
 30
0.0
 10
2.20128
 20
-1.59962
 30
0.0
 10
2.20128
 20
-1.59962
 30
0.0
 10
2.20128
 20
-1.59962
 30
0.0
 10
2.20128
 20
-1.59962
 30
0.0
 10
2.23514
 20
-1.59962
 30
0.0
 10
2.23514
 20
-1.59962
 30
0.0
 10
2.23514
 20
-1.59962
 30
0.0
 10
2.23514
 20
-1.59962
 30
0.0
 10
2.23514
 20
-1.63495
 30
0.0
 10
2.23514
 20
-1.63495
 30
0.0
 10
2.23514
 20
-1.63495
 30
0.0
 10
2.24902
 20
-1.60879
 30
0.0
 10
2.26989
 20
-1.59574
 30
0.0
 10
2.2977
 20
-1.59574
 30
0.0
 10
2.2977
 20
-1.59574
 30
0.0
 10
2.32022
 20
-1.59574
 30
0.0
 10
2.33792
 20
-1.60391
 30
0.0
 10
2.35086
 20
-1.62031
 30
0.0
 10
2.35086
 20
-1.62031
 30
0.0
 10
2.36379
 20
-1.63672
 30
0.0
 10
2.37026
 20
-1.65912
 30
0.0
 10
2.37026
 20
-1.68752
 30
0.0
 10
2.37026
 20
-1.68752
 30
0.0
 10
2.37026
 20
-1.71844
 30
0.0
 10
2.36291
 20
-1.74343
 30
0.0
 10
2.34827
 20
-1.76237
 30
0.0
 10
2.34827
 20
-1.76237
 30
0.0
 10
2.33363
 20
-1.78136
 30
0.0
 10
2.31434
 20
-1.79082
 30
0.0
 10
2.29047
 20
-1.79082
 30
0.0
 10
2.29047
 20
-1.79082
 30
0.0
 10
2.26831
 20
-1.79082
 30
0.0
 10
2.24984
 20
-1.78236
 30
0.0
 10
2.23514
 20
-1.76536
 30
0.0
 10
2.23514
 20
-1.76536
 30
0.0
 10
2.23514
 20
-1.76536
 30
0.0
 10
2.23514
 20
-1.85468
 30
0.0
 10
2.23514
 20
-1.85468
 30
0.0
 10
2.23514
 20
-1.85468
 30
0.0
 10
2.23514
 20
-1.85468
 30
0.0
 10
2.20128
 20
-1.85468
 30
0.0
 10
2.20128
 20
-1.85468
 30
0.0
  0
SPLINE
  5
A1
330
1F
100
AcDbEntity
  8
Layer 1
 62
     5
370
     9
100
AcDbSpline
210
0.0
220
0.0
230
1.0
 70
    11
 71
     3
 72
    28
 73
    24
 74
     0
 42
0.0000000001
 43
0.0000000001
 12
1.0
 22
0.0
 32
0.0
 13
1.0
 23
0.0
 33
0.0
 40
0.0
 40
0.0
 40
0.0
 40
0.0
 40
0.1428571428571428
 40
0.1428571428571428
 40
0.1428571428571428
 40
0.1428571428571428
 40
0.2857142857142857
 40
0.2857142857142857
 40
0.2857142857142857
 40
0.2857142857142857
 40
0.4285714285714285
 40
0.4285714285714285
 40
0.4285714285714285
 40
0.4285714285714285
 40
0.5714285714285714
 40
0.5714285714285714
 40
0.5714285714285714
 40
0.5714285714285714
 40
0.7142857142857143
 40
0.7142857142857143
 40
0.7142857142857143
 40
0.7142857142857143
 40
1.0
 40
1.0
 40
1.0
 40
1.0
 10
2.23514
 20
-1.74202
 30
0.0
 10
2.25261
 20
-1.7576
 30
0.0
 10
2.26925
 20
-1.76542
 30
0.0
 10
2.28506
 20
-1.76542
 30
0.0
 10
2.28506
 20
-1.76542
 30
0.0
 10
2.30064
 20
-1.76542
 30
0.0
 10
2.3127
 20
-1.7589
 30
0.0
 10
2.32116
 20
-1.7459
 30
0.0
 10
2.32116
 20
-1.7459
 30
0.0
 10
2.32969
 20
-1.73291
 30
0.0
 10
2.33392
 20
-1.71462
 30
0.0
 10
2.33392
 20
-1.69099
 30
0.0
 10
2.33392
 20
-1.69099
 30
0.0
 10
2.33392
 20
-1.64724
 30
0.0
 10
2.31946
 20
-1.62537
 30
0.0
 10
2.29053
 20
-1.62537
 30
0.0
 10
2.29053
 20
-1.62537
 30
0.0
 10
2.2716
 20
-1.62537
 30
0.0
 10
2.25314
 20
-1.6356
 30
0.0
 10
2.23514
 20
-1.65612
 30
0.0
 10
2.23514
 20
-1.65612
 30
0.0
 10
2.23514
 20
-1.65612
 30
0.0
 10
2.23514
 20
-1.74202
 30
0.0
 10
2.23514
 20
-1.74202
 30
0.0
  0
SPLINE
  5
A2
330
1F
100
AcDbEntity
  8
Layer 1
 62
     5
370
     9
100
AcDbSpline
210
0.0
220
0.0
230
1.0
 70
    11
 71
     3
 72
    52
 73
    48
 74
     0
 42
0.0000000001
 43
0.0000000001
 12
1.0
 22
0.0
 32
0.0
 13
1.0
 23
0.0
 33
0.0
 40
0.0
 40
0.0
 40
0.0
 40
0.0
 40
0.0769230769230769
 40
0.0769230769230769
 40
0.0769230769230769
 40
0.0769230769230769
 40
0.1538461538461539
 40
0.1538461538461539
 40
0.1538461538461539
 40
0.1538461538461539
 40
0.2307692307692308
 40
0.2307692307692308
 40
0.2307692307692308
 40
0.2307692307692308
 40
0.3076923076923077
 40
0.3076923076923077
 40
0.3076923076923077
 40
0.3076923076923077
 40
0.3846153846153846
 40
0.3846153846153846
 40
0.3846153846153846
 40
0.3846153846153846
 40
0.4615384615384616
 40
0.4615384615384616
 40
0.4615384615384616
 40
0.4615384615384616
 40
0.5384615384615384
 40
0.5384615384615384
 40
0.5384615384615384
 40
0.5384615384615384
 40
0.6153846153846154
 40
0.6153846153846154
 40
0.6153846153846154
 40
0.6153846153846154
 40
0.6923076923076923
 40
0.6923076923076923
 40
0.6923076923076923
 40
0.6923076923076923
 40
0.7692307692307693
 40
0.7692307692307693
 40
0.7692307692307693
 40
0.7692307692307693
 40
0.8461538461538461
 40
0.8461538461538461
 40
0.8461538461538461
 40
0.8461538461538461
 40
1.0
 40
1.0
 40
1.0
 40
1.0
 10
2.56052
 20
-1.78059
 30
0.0
 10
2.53776
 20
-1.78741
 30
0.0
 10
2.5183
 20
-1.79082
 30
0.0
 10
2.50207
 20
-1.79082
 30
0.0
 10
2.50207
 20
-1.79082
 30
0.0
 10
2.47438
 20
-1.79082
 30
0.0
 10
2.45186
 20
-1.78165
 30
0.0
 10
2.43452
 20
-1.76337
 30
0.0
 10
2.43452
 20
-1.76337
 30
0.0
 10
2.41717
 20
-1.74508
 30
0.0
 10
2.40847
 20
-1.72138
 30
0.0
 10
2.40847
 20
-1.69222
 30
0.0
 10
2.40847
 20
-1.69222
 30
0.0
 10
2.40847
 20
-1.66394
 30
0.0
 10
2.41611
 20
-1.64072
 30
0.0
 10
2.43146
 20
-1.62255
 30
0.0
 10
2.43146
 20
-1.62255
 30
0.0
 10
2.44681
 20
-1.60444
 30
0.0
 10
2.46644
 20
-1.59538
 30
0.0
 10
2.49037
 20
-1.59538
 30
0.0
 10
2.49037
 20
-1.59538
 30
0.0
 10
2.51301
 20
-1.59538
 30
0.0
 10
2.53053
 20
-1.60344
 30
0.0
 10
2.54288
 20
-1.61955
 30
0.0
 10
2.54288
 20
-1.61955
 30
0.0
 10
2.55523
 20
-1.63566
 30
0.0
 10
2.5614
 20
-1.65847
 30
0.0
 10
2.5614
 20
-1.68805
 30
0.0
 10
2.5614
 20
-1.68805
 30
0.0
 10
2.5614
 20
-1.68805
 30
0.0
 10
2.56122
 20
-1.69839
 30
0.0
 10
2.56122
 20
-1.69839
 30
0.0
 10
2.56122
 20
-1.69839
 30
0.0
 10
2.56122
 20
-1.69839
 30
0.0
 10
2.44304
 20
-1.69839
 30
0.0
 10
2.44304
 20
-1.69839
 30
0.0
 10
2.44304
 20
-1.69839
 30
0.0
 10
2.44798
 20
-1.74308
 30
0.0
 10
2.4698
 20
-1.76542
 30
0.0
 10
2.50842
 20
-1.76542
 30
0.0
 10
2.50842
 20
-1.76542
 30
0.0
 10
2.52259
 20
-1.76542
 30
0.0
 10
2.53994
 20
-1.76143
 30
0.0
 10
2.56052
 20
-1.75343
 30
0.0
 10
2.56052
 20
-1.75343
 30
0.0
 10
2.56052
 20
-1.75343
 30
0.0
 10
2.56052
 20
-1.78059
 30
0.0
 10
2.56052
 20
-1.78059
 30
0.0
  0
SPLINE
  5
A3
330
1F
100
AcDbEntity
  8
Layer 1
 62
     5
370
     9
100
AcDbSpline
210
0.0
220
0.0
230
1.0
 70
    11
 71
     3
 72
    16
 73
    12
 74
     0
 42
0.0000000001
 43
0.0000000001
 12
1.0
 22
0.0
 32
0.0
 13
1.0
 23
0.0
 33
0.0
 40
0.0
 40
0.0
 40
0.0
 40
0.0
 40
0.25
 40
0.25
 40
0.25
 40
0.25
 40
0.5
 40
0.5
 40
0.5
 40
0.5
 40
1.0
 40
1.0
 40
1.0
 40
1.0
 10
2.44481
 20
-1.67299
 30
0.0
 10
2.44481
 20
-1.67299
 30
0.0
 10
2.52736
 20
-1.67299
 30
0.0
 10
2.52736
 20
-1.67299
 30
0.0
 10
2.52736
 20
-1.67299
 30
0.0
 10
2.52736
 20
-1.63819
 30
0.0
 10
2.51436
 20
-1.62078
 30
0.0
 10
2.48843
 20
-1.62078
 30
0.0
 10
2.48843
 20
-1.62078
 30
0.0
 10
2.46233
 20
-1.62078
 30
0.0
 10
2.44781
 20
-1.63819
 30
0.0
 10
2.44481
 20
-1.67299
 30
0.0
  0
SPLINE
  5
A4
330
1F
100
AcDbEntity
  8
Layer 1
 62
     5
370
     9
100
AcDbSpline
210
0.0
220
0.0
230
1.0
 70
    11
 71
     3
 72
    44
 73
    40
 74
     0
 42
0.0000000001
 43
0.0000000001
 12
1.0
 22
0.0
 32
0.0
 13
1.0
 23
0.0
 33
0.0
 40
0.0
 40
0.0
 40
0.0
 40
0.0
 40
0.0909090909090909
 40
0.0909090909090909
 40
0.0909090909090909
 40
0.0909090909090909
 40
0.1818181818181818
 40
0.1818181818181818
 40
0.1818181818181818
 40
0.1818181818181818
 40
0.2727272727272727
 40
0.2727272727272727
 40
0.2727272727272727
 40
0.2727272727272727
 40
0.3636363636363636
 40
0.3636363636363636
 40
0.3636363636363636
 40
0.3636363636363636
 40
0.4545454545454545
 40
0.4545454545454545
 40
0.4545454545454545
 40
0.4545454545454545
 40
0.5454545454545454
 40
0.5454545454545454
 40
0.5454545454545454
 40
0.5454545454545454
 40
0.6363636363636364
 40
0.6363636363636364
 40
0.6363636363636364
 40
0.6363636363636364
 40
0.7272727272727273
 40
0.7272727272727273
 40
0.7272727272727273
 40
0.7272727272727273
 40
0.8181818181818182
 40
0.8181818181818182
 40
0.8181818181818182
 40
0.8181818181818182
 40
1.0
 40
1.0
 40
1.0
 40
1.0
 10
2.61985
 20
-1.78659
 30
0.0
 10
2.61985
 20
-1.78659
 30
0.0
 10
2.61985
 20
-1.59962
 30
0.0
 10
2.61985
 20
-1.59962
 30
0.0
 10
2.61985
 20
-1.59962
 30
0.0
 10
2.61985
 20
-1.59962
 30
0.0
 10
2.65371
 20
-1.59962
 30
0.0
 10
2.65371
 20
-1.59962
 30
0.0
 10
2.65371
 20
-1.59962
 30
0.0
 10
2.65371
 20
-1.59962
 30
0.0
 10
2.65371
 20
-1.63495
 30
0.0
 10
2.65371
 20
-1.63495
 30
0.0
 10
2.65371
 20
-1.63495
 30
0.0
 10
2.66718
 20
-1.60879
 30
0.0
 10
2.6867
 20
-1.59574
 30
0.0
 10
2.71233
 20
-1.59574
 30
0.0
 10
2.71233
 20
-1.59574
 30
0.0
 10
2.7158
 20
-1.59574
 30
0.0
 10
2.71945
 20
-1.59603
 30
0.0
 10
2.72321
 20
-1.59662
 30
0.0
 10
2.72321
 20
-1.59662
 30
0.0
 10
2.72321
 20
-1.59662
 30
0.0
 10
2.72321
 20
-1.62831
 30
0.0
 10
2.72321
 20
-1.62831
 30
0.0
 10
2.72321
 20
-1.62831
 30
0.0
 10
2.71733
 20
-1.62637
 30
0.0
 10
2.71216
 20
-1.62537
 30
0.0
 10
2.70769
 20
-1.62537
 30
0.0
 10
2.70769
 20
-1.62537
 30
0.0
 10
2.68617
 20
-1.62537
 30
0.0
 10
2.66818
 20
-1.63807
 30
0.0
 10
2.65371
 20
-1.66353
 30
0.0
 10
2.65371
 20
-1.66353
 30
0.0
 10
2.65371
 20
-1.66353
 30
0.0
 10
2.65371
 20
-1.78659
 30
0.0
 10
2.65371
 20
-1.78659
 30
0.0
 10
2.65371
 20
-1.78659
 30
0.0
 10
2.65371
 20
-1.78659
 30
0.0
 10
2.61985
 20
-1.78659
 30
0.0
 10
2.61985
 20
-1.78659
 30
0.0
  0
LWPOLYLINE
  5
A5
330
1F
100
AcDbEntity
  8
Layer 1
 62
     5
370
    53
100
AcDbPolyline
 90
        5
 70
     1
 43
0.0
 10
0.4465
 20
0.3375
 10
0.5215
 20
0.3375
 10
0.5215
 20
0.4125
 10
0.4465
 20
0.4125
 10
0.4465
 20
0.3375
  0
ENDSEC
  0
SECTION
  2
OBJECTS
  0
DICTIONARY
  5
C
330
0
100
AcDbDictionary
281
     1
  3
ACAD_GROUP
350
D
  3
ACAD_LAYOUT
350
1A
  3
ACAD_MATERIAL
350
3B
  3
ACAD_MLEADERSTYLE
350
C7
  3
ACAD_MLINESTYLE
350
17
  3
ACAD_PLOTSETTINGS
350
19
  3
ACAD_PLOTSTYLENAME
350
E
  3
ACAD_TABLESTYLE
350
C6
  3
ACAD_VISUALSTYLE
350
2A
  0
DICTIONARY
  5
D
102
{ACAD_REACTORS
330
C
102
}
330
C
100
AcDbDictionary
281
     1
  0
DICTIONARY
  5
1A
102
{ACAD_REACTORS
330
C
102
}
330
C
100
AcDbDictionary
281
     1
  3
Layout1
350
1E
  3
Layout2
350
26
  3
Model
350
22
  0
DICTIONARY
  5
3B
102
{ACAD_REACTORS
330
C
102
}
330
C
100
AcDbDictionary
281
     1
  3
ByBlock
350
3D
  3
ByLayer
350
3C
  3
Global
350
3E
  0
DICTIONARY
  5
C7
102
{ACAD_REACTORS
330
C
102
}
330
C
100
AcDbDictionary
281
     1
  0
DICTIONARY
  5
17
102
{ACAD_REACTORS
330
C
102
}
330
C
100
AcDbDictionary
281
     1
  3
Standard
350
18
  0
DICTIONARY
  5
19
102
{ACAD_REACTORS
330
C
102
}
330
C
100
AcDbDictionary
281
     1
  0
ACDBDICTIONARYWDFLT
  5
E
102
{ACAD_REACTORS
330
C
102
}
330
C
100
AcDbDictionary
281
     1
  3
Normal
350
F
100
AcDbDictionaryWithDefault
340
F
  0
DICTIONARY
  5
C6
102
{ACAD_REACTORS
330
C
102
}
330
C
100
AcDbDictionary
281
     1
  0
DICTIONARY
  5
2A
102
{ACAD_REACTORS
330
C
102
}
330
C
100
AcDbDictionary
281
     1
  3
2dWireframe
350
2F
  3
3D Hidden
350
31
  3
3dWireframe
350
30
  3
Basic
350
32
  3
Brighten
350
36
  3
ColorChange
350
3A
  3
Conceptual
350
34
  3
Dim
350
35
  3
Facepattern
350
39
  3
Flat
350
2B
  3
FlatWithEdges
350
2C
  3
Gouraud
350
2D
  3
GouraudWithEdges
350
2E
  3
Linepattern
350
38
  3
Realistic
350
33
  3
Thicken
350
37
  0
LAYOUT
  5
1E
102
{ACAD_REACTORS
330
1A
102
}
330
1A
100
AcDbPlotSettings
  1

  2
none_device
  4

  6

 40
0.0
 41
0.0
 42
0.0
 43
0.0
 44
0.0
 45
0.0
 46
0.0
 47
0.0
 48
0.0
 49
0.0
140
0.0
141
0.0
142
1.0
143
1.0
 70
   688
 72
     0
 73
     0
 74
     5
  7

 75
    16
 76
     0
 77
     2
 78
   300
147
1.0
148
0.0
149
0.0
100
AcDbLayout
  1
Layout1
 70
     1
 71
     1
 10
0.0
 20
0.0
 11
12.0
 21
9.0
 12
0.0
 22
0.0
 32
0.0
 14
1.000000000000000E+20
 24
1.000000000000000E+20
 34
1.000000000000000E+20
 15
-1.000000000000000E+20
 25
-1.000000000000000E+20
 35
-1.000000000000000E+20
146
0.0
 13
0.0
 23
0.0
 33
0.0
 16
1.0
 26
0.0
 36
0.0
 17
0.0
 27
1.0
 37
0.0
 76
     0
330
1B
  0
LAYOUT
  5
26
102
{ACAD_REACTORS
330
1A
102
}
330
1A
100
AcDbPlotSettings
  1

  2
none_device
  4

  6

 40
0.0
 41
0.0
 42
0.0
 43
0.0
 44
0.0
 45
0.0
 46
0.0
 47
0.0
 48
0.0
 49
0.0
140
0.0
141
0.0
142
1.0
143
1.0
 70
   688
 72
     0
 73
     0
 74
     5
  7

 75
    16
 76
     0
 77
     2
 78
   300
147
1.0
148
0.0
149
0.0
100
AcDbLayout
  1
Layout2
 70
     1
 71
     2
 10
0.0
 20
0.0
 11
0.0
 21
0.0
 12
0.0
 22
0.0
 32
0.0
 14
0.0
 24
0.0
 34
0.0
 15
0.0
 25
0.0
 35
0.0
146
0.0
 13
0.0
 23
0.0
 33
0.0
 16
1.0
 26
0.0
 36
0.0
 17
0.0
 27
1.0
 37
0.0
 76
     0
330
23
  0
LAYOUT
  5
22
102
{ACAD_REACTORS
330
1A
102
}
330
1A
100
AcDbPlotSettings
  1

  2
none_device
  4

  6

 40
0.0
 41
0.0
 42
0.0
 43
0.0
 44
0.0
 45
0.0
 46
0.0
 47
0.0
 48
0.0
 49
0.0
140
0.0
141
0.0
142
1.0
143
1.0
 70
  1712
 72
     0
 73
     0
 74
     0
  7

 75
     0
 76
     0
 77
     2
 78
   300
147
1.0
148
0.0
149
0.0
100
AcDbLayout
  1
Model
 70
     1
 71
     0
 10
0.0
 20
0.0
 11
12.0
 21
9.0
 12
0.0
 22
0.0
 32
0.0
 14
-3.72646
 24
-2.22646
 34
0.0
 15
3.72646
 25
2.22646
 35
0.0
146
0.0
 13
0.0
 23
0.0
 33
0.0
 16
1.0
 26
0.0
 36
0.0
 17
0.0
 27
1.0
 37
0.0
 76
     0
330
1F
331
29
  0
MATERIAL
  5
3D
102
{ACAD_REACTORS
330
3B
102
}
330
3B
100
AcDbMaterial
  1
ByBlock
 72
     1
 94
      127
  0
MATERIAL
  5
3C
102
{ACAD_REACTORS
330
3B
102
}
330
3B
100
AcDbMaterial
  1
ByLayer
 72
     1
 94
      127
  0
MATERIAL
  5
3E
102
{ACAD_REACTORS
330
3B
102
}
330
3B
100
AcDbMaterial
  1
Global
 72
     1
 94
      127
  0
MLINESTYLE
  5
18
102
{ACAD_REACTORS
330
17
102
}
330
17
100
AcDbMlineStyle
  2
Standard
 70
     0
  3

 62
   256
 51
90.0
 52
90.0
 71
     2
 49
0.5
 62
   256
  6
BYLAYER
 49
-0.5
 62
   256
  6
BYLAYER
  0
ACDBPLACEHOLDER
  5
F
102
{ACAD_REACTORS
330
E
102
}
330
E
  0
VISUALSTYLE
  5
2F
102
{ACAD_REACTORS
330
2A
102
}
102
{ACAD_XDICTIONARY
360
AE
102
}
330
2A
100
AcDbVisualStyle
  2
2dWireframe
 70
     4
 71
     0
 72
     2
 73
     0
 90
        0
 40
-0.6
 41
-30.0
 62
     5
 63
     7
421
 16777215
 74
     1
 91
        4
 64
     7
 65
   257
 75
     1
175
     1
 42
1.0
 92
        0
 66
   257
 43
1.0
 76
     1
 77
     6
 78
     2
 67
     7
 79
     5
170
     0
171
     0
290
     0
174
     0
 93
        1
 44
0.0
173
     0
291
     0
 45
0.0
  0
VISUALSTYLE
  5
31
102
{ACAD_REACTORS
330
2A
102
}
102
{ACAD_XDICTIONARY
360
B2
102
}
330
2A
100
AcDbVisualStyle
  2
3D Hidden
 70
     6
 71
     1
 72
     2
 73
     2
 90
        0
 40
-0.6
 41
-30.0
 62
     5
 63
     7
421
 16777215
 74
     2
 91
        2
 64
     7
 65
   257
 75
     2
175
     1
 42
40.0
 92
        0
 66
   257
 43
1.0
 76
     1
 77
     6
 78
     2
 67
     7
 79
     3
170
     0
171
     0
290
     0
174
     0
 93
        1
 44
0.0
173
     0
291
     0
 45
0.0
  0
VISUALSTYLE
  5
30
102
{ACAD_REACTORS
330
2A
102
}
102
{ACAD_XDICTIONARY
360
B0
102
}
330
2A
100
AcDbVisualStyle
  2
3dWireframe
 70
     5
 71
     0
 72
     2
 73
     0
 90
        0
 40
-0.6
 41
-30.0
 62
     5
 63
     7
421
 16777215
 74
     1
 91
        4
 64
     7
 65
   257
 75
     1
175
     1
 42
1.0
 92
        0
 66
   257
 43
1.0
 76
     1
 77
     6
 78
     2
 67
     7
 79
     5
170
     0
171
     0
290
     0
174
     0
 93
        1
 44
0.0
173
     0
291
     0
 45
0.0
  0
VISUALSTYLE
  5
32
102
{ACAD_REACTORS
330
2A
102
}
102
{ACAD_XDICTIONARY
360
B4
102
}
330
2A
100
AcDbVisualStyle
  2
Basic
 70
     7
 71
     1
 72
     0
 73
     1
 90
        0
 40
-0.6
 41
-30.0
 62
     5
 63
     7
421
 16777215
 74
     0
 91
        4
 64
     7
 65
   257
 75
     1
175
     1
 42
1.0
 92
        8
 66
     7
 43
1.0
 76
     1
 77
     6
 78
     2
 67
     7
 79
     5
170
     0
171
     0
290
     0
174
     0
 93
        1
 44
0.0
173
     0
291
     1
 45
0.0
  0
VISUALSTYLE
  5
36
102
{ACAD_REACTORS
330
2A
102
}
102
{ACAD_XDICTIONARY
360
BC
102
}
330
2A
100
AcDbVisualStyle
  2
Brighten
 70
    12
 71
     2
 72
     2
 73
     0
 90
        0
 40
-0.6
 41
-30.0
 62
     5
 63
     7
421
 16777215
 74
     1
 91
        4
 64
     7
 65
   257
 75
     1
175
     1
 42
1.0
 92
        8
 66
     7
 43
1.0
 76
     1
 77
     6
 78
     2
 67
     7
 79
     5
170
     0
171
     0
290
     0
174
     0
 93
        1
 44
50.0
173
     0
291
     1
 45
0.0
  0
VISUALSTYLE
  5
3A
102
{ACAD_REACTORS
330
2A
102
}
102
{ACAD_XDICTIONARY
360
C4
102
}
330
2A
100
AcDbVisualStyle
  2
ColorChange
 70
    16
 71
     2
 72
     2
 73
     3
 90
        0
 40
-0.6
 41
-30.0
 62
     5
 63
     8
421
  8421504
 74
     1
 91
        4
 64
     7
 65
   257
 75
     1
175
     1
 42
1.0
 92
        8
 66
     8
424
  8421504
 43
1.0
 76
     1
 77
     6
 78
     2
 67
     7
 79
     5
170
     0
171
     0
290
     0
174
     0
 93
        1
 44
0.0
173
     0
291
     1
 45
0.0
  0
VISUALSTYLE
  5
34
102
{ACAD_REACTORS
330
2A
102
}
102
{ACAD_XDICTIONARY
360
B8
102
}
330
2A
100
AcDbVisualStyle
  2
Conceptual
 70
     9
 71
     3
 72
     2
 73
     0
 90
        0
 40
-0.6
 41
-30.0
 62
     5
 63
     7
421
 16777215
 74
     2
 91
        2
 64
     7
 65
   257
 75
     1
175
     1
 42
40.0
 92
        8
 66
     7
 43
1.0
 76
     1
 77
     6
 78
     2
 67
     7
 79
     3
170
     0
171
     0
290
     0
174
     0
 93
        1
 44
0.0
173
     0
291
     0
 45
0.0
  0
VISUALSTYLE
  5
35
102
{ACAD_REACTORS
330
2A
102
}
102
{ACAD_XDICTIONARY
360
BA
102
}
330
2A
100
AcDbVisualStyle
  2
Dim
 70
    11
 71
     2
 72
     2
 73
     0
 90
        0
 40
-0.6
 41
-30.0
 62
     5
 63
     7
421
 16777215
 74
     1
 91
        4
 64
     7
 65
   257
 75
     1
175
     1
 42
1.0
 92
        8
 66
     7
 43
1.0
 76
     1
 77
     6
 78
     2
 67
     7
 79
     5
170
     0
171
     0
290
     0
174
     0
 93
        1
 44
-50.0
173
     0
291
     1
 45
0.0
  0
VISUALSTYLE
  5
39
102
{ACAD_REACTORS
330
2A
102
}
102
{ACAD_XDICTIONARY
360
C2
102
}
330
2A
100
AcDbVisualStyle
  2
Facepattern
 70
    15
 71
     2
 72
     2
 73
     0
 90
        0
 40
-0.6
 41
-30.0
 62
     5
 63
     7
421
 16777215
 74
     1
 91
        4
 64
     7
 65
   257
 75
     1
175
     1
 42
1.0
 92
        8
 66
     7
 43
1.0
 76
     1
 77
     6
 78
     2
 67
     7
 79
     5
170
     0
171
     0
290
     0
174
     0
 93
        1
 44
0.0
173
     0
291
     1
 45
0.0
  0
VISUALSTYLE
  5
2B
102
{ACAD_REACTORS
330
2A
102
}
102
{ACAD_XDICTIONARY
360
A6
102
}
330
2A
100
AcDbVisualStyle
  2
Flat
 70
     0
 71
     2
 72
     1
 73
     1
 90
        2
 40
-0.6
 41
30.0
 62
     5
 63
     7
421
 16777215
 74
     0
 91
        4
 64
     7
 65
   257
 75
     1
175
     1
 42
1.0
 92
        8
 66
     7
 43
1.0
 76
     1
 77
     6
 78
     2
 67
     7
 79
     5
170
     0
171
     0
290
     0
174
     0
 93
       13
 44
0.0
173
     0
291
     1
 45
0.0
  0
VISUALSTYLE
  5
2C
102
{ACAD_REACTORS
330
2A
102
}
102
{ACAD_XDICTIONARY
360
A8
102
}
330
2A
100
AcDbVisualStyle
  2
FlatWithEdges
 70
     1
 71
     2
 72
     1
 73
     1
 90
        2
 40
-0.6
 41
30.0
 62
     5
 63
     7
421
 16777215
 74
     1
 91
        4
 64
     7
 65
   257
 75
     1
175
     1
 42
1.0
 92
        0
 66
   257
 43
1.0
 76
     1
 77
     6
 78
     2
 67
     7
 79
     5
170
     0
171
     0
290
     0
174
     0
 93
       13
 44
0.0
173
     0
291
     1
 45
0.0
  0
VISUALSTYLE
  5
2D
102
{ACAD_REACTORS
330
2A
102
}
102
{ACAD_XDICTIONARY
360
AA
102
}
330
2A
100
AcDbVisualStyle
  2
Gouraud
 70
     2
 71
     2
 72
     2
 73
     1
 90
        2
 40
-0.6
 41
30.0
 62
     5
 63
     7
421
 16777215
 74
     0
 91
        4
 64
     7
 65
   257
 75
     1
175
     1
 42
1.0
 92
        0
 66
     7
 43
1.0
 76
     1
 77
     6
 78
     2
 67
     7
 79
     5
170
     0
171
     0
290
     0
174
     0
 93
       13
 44
0.0
173
     0
291
     1
 45
0.0
  0
VISUALSTYLE
  5
2E
102
{ACAD_REACTORS
330
2A
102
}
102
{ACAD_XDICTIONARY
360
AC
102
}
330
2A
100
AcDbVisualStyle
  2
GouraudWithEdges
 70
     3
 71
     2
 72
     2
 73
     1
 90
        2
 40
-0.6
 41
30.0
 62
     5
 63
     7
421
 16777215
 74
     1
 91
        4
 64
     7
 65
   257
 75
     1
175
     1
 42
1.0
 92
        0
 66
   257
 43
1.0
 76
     1
 77
     6
 78
     2
 67
     7
 79
     5
170
     0
171
     0
290
     0
174
     0
 93
       13
 44
0.0
173
     0
291
     1
 45
0.0
  0
VISUALSTYLE
  5
38
102
{ACAD_REACTORS
330
2A
102
}
102
{ACAD_XDICTIONARY
360
C0
102
}
330
2A
100
AcDbVisualStyle
  2
Linepattern
 70
    14
 71
     2
 72
     2
 73
     0
 90
        0
 40
-0.6
 41
-30.0
 62
     5
 63
     7
421
 16777215
 74
     1
 91
        4
 64
     7
 65
   257
 75
     7
175
     7
 42
1.0
 92
        8
 66
     7
 43
1.0
 76
     1
 77
     6
 78
     2
 67
     7
 79
     5
170
     0
171
     0
290
     0
174
     0
 93
        1
 44
0.0
173
     0
291
     1
 45
0.0
  0
VISUALSTYLE
  5
33
102
{ACAD_REACTORS
330
2A
102
}
102
{ACAD_XDICTIONARY
360
B6
102
}
330
2A
100
AcDbVisualStyle
  2
Realistic
 70
     8
 71
     2
 72
     2
 73
     0
 90
        0
 40
-0.6
 41
-30.0
 62
     5
 63
     7
421
 16777215
 74
     1
 91
        0
 64
     7
 65
   257
 75
     1
175
     1
 42
1.0
 92
        8
 66
     8
424
  7895160
 43
1.0
 76
     1
 77
     6
 78
     2
 67
     7
 79
     5
170
     0
171
     0
290
     0
174
     0
 93
       13
 44
0.0
173
     0
291
     0
 45
0.0
  0
VISUALSTYLE
  5
37
102
{ACAD_REACTORS
330
2A
102
}
102
{ACAD_XDICTIONARY
360
BE
102
}
330
2A
100
AcDbVisualStyle
  2
Thicken
 70
    13
 71
     2
 72
     2
 73
     0
 90
        0
 40
-0.6
 41
-30.0
 62
     5
 63
     7
421
 16777215
 74
     1
 91
        4
 64
     7
 65
   257
 75
     1
175
     1
 42
1.0
 92
       12
 66
     7
 43
1.0
 76
     1
 77
     6
 78
     2
 67
     7
 79
     5
170
     0
171
     0
290
     0
174
     0
 93
        1
 44
0.0
173
     0
291
     1
 45
0.0
  0
DICTIONARY
  5
AE
330
2F
100
AcDbDictionary
280
     1
281
     1
  3
ACAD_XREC_ROUNDTRIP
360
AF
  0
DICTIONARY
  5
B2
330
31
100
AcDbDictionary
280
     1
281
     1
  3
ACAD_XREC_ROUNDTRIP
360
B3
  0
DICTIONARY
  5
B0
330
30
100
AcDbDictionary
280
     1
281
     1
  3
ACAD_XREC_ROUNDTRIP
360
B1
  0
DICTIONARY
  5
B4
330
32
100
AcDbDictionary
280
     1
281
     1
  3
ACAD_XREC_ROUNDTRIP
360
B5
  0
DICTIONARY
  5
BC
330
36
100
AcDbDictionary
280
     1
281
     1
  3
ACAD_XREC_ROUNDTRIP
360
BD
  0
DICTIONARY
  5
C4
330
3A
100
AcDbDictionary
280
     1
281
     1
  3
ACAD_XREC_ROUNDTRIP
360
C5
  0
DICTIONARY
  5
B8
330
34
100
AcDbDictionary
280
     1
281
     1
  3
ACAD_XREC_ROUNDTRIP
360
B9
  0
DICTIONARY
  5
BA
330
35
100
AcDbDictionary
280
     1
281
     1
  3
ACAD_XREC_ROUNDTRIP
360
BB
  0
DICTIONARY
  5
C2
330
39
100
AcDbDictionary
280
     1
281
     1
  3
ACAD_XREC_ROUNDTRIP
360
C3
  0
DICTIONARY
  5
A6
330
2B
100
AcDbDictionary
280
     1
281
     1
  3
ACAD_XREC_ROUNDTRIP
360
A7
  0
DICTIONARY
  5
A8
330
2C
100
AcDbDictionary
280
     1
281
     1
  3
ACAD_XREC_ROUNDTRIP
360
A9
  0
DICTIONARY
  5
AA
330
2D
100
AcDbDictionary
280
     1
281
     1
  3
ACAD_XREC_ROUNDTRIP
360
AB
  0
DICTIONARY
  5
AC
330
2E
100
AcDbDictionary
280
     1
281
     1
  3
ACAD_XREC_ROUNDTRIP
360
AD
  0
DICTIONARY
  5
C0
330
38
100
AcDbDictionary
280
     1
281
     1
  3
ACAD_XREC_ROUNDTRIP
360
C1
  0
DICTIONARY
  5
B6
330
33
100
AcDbDictionary
280
     1
281
     1
  3
ACAD_XREC_ROUNDTRIP
360
B7
  0
DICTIONARY
  5
BE
330
37
100
AcDbDictionary
280
     1
281
     1
  3
ACAD_XREC_ROUNDTRIP
360
BF
  0
XRECORD
  5
AF
102
{ACAD_REACTORS
330
AE
102
}
330
AE
100
AcDbXrecord
280
     1
102
RTVSPropertyOp0
 70
     1
102
RTVSPropertyOp1
 70
     1
102
RTVSPropertyOp2
 70
     1
102
RTVSPropertyOp3
 70
     1
102
RTVSPropertyOp4
 70
     1
102
RTVSPropertyOp5
 70
     1
102
RTVSPropertyOp6
 70
     1
102
RTVSPropertyOp7
 70
     1
102
RTVSPropertyOp8
 70
     1
102
RTVSPropertyOp9
 70
     1
102
RTVSPropertyOp10
 70
     1
102
RTVSPropertyOp11
 70
     1
102
RTVSPropertyOp12
 70
     1
102
RTVSPropertyOp13
 70
     1
102
RTVSPropertyOp14
 70
     1
102
RTVSPropertyOp15
 70
     1
102
RTVSPropertyOp16
 70
     1
102
RTVSPropertyOp17
 70
     1
102
RTVSPropertyOp18
 70
     1
102
RTVSPropertyOp19
 70
     1
102
RTVSPropertyOp20
 70
     1
102
RTVSPropertyOp21
 70
     1
102
RTVSPropertyOp22
 70
     1
102
RTVSPropertyOp23
 70
     1
102
RTVSPropertyOp24
 70
     1
102
RTVSPropertyOp25
 70
     1
102
RTVSPropertyOp26
 70
     1
102
RTVSPropertyOp27
 70
     1
102
RTVSPropertyOp28
 70
     1
102
RTVSPropertyOp29
 70
     1
102
RTVSPropertyOp30
 70
     1
102
RTVSPropertyOp31
 70
     1
102
RTVSPropertyOp32
 70
     1
  0
XRECORD
  5
B3
102
{ACAD_REACTORS
330
B2
102
}
330
B2
100
AcDbXrecord
280
     1
102
RTVSPropertyOp0
 70
     1
102
RTVSPropertyOp1
 70
     1
102
RTVSPropertyOp2
 70
     1
102
RTVSPropertyOp3
 70
     1
102
RTVSPropertyOp4
 70
     1
102
RTVSPropertyOp5
 70
     1
102
RTVSPropertyOp6
 70
     1
102
RTVSPropertyOp7
 70
     1
102
RTVSPropertyOp8
 70
     1
102
RTVSPropertyOp9
 70
     1
102
RTVSPropertyOp10
 70
     1
102
RTVSPropertyOp11
 70
     1
102
RTVSPropertyOp12
 70
     1
102
RTVSPropertyOp13
 70
     1
102
RTVSPropertyOp14
 70
     1
102
RTVSPropertyOp15
 70
     1
102
RTVSPropertyOp16
 70
     1
102
RTVSPropertyOp17
 70
     1
102
RTVSPropertyOp18
 70
     1
102
RTVSPropertyOp19
 70
     1
102
RTVSPropertyOp20
 70
     1
102
RTVSPropertyOp21
 70
     1
102
RTVSPropertyOp22
 70
     1
102
RTVSPropertyOp23
 70
     1
102
RTVSPropertyOp24
 70
     1
102
RTVSPropertyOp25
 70
     1
102
RTVSPropertyOp26
 70
     1
102
RTVSPropertyOp27
 70
     1
102
RTVSPropertyOp28
 70
     1
102
RTVSPropertyOp29
 70
     1
102
RTVSPropertyOp30
 70
     1
102
RTVSPropertyOp31
 70
     1
102
RTVSPropertyOp32
 70
     1
  0
XRECORD
  5
B1
102
{ACAD_REACTORS
330
B0
102
}
330
B0
100
AcDbXrecord
280
     1
102
RTVSPropertyOp0
 70
     1
102
RTVSPropertyOp1
 70
     1
102
RTVSPropertyOp2
 70
     1
102
RTVSPropertyOp3
 70
     1
102
RTVSPropertyOp4
 70
     1
102
RTVSPropertyOp5
 70
     1
102
RTVSPropertyOp6
 70
     1
102
RTVSPropertyOp7
 70
     1
102
RTVSPropertyOp8
 70
     1
102
RTVSPropertyOp9
 70
     1
102
RTVSPropertyOp10
 70
     1
102
RTVSPropertyOp11
 70
     1
102
RTVSPropertyOp12
 70
     1
102
RTVSPropertyOp13
 70
     1
102
RTVSPropertyOp14
 70
     1
102
RTVSPropertyOp15
 70
     1
102
RTVSPropertyOp16
 70
     1
102
RTVSPropertyOp17
 70
     1
102
RTVSPropertyOp18
 70
     1
102
RTVSPropertyOp19
 70
     1
102
RTVSPropertyOp20
 70
     1
102
RTVSPropertyOp21
 70
     1
102
RTVSPropertyOp22
 70
     1
102
RTVSPropertyOp23
 70
     1
102
RTVSPropertyOp24
 70
     1
102
RTVSPropertyOp25
 70
     1
102
RTVSPropertyOp26
 70
     1
102
RTVSPropertyOp27
 70
     1
102
RTVSPropertyOp28
 70
     1
102
RTVSPropertyOp29
 70
     1
102
RTVSPropertyOp30
 70
     1
102
RTVSPropertyOp31
 70
     1
102
RTVSPropertyOp32
 70
     1
  0
XRECORD
  5
B5
102
{ACAD_REACTORS
330
B4
102
}
330
B4
100
AcDbXrecord
280
     1
102
RTVSPropertyOp0
 70
     1
102
RTVSPropertyOp1
 70
     1
102
RTVSPropertyOp2
 70
     1
102
RTVSPropertyOp3
 70
     1
102
RTVSPropertyOp4
 70
     1
102
RTVSPropertyOp5
 70
     1
102
RTVSPropertyOp6
 70
     1
102
RTVSPropertyOp7
 70
     1
102
RTVSPropertyOp8
 70
     1
102
RTVSPropertyOp9
 70
     1
102
RTVSPropertyOp10
 70
     1
102
RTVSPropertyOp11
 70
     1
102
RTVSPropertyOp12
 70
     1
102
RTVSPropertyOp13
 70
     1
102
RTVSPropertyOp14
 70
     1
102
RTVSPropertyOp15
 70
     1
102
RTVSPropertyOp16
 70
     1
102
RTVSPropertyOp17
 70
     1
102
RTVSPropertyOp18
 70
     1
102
RTVSPropertyOp19
 70
     1
102
RTVSPropertyOp20
 70
     1
102
RTVSPropertyOp21
 70
     1
102
RTVSPropertyOp22
 70
     1
102
RTVSPropertyOp23
 70
     1
102
RTVSPropertyOp24
 70
     1
102
RTVSPropertyOp25
 70
     1
102
RTVSPropertyOp26
 70
     1
102
RTVSPropertyOp27
 70
     1
102
RTVSPropertyOp28
 70
     1
102
RTVSPropertyOp29
 70
     1
102
RTVSPropertyOp30
 70
     1
102
RTVSPropertyOp31
 70
     1
102
RTVSPropertyOp32
 70
     1
  0
XRECORD
  5
BD
102
{ACAD_REACTORS
330
BC
102
}
330
BC
100
AcDbXrecord
280
     1
102
RTVSPropertyOp0
 70
     1
102
RTVSPropertyOp1
 70
     1
102
RTVSPropertyOp2
 70
     1
102
RTVSPropertyOp3
 70
     1
102
RTVSPropertyOp4
 70
     1
102
RTVSPropertyOp5
 70
     1
102
RTVSPropertyOp6
 70
     1
102
RTVSPropertyOp7
 70
     1
102
RTVSPropertyOp8
 70
     1
102
RTVSPropertyOp9
 70
     1
102
RTVSPropertyOp10
 70
     1
102
RTVSPropertyOp11
 70
     1
102
RTVSPropertyOp12
 70
     1
102
RTVSPropertyOp13
 70
     1
102
RTVSPropertyOp14
 70
     1
102
RTVSPropertyOp15
 70
     1
102
RTVSPropertyOp16
 70
     1
102
RTVSPropertyOp17
 70
     1
102
RTVSPropertyOp18
 70
     1
102
RTVSPropertyOp19
 70
     1
102
RTVSPropertyOp20
 70
     1
102
RTVSPropertyOp21
 70
     1
102
RTVSPropertyOp22
 70
     1
102
RTVSPropertyOp23
 70
     1
102
RTVSPropertyOp24
 70
     1
102
RTVSPropertyOp25
 70
     1
102
RTVSPropertyOp26
 70
     1
102
RTVSPropertyOp27
 70
     1
102
RTVSPropertyOp28
 70
     1
102
RTVSPropertyOp29
 70
     1
102
RTVSPropertyOp30
 70
     1
102
RTVSPropertyOp31
 70
     1
102
RTVSPropertyOp32
 70
     1
  0
XRECORD
  5
C5
102
{ACAD_REACTORS
330
C4
102
}
330
C4
100
AcDbXrecord
280
     1
102
RTVSPropertyOp0
 70
     1
102
RTVSPropertyOp1
 70
     1
102
RTVSPropertyOp2
 70
     1
102
RTVSPropertyOp3
 70
     1
102
RTVSPropertyOp4
 70
     1
102
RTVSPropertyOp5
 70
     1
102
RTVSPropertyOp6
 70
     1
102
RTVSPropertyOp7
 70
     1
102
RTVSPropertyOp8
 70
     1
102
RTVSPropertyOp9
 70
     1
102
RTVSPropertyOp10
 70
     1
102
RTVSPropertyOp11
 70
     1
102
RTVSPropertyOp12
 70
     1
102
RTVSPropertyOp13
 70
     1
102
RTVSPropertyOp14
 70
     1
102
RTVSPropertyOp15
 70
     1
102
RTVSPropertyOp16
 70
     1
102
RTVSPropertyOp17
 70
     1
102
RTVSPropertyOp18
 70
     1
102
RTVSPropertyOp19
 70
     1
102
RTVSPropertyOp20
 70
     1
102
RTVSPropertyOp21
 70
     1
102
RTVSPropertyOp22
 70
     1
102
RTVSPropertyOp23
 70
     1
102
RTVSPropertyOp24
 70
     1
102
RTVSPropertyOp25
 70
     1
102
RTVSPropertyOp26
 70
     1
102
RTVSPropertyOp27
 70
     1
102
RTVSPropertyOp28
 70
     1
102
RTVSPropertyOp29
 70
     1
102
RTVSPropertyOp30
 70
     1
102
RTVSPropertyOp31
 70
     1
102
RTVSPropertyOp32
 70
     1
  0
XRECORD
  5
B9
102
{ACAD_REACTORS
330
B8
102
}
330
B8
100
AcDbXrecord
280
     1
102
RTVSPropertyOp0
 70
     1
102
RTVSPropertyOp1
 70
     1
102
RTVSPropertyOp2
 70
     1
102
RTVSPropertyOp3
 70
     1
102
RTVSPropertyOp4
 70
     1
102
RTVSPropertyOp5
 70
     1
102
RTVSPropertyOp6
 70
     1
102
RTVSPropertyOp7
 70
     1
102
RTVSPropertyOp8
 70
     1
102
RTVSPropertyOp9
 70
     1
102
RTVSPropertyOp10
 70
     1
102
RTVSPropertyOp11
 70
     1
102
RTVSPropertyOp12
 70
     1
102
RTVSPropertyOp13
 70
     1
102
RTVSPropertyOp14
 70
     1
102
RTVSPropertyOp15
 70
     1
102
RTVSPropertyOp16
 70
     1
102
RTVSPropertyOp17
 70
     1
102
RTVSPropertyOp18
 70
     1
102
RTVSPropertyOp19
 70
     1
102
RTVSPropertyOp20
 70
     1
102
RTVSPropertyOp21
 70
     1
102
RTVSPropertyOp22
 70
     1
102
RTVSPropertyOp23
 70
     1
102
RTVSPropertyOp24
 70
     1
102
RTVSPropertyOp25
 70
     1
102
RTVSPropertyOp26
 70
     1
102
RTVSPropertyOp27
 70
     1
102
RTVSPropertyOp28
 70
     1
102
RTVSPropertyOp29
 70
     1
102
RTVSPropertyOp30
 70
     1
102
RTVSPropertyOp31
 70
     1
102
RTVSPropertyOp32
 70
     1
  0
XRECORD
  5
BB
102
{ACAD_REACTORS
330
BA
102
}
330
BA
100
AcDbXrecord
280
     1
102
RTVSPropertyOp0
 70
     1
102
RTVSPropertyOp1
 70
     1
102
RTVSPropertyOp2
 70
     1
102
RTVSPropertyOp3
 70
     1
102
RTVSPropertyOp4
 70
     1
102
RTVSPropertyOp5
 70
     1
102
RTVSPropertyOp6
 70
     1
102
RTVSPropertyOp7
 70
     1
102
RTVSPropertyOp8
 70
     1
102
RTVSPropertyOp9
 70
     1
102
RTVSPropertyOp10
 70
     1
102
RTVSPropertyOp11
 70
     1
102
RTVSPropertyOp12
 70
     1
102
RTVSPropertyOp13
 70
     1
102
RTVSPropertyOp14
 70
     1
102
RTVSPropertyOp15
 70
     1
102
RTVSPropertyOp16
 70
     1
102
RTVSPropertyOp17
 70
     1
102
RTVSPropertyOp18
 70
     1
102
RTVSPropertyOp19
 70
     1
102
RTVSPropertyOp20
 70
     1
102
RTVSPropertyOp21
 70
     1
102
RTVSPropertyOp22
 70
     1
102
RTVSPropertyOp23
 70
     1
102
RTVSPropertyOp24
 70
     1
102
RTVSPropertyOp25
 70
     1
102
RTVSPropertyOp26
 70
     1
102
RTVSPropertyOp27
 70
     1
102
RTVSPropertyOp28
 70
     1
102
RTVSPropertyOp29
 70
     1
102
RTVSPropertyOp30
 70
     1
102
RTVSPropertyOp31
 70
     1
102
RTVSPropertyOp32
 70
     1
  0
XRECORD
  5
C3
102
{ACAD_REACTORS
330
C2
102
}
330
C2
100
AcDbXrecord
280
     1
102
RTVSPropertyOp0
 70
     1
102
RTVSPropertyOp1
 70
     1
102
RTVSPropertyOp2
 70
     1
102
RTVSPropertyOp3
 70
     1
102
RTVSPropertyOp4
 70
     1
102
RTVSPropertyOp5
 70
     1
102
RTVSPropertyOp6
 70
     1
102
RTVSPropertyOp7
 70
     1
102
RTVSPropertyOp8
 70
     1
102
RTVSPropertyOp9
 70
     1
102
RTVSPropertyOp10
 70
     1
102
RTVSPropertyOp11
 70
     1
102
RTVSPropertyOp12
 70
     1
102
RTVSPropertyOp13
 70
     1
102
RTVSPropertyOp14
 70
     1
102
RTVSPropertyOp15
 70
     1
102
RTVSPropertyOp16
 70
     1
102
RTVSPropertyOp17
 70
     1
102
RTVSPropertyOp18
 70
     1
102
RTVSPropertyOp19
 70
     1
102
RTVSPropertyOp20
 70
     1
102
RTVSPropertyOp21
 70
     1
102
RTVSPropertyOp22
 70
     1
102
RTVSPropertyOp23
 70
     1
102
RTVSPropertyOp24
 70
     1
102
RTVSPropertyOp25
 70
     1
102
RTVSPropertyOp26
 70
     1
102
RTVSPropertyOp27
 70
     1
102
RTVSPropertyOp28
 70
     1
102
RTVSPropertyOp29
 70
     1
102
RTVSPropertyOp30
 70
     1
102
RTVSPropertyOp31
 70
     1
102
RTVSPropertyOp32
 70
     1
  0
XRECORD
  5
A7
102
{ACAD_REACTORS
330
A6
102
}
330
A6
100
AcDbXrecord
280
     1
102
RTVSPropertyOp0
 70
     1
102
RTVSPropertyOp1
 70
     1
102
RTVSPropertyOp2
 70
     1
102
RTVSPropertyOp3
 70
     1
102
RTVSPropertyOp4
 70
     1
102
RTVSPropertyOp5
 70
     1
102
RTVSPropertyOp6
 70
     1
102
RTVSPropertyOp7
 70
     1
102
RTVSPropertyOp8
 70
     1
102
RTVSPropertyOp9
 70
     1
102
RTVSPropertyOp10
 70
     1
102
RTVSPropertyOp11
 70
     1
102
RTVSPropertyOp12
 70
     1
102
RTVSPropertyOp13
 70
     1
102
RTVSPropertyOp14
 70
     1
102
RTVSPropertyOp15
 70
     1
102
RTVSPropertyOp16
 70
     1
102
RTVSPropertyOp17
 70
     1
102
RTVSPropertyOp18
 70
     1
102
RTVSPropertyOp19
 70
     1
102
RTVSPropertyOp20
 70
     1
102
RTVSPropertyOp21
 70
     1
102
RTVSPropertyOp22
 70
     1
102
RTVSPropertyOp23
 70
     1
102
RTVSPropertyOp24
 70
     1
102
RTVSPropertyOp25
 70
     1
102
RTVSPropertyOp26
 70
     1
102
RTVSPropertyOp27
 70
     1
102
RTVSPropertyOp28
 70
     1
102
RTVSPropertyOp29
 70
     1
102
RTVSPropertyOp30
 70
     1
102
RTVSPropertyOp31
 70
     1
102
RTVSPropertyOp32
 70
     1
  0
XRECORD
  5
A9
102
{ACAD_REACTORS
330
A8
102
}
330
A8
100
AcDbXrecord
280
     1
102
RTVSPropertyOp0
 70
     1
102
RTVSPropertyOp1
 70
     1
102
RTVSPropertyOp2
 70
     1
102
RTVSPropertyOp3
 70
     1
102
RTVSPropertyOp4
 70
     1
102
RTVSPropertyOp5
 70
     1
102
RTVSPropertyOp6
 70
     1
102
RTVSPropertyOp7
 70
     1
102
RTVSPropertyOp8
 70
     1
102
RTVSPropertyOp9
 70
     1
102
RTVSPropertyOp10
 70
     1
102
RTVSPropertyOp11
 70
     1
102
RTVSPropertyOp12
 70
     1
102
RTVSPropertyOp13
 70
     1
102
RTVSPropertyOp14
 70
     1
102
RTVSPropertyOp15
 70
     1
102
RTVSPropertyOp16
 70
     1
102
RTVSPropertyOp17
 70
     1
102
RTVSPropertyOp18
 70
     1
102
RTVSPropertyOp19
 70
     1
102
RTVSPropertyOp20
 70
     1
102
RTVSPropertyOp21
 70
     1
102
RTVSPropertyOp22
 70
     1
102
RTVSPropertyOp23
 70
     1
102
RTVSPropertyOp24
 70
     1
102
RTVSPropertyOp25
 70
     1
102
RTVSPropertyOp26
 70
     1
102
RTVSPropertyOp27
 70
     1
102
RTVSPropertyOp28
 70
     1
102
RTVSPropertyOp29
 70
     1
102
RTVSPropertyOp30
 70
     1
102
RTVSPropertyOp31
 70
     1
102
RTVSPropertyOp32
 70
     1
  0
XRECORD
  5
AB
102
{ACAD_REACTORS
330
AA
102
}
330
AA
100
AcDbXrecord
280
     1
102
RTVSPropertyOp0
 70
     1
102
RTVSPropertyOp1
 70
     1
102
RTVSPropertyOp2
 70
     1
102
RTVSPropertyOp3
 70
     1
102
RTVSPropertyOp4
 70
     1
102
RTVSPropertyOp5
 70
     1
102
RTVSPropertyOp6
 70
     1
102
RTVSPropertyOp7
 70
     1
102
RTVSPropertyOp8
 70
     1
102
RTVSPropertyOp9
 70
     1
102
RTVSPropertyOp10
 70
     1
102
RTVSPropertyOp11
 70
     1
102
RTVSPropertyOp12
 70
     1
102
RTVSPropertyOp13
 70
     1
102
RTVSPropertyOp14
 70
     1
102
RTVSPropertyOp15
 70
     1
102
RTVSPropertyOp16
 70
     1
102
RTVSPropertyOp17
 70
     1
102
RTVSPropertyOp18
 70
     1
102
RTVSPropertyOp19
 70
     1
102
RTVSPropertyOp20
 70
     1
102
RTVSPropertyOp21
 70
     1
102
RTVSPropertyOp22
 70
     1
102
RTVSPropertyOp23
 70
     1
102
RTVSPropertyOp24
 70
     1
102
RTVSPropertyOp25
 70
     1
102
RTVSPropertyOp26
 70
     1
102
RTVSPropertyOp27
 70
     1
102
RTVSPropertyOp28
 70
     1
102
RTVSPropertyOp29
 70
     1
102
RTVSPropertyOp30
 70
     1
102
RTVSPropertyOp31
 70
     1
102
RTVSPropertyOp32
 70
     1
  0
XRECORD
  5
AD
102
{ACAD_REACTORS
330
AC
102
}
330
AC
100
AcDbXrecord
280
     1
102
RTVSPropertyOp0
 70
     1
102
RTVSPropertyOp1
 70
     1
102
RTVSPropertyOp2
 70
     1
102
RTVSPropertyOp3
 70
     1
102
RTVSPropertyOp4
 70
     1
102
RTVSPropertyOp5
 70
     1
102
RTVSPropertyOp6
 70
     1
102
RTVSPropertyOp7
 70
     1
102
RTVSPropertyOp8
 70
     1
102
RTVSPropertyOp9
 70
     1
102
RTVSPropertyOp10
 70
     1
102
RTVSPropertyOp11
 70
     1
102
RTVSPropertyOp12
 70
     1
102
RTVSPropertyOp13
 70
     1
102
RTVSPropertyOp14
 70
     1
102
RTVSPropertyOp15
 70
     1
102
RTVSPropertyOp16
 70
     1
102
RTVSPropertyOp17
 70
     1
102
RTVSPropertyOp18
 70
     1
102
RTVSPropertyOp19
 70
     1
102
RTVSPropertyOp20
 70
     1
102
RTVSPropertyOp21
 70
     1
102
RTVSPropertyOp22
 70
     1
102
RTVSPropertyOp23
 70
     1
102
RTVSPropertyOp24
 70
     1
102
RTVSPropertyOp25
 70
     1
102
RTVSPropertyOp26
 70
     1
102
RTVSPropertyOp27
 70
     1
102
RTVSPropertyOp28
 70
     1
102
RTVSPropertyOp29
 70
     1
102
RTVSPropertyOp30
 70
     1
102
RTVSPropertyOp31
 70
     1
102
RTVSPropertyOp32
 70
     1
  0
XRECORD
  5
C1
102
{ACAD_REACTORS
330
C0
102
}
330
C0
100
AcDbXrecord
280
     1
102
RTVSPropertyOp0
 70
     1
102
RTVSPropertyOp1
 70
     1
102
RTVSPropertyOp2
 70
     1
102
RTVSPropertyOp3
 70
     1
102
RTVSPropertyOp4
 70
     1
102
RTVSPropertyOp5
 70
     1
102
RTVSPropertyOp6
 70
     1
102
RTVSPropertyOp7
 70
     1
102
RTVSPropertyOp8
 70
     1
102
RTVSPropertyOp9
 70
     1
102
RTVSPropertyOp10
 70
     1
102
RTVSPropertyOp11
 70
     1
102
RTVSPropertyOp12
 70
     1
102
RTVSPropertyOp13
 70
     1
102
RTVSPropertyOp14
 70
     1
102
RTVSPropertyOp15
 70
     1
102
RTVSPropertyOp16
 70
     1
102
RTVSPropertyOp17
 70
     1
102
RTVSPropertyOp18
 70
     1
102
RTVSPropertyOp19
 70
     1
102
RTVSPropertyOp20
 70
     1
102
RTVSPropertyOp21
 70
     1
102
RTVSPropertyOp22
 70
     1
102
RTVSPropertyOp23
 70
     1
102
RTVSPropertyOp24
 70
     1
102
RTVSPropertyOp25
 70
     1
102
RTVSPropertyOp26
 70
     1
102
RTVSPropertyOp27
 70
     1
102
RTVSPropertyOp28
 70
     1
102
RTVSPropertyOp29
 70
     1
102
RTVSPropertyOp30
 70
     1
102
RTVSPropertyOp31
 70
     1
102
RTVSPropertyOp32
 70
     1
  0
XRECORD
  5
B7
102
{ACAD_REACTORS
330
B6
102
}
330
B6
100
AcDbXrecord
280
     1
102
RTVSPropertyOp0
 70
     1
102
RTVSPropertyOp1
 70
     1
102
RTVSPropertyOp2
 70
     1
102
RTVSPropertyOp3
 70
     1
102
RTVSPropertyOp4
 70
     1
102
RTVSPropertyOp5
 70
     1
102
RTVSPropertyOp6
 70
     1
102
RTVSPropertyOp7
 70
     1
102
RTVSPropertyOp8
 70
     1
102
RTVSPropertyOp9
 70
     1
102
RTVSPropertyOp10
 70
     1
102
RTVSPropertyOp11
 70
     1
102
RTVSPropertyOp12
 70
     1
102
RTVSPropertyOp13
 70
     1
102
RTVSPropertyOp14
 70
     1
102
RTVSPropertyOp15
 70
     1
102
RTVSPropertyOp16
 70
     1
102
RTVSPropertyOp17
 70
     1
102
RTVSPropertyOp18
 70
     1
102
RTVSPropertyOp19
 70
     1
102
RTVSPropertyOp20
 70
     1
102
RTVSPropertyOp21
 70
     1
102
RTVSPropertyOp22
 70
     1
102
RTVSPropertyOp23
 70
     1
102
RTVSPropertyOp24
 70
     1
102
RTVSPropertyOp25
 70
     1
102
RTVSPropertyOp26
 70
     1
102
RTVSPropertyOp27
 70
     1
102
RTVSPropertyOp28
 70
     1
102
RTVSPropertyOp29
 70
     1
102
RTVSPropertyOp30
 70
     1
102
RTVSPropertyOp31
 70
     1
102
RTVSPropertyOp32
 70
     1
  0
XRECORD
  5
BF
102
{ACAD_REACTORS
330
BE
102
}
330
BE
100
AcDbXrecord
280
     1
102
RTVSPropertyOp0
 70
     1
102
RTVSPropertyOp1
 70
     1
102
RTVSPropertyOp2
 70
     1
102
RTVSPropertyOp3
 70
     1
102
RTVSPropertyOp4
 70
     1
102
RTVSPropertyOp5
 70
     1
102
RTVSPropertyOp6
 70
     1
102
RTVSPropertyOp7
 70
     1
102
RTVSPropertyOp8
 70
     1
102
RTVSPropertyOp9
 70
     1
102
RTVSPropertyOp10
 70
     1
102
RTVSPropertyOp11
 70
     1
102
RTVSPropertyOp12
 70
     1
102
RTVSPropertyOp13
 70
     1
102
RTVSPropertyOp14
 70
     1
102
RTVSPropertyOp15
 70
     1
102
RTVSPropertyOp16
 70
     1
102
RTVSPropertyOp17
 70
     1
102
RTVSPropertyOp18
 70
     1
102
RTVSPropertyOp19
 70
     1
102
RTVSPropertyOp20
 70
     1
102
RTVSPropertyOp21
 70
     1
102
RTVSPropertyOp22
 70
     1
102
RTVSPropertyOp23
 70
     1
102
RTVSPropertyOp24
 70
     1
102
RTVSPropertyOp25
 70
     1
102
RTVSPropertyOp26
 70
     1
102
RTVSPropertyOp27
 70
     1
102
RTVSPropertyOp28
 70
     1
102
RTVSPropertyOp29
 70
     1
102
RTVSPropertyOp30
 70
     1
102
RTVSPropertyOp31
 70
     1
102
RTVSPropertyOp32
 70
     1
  0
ENDSEC
  0
EOF
